{"glyphs":{"0":{"ha":876,"x_min":76,"x_max":821,"o":"m 533 986 q 750 904 679 986 q 821 681 821 822 q 764 317 821 488 q 683 150 732 222 q 554 32 635 78 q 372 -14 474 -14 q 76 292 76 -14 q 139 661 76 492 q 222 826 172 756 q 353 942 272 897 q 533 986 433 986 m 675 667 q 639 819 675 771 q 521 868 603 868 q 380 813 439 868 q 289 669 321 757 q 222 306 222 493 q 260 151 222 199 q 394 104 299 104 q 520 160 464 104 q 608 303 576 215 q 675 667 675 485 z "},"1":{"ha":686,"x_min":35,"x_max":610,"o":"m 35 0 l 54 118 l 261 118 l 372 813 l 110 656 l 69 756 l 419 972 l 538 972 l 400 118 l 610 118 l 592 0 l 35 0 z "},"2":{"ha":807,"x_min":0,"x_max":738,"o":"m 0 0 l 19 118 l 196 261 q 497 541 413 436 q 582 743 582 646 q 542 833 582 799 q 425 868 501 868 q 296 851 363 868 l 274 846 l 240 708 l 131 708 l 158 936 q 457 986 328 986 q 662 939 586 986 q 738 770 738 892 q 640 516 738 649 q 344 226 543 383 l 208 118 l 664 118 l 644 0 l 0 0 z "},"3":{"ha":758,"x_min":-14,"x_max":696,"o":"m 419 986 q 483 986 419 986 q 622 933 547 986 q 696 783 696 881 q 641 613 696 685 q 476 511 586 542 q 597 440 553 493 q 642 321 642 386 q 526 81 642 176 q 243 -14 411 -14 q 113 3 176 -14 q 17 39 49 21 l -14 56 l 40 163 q 259 104 160 104 q 424 160 358 104 q 490 304 490 217 q 311 451 490 451 l 206 451 l 224 563 l 321 563 q 492 619 436 563 q 547 753 547 675 q 508 837 547 806 q 396 868 469 868 q 269 851 328 868 l 250 846 l 219 719 l 108 719 l 135 936 q 419 986 290 986 z "},"4":{"ha":822,"x_min":0,"x_max":753,"o":"m 0 236 l 7 333 l 547 993 l 688 972 l 588 347 l 753 347 l 733 236 l 571 236 l 533 0 l 401 0 l 439 236 l 0 236 m 529 811 l 149 347 l 456 347 l 529 811 z "},"5":{"ha":758,"x_min":7,"x_max":731,"o":"m 61 161 q 288 104 189 104 q 454 165 386 104 q 522 313 522 225 q 271 479 522 479 l 133 479 l 221 972 l 731 972 l 711 854 l 329 854 l 283 590 l 328 590 q 584 522 494 590 q 674 340 674 453 q 558 88 674 190 q 279 -14 442 -14 q 138 3 206 -14 q 39 39 69 21 l 7 56 l 61 161 z "},"6":{"ha":838,"x_min":92,"x_max":789,"o":"m 269 528 q 379 576 308 554 q 511 597 450 597 q 690 535 618 597 q 763 363 763 474 q 651 97 763 208 q 381 -14 539 -14 q 243 13 301 -14 q 153 83 185 39 q 92 293 92 171 q 169 642 92 472 q 278 813 214 738 q 448 937 343 888 q 681 986 553 986 q 772 975 725 986 l 789 972 l 769 861 q 660 868 721 868 q 542 849 599 868 q 445 801 485 831 q 374 734 406 771 q 322 661 342 697 q 275 547 285 589 l 269 528 m 246 417 q 232 292 232 333 q 277 156 232 207 q 410 104 322 104 q 558 171 499 104 q 617 338 617 238 q 453 479 617 479 q 353 463 404 479 q 274 432 301 447 l 246 417 z "},"7":{"ha":714,"x_min":56,"x_max":749,"o":"m 97 972 l 749 972 l 731 868 l 232 0 l 75 0 l 571 847 l 206 847 l 157 715 l 56 715 l 97 972 z "},"8":{"ha":875,"x_min":69,"x_max":806,"o":"m 543 986 q 738 931 671 986 q 806 781 806 876 q 747 617 806 685 q 592 515 689 550 q 705 438 664 482 q 746 318 746 393 q 631 81 746 175 q 363 -14 515 -14 q 140 48 210 -14 q 69 203 69 110 q 300 510 69 408 q 171 690 171 579 q 270 903 171 821 q 543 986 369 986 m 222 236 q 392 106 222 106 q 536 160 479 106 q 593 294 593 214 q 535 396 593 358 q 410 460 493 422 q 273 368 324 419 q 222 236 222 317 m 660 747 q 660 777 660 747 q 621 838 660 807 q 506 868 582 868 q 372 826 429 868 q 315 710 315 783 q 369 611 315 646 q 485 556 410 585 q 608 633 556 581 q 660 747 660 686 z "},"9":{"ha":864,"x_min":69,"x_max":767,"o":"m 590 451 q 481 403 551 425 q 349 382 410 382 q 167 443 238 382 q 96 615 96 504 q 207 877 96 768 q 478 986 318 986 q 683 913 600 986 q 767 676 767 839 q 683 314 767 488 q 572 149 638 221 q 403 31 506 76 q 175 -14 300 -14 q 83 -3 125 -14 l 69 0 l 88 111 q 200 104 138 104 q 321 124 263 104 q 419 174 379 143 q 490 241 458 204 q 540 314 522 278 q 586 432 576 389 l 590 451 m 614 563 q 626 676 626 626 q 580 821 626 774 q 447 868 533 868 q 301 801 361 868 q 242 633 242 735 q 407 500 242 500 q 507 515 456 500 q 586 547 558 531 l 614 563 z "}," ":{"ha":417,"x_min":0,"x_max":0,"o":""},"!":{"ha":458,"x_min":76,"x_max":403,"o":"m 403 1042 l 269 347 l 154 340 l 246 1042 l 403 1042 m 76 63 q 105 146 76 111 q 183 181 133 181 q 260 104 260 181 q 231 22 260 57 q 151 -14 203 -14 q 76 63 76 -14 z "},"\"":{"ha":557,"x_min":125,"x_max":543,"o":"m 543 1069 l 461 722 l 358 722 l 413 1069 l 543 1069 m 308 1069 l 226 722 l 125 722 l 179 1069 l 308 1069 z "},"#":{"ha":957,"x_min":69,"x_max":894,"o":"m 150 528 l 164 618 l 325 618 l 388 833 l 497 833 l 435 618 l 631 618 l 694 833 l 803 833 l 742 618 l 894 618 l 881 528 l 715 528 l 656 326 l 811 326 l 797 236 l 629 236 l 563 0 l 453 0 l 521 236 l 324 236 l 256 0 l 147 0 l 214 236 l 69 236 l 83 326 l 240 326 l 299 528 l 150 528 m 408 528 l 350 326 l 547 326 l 604 528 l 408 528 z "},"$":{"ha":781,"x_min":56,"x_max":739,"o":"m 179 271 l 183 129 q 320 101 243 101 q 462 142 397 101 q 526 250 526 183 q 396 378 526 329 q 288 422 342 397 q 197 492 235 446 q 158 608 158 539 q 235 794 158 725 q 426 881 311 864 l 450 1035 l 553 1042 l 528 885 q 708 844 625 876 l 739 833 l 697 614 l 622 614 l 604 754 q 467 778 539 778 q 347 740 396 778 q 299 651 299 701 q 337 570 299 601 q 429 519 375 539 q 537 474 483 499 q 628 406 590 450 q 667 297 667 361 q 588 95 667 174 q 388 -6 508 17 l 357 -194 l 256 -194 l 285 -14 q 173 1 231 -12 q 86 26 115 14 l 56 39 l 93 271 l 179 271 z "},"%":{"ha":1132,"x_min":106,"x_max":1010,"o":"m 144 0 l 850 972 l 972 972 l 267 0 l 144 0 m 379 986 q 508 940 463 986 q 554 810 554 893 q 482 590 554 679 q 289 500 410 500 q 106 676 106 500 q 183 898 106 810 q 379 986 260 986 m 353 897 q 249 842 289 897 q 210 693 210 786 q 236 615 210 642 q 317 589 263 589 q 410 643 371 589 q 450 785 450 697 q 353 897 450 897 m 835 472 q 964 426 918 472 q 1010 296 1010 379 q 938 76 1010 165 q 744 -14 865 -14 q 561 163 561 -14 q 638 384 561 296 q 835 472 715 472 m 808 383 q 705 328 744 383 q 665 179 665 272 q 692 101 665 128 q 772 75 718 75 q 866 129 826 75 q 906 271 906 183 q 808 383 906 383 z "},"&":{"ha":931,"x_min":65,"x_max":879,"o":"m 753 458 l 725 292 q 600 67 701 147 q 350 -14 499 -14 q 133 47 201 -14 q 65 215 65 108 q 129 399 65 321 q 294 528 193 478 q 253 548 281 532 q 209 581 226 564 q 178 628 192 597 q 164 693 164 658 q 261 910 164 833 q 521 986 358 986 q 639 972 576 986 q 736 944 701 958 l 771 932 l 736 736 l 649 736 l 639 847 q 496 868 586 868 q 355 823 406 868 q 304 710 304 778 q 349 606 304 643 q 465 569 393 569 l 879 569 l 865 486 l 753 458 m 588 285 l 615 458 l 433 458 q 276 396 342 458 q 211 236 211 333 q 253 138 211 172 q 377 104 296 104 q 516 151 458 104 q 588 285 574 197 z "},"'":{"ha":294,"x_min":111,"x_max":294,"o":"m 294 1069 l 213 722 l 111 722 l 165 1069 l 294 1069 z "},"(":{"ha":458,"x_min":90,"x_max":564,"o":"m 442 1069 l 564 1069 q 317 650 404 861 q 231 186 231 439 q 342 -319 231 -114 l 221 -319 q 90 175 90 -76 q 174 642 90 426 q 442 1069 258 857 z "},")":{"ha":458,"x_min":-107,"x_max":367,"o":"m 15 -319 l -107 -319 q 140 100 53 -111 q 226 564 226 311 q 115 1069 226 864 l 236 1069 q 367 575 367 826 q 283 108 367 324 q 15 -319 199 -107 z "},"*":{"ha":600,"x_min":111,"x_max":572,"o":"m 344 814 l 314 846 l 325 1018 l 424 1021 l 386 844 l 553 913 l 572 815 l 396 775 l 488 638 l 400 576 l 331 733 l 350 781 l 396 775 l 361 801 l 386 844 l 344 814 m 314 846 l 325 801 l 281 778 l 328 781 l 331 733 l 217 576 l 144 635 l 281 778 l 111 813 l 160 910 l 314 846 z "},"+":{"ha":857,"x_min":63,"x_max":788,"o":"m 63 315 l 82 421 l 374 421 l 424 736 l 542 736 l 490 421 l 788 421 l 769 315 l 472 315 l 424 0 l 306 0 l 356 315 l 63 315 z "},",":{"ha":319,"x_min":-21,"x_max":236,"o":"m 57 71 q 86 147 57 114 q 161 181 115 181 q 236 104 236 181 q 164 -65 236 31 q 53 -194 104 -144 l 32 -214 l -21 -161 q 76 -10 76 -50 q 67 28 76 3 q 57 71 57 53 z "},"-":{"ha":533,"x_min":71,"x_max":443,"o":"m 71 319 l 90 438 l 443 438 l 424 319 l 71 319 z "},".":{"ha":301,"x_min":42,"x_max":225,"o":"m 42 63 q 70 146 42 111 q 149 181 99 181 q 225 104 225 181 q 197 22 225 57 q 117 -14 168 -14 q 42 63 42 -14 z "},"/":{"ha":622,"x_min":-35,"x_max":713,"o":"m -35 0 l 569 972 l 713 972 l 107 0 l -35 0 z "},":":{"ha":400,"x_min":56,"x_max":310,"o":"m 56 63 q 84 146 56 111 q 163 181 113 181 q 239 104 239 181 q 210 22 239 57 q 131 -14 182 -14 q 56 63 56 -14 m 126 514 q 155 597 126 563 q 233 632 183 632 q 310 556 310 632 q 281 473 310 508 q 201 438 253 438 q 126 514 126 438 z "},";":{"ha":413,"x_min":-14,"x_max":315,"o":"m 64 71 q 93 147 64 114 q 168 181 122 181 q 243 104 243 181 q 221 19 243 67 q 172 -65 199 -28 q 101 -149 144 -101 q 39 -214 58 -197 l -14 -161 l 11 -132 q 59 -65 35 -103 q 83 -12 83 -28 q 74 28 83 3 q 64 71 64 53 m 132 514 q 160 597 132 563 q 239 632 189 632 q 315 556 315 632 q 287 473 315 508 q 207 438 258 438 q 132 514 132 438 z "},"<":{"ha":850,"x_min":69,"x_max":832,"o":"m 229 365 l 728 108 l 708 -7 l 69 319 l 86 417 l 832 736 l 813 615 l 229 365 z "},"=":{"ha":833,"x_min":51,"x_max":781,"o":"m 51 188 l 69 299 l 736 299 l 718 188 l 51 188 m 96 458 l 114 569 l 781 569 l 763 458 l 96 458 z "},">":{"ha":846,"x_min":14,"x_max":776,"o":"m 617 364 l 118 621 l 138 736 l 776 410 l 760 313 l 14 -7 l 33 114 l 617 364 z "},"?":{"ha":636,"x_min":118,"x_max":629,"o":"m 301 104 q 273 21 301 56 q 194 -14 244 -14 q 118 63 118 -14 q 147 145 118 110 q 226 181 175 181 q 301 104 301 181 m 299 328 l 178 319 l 178 408 q 209 506 178 460 q 285 588 240 553 q 375 658 331 624 q 483 831 483 742 q 356 919 483 919 q 231 907 293 919 l 210 903 l 203 1003 q 393 1035 303 1035 q 629 854 629 1035 q 595 730 629 789 q 513 628 561 671 q 415 547 464 586 q 299 390 299 456 l 299 328 z "},"@":{"ha":1139,"x_min":83,"x_max":1056,"o":"m 675 385 q 550 239 635 283 q 476 221 515 221 q 374 269 411 221 q 336 389 336 318 q 421 658 336 561 q 621 756 506 756 q 719 731 678 756 l 733 724 l 758 744 l 818 744 l 768 429 q 763 375 763 385 q 810 311 763 311 q 910 398 875 311 q 944 581 944 485 q 863 803 944 724 q 638 882 781 882 q 398 813 496 882 q 250 631 300 744 q 200 378 200 518 q 274 165 200 239 q 485 90 347 90 q 631 117 558 90 l 654 125 l 696 42 q 461 -14 599 -14 q 181 82 278 -14 q 83 354 83 178 q 147 672 83 531 q 340 899 210 813 q 658 986 471 986 q 950 885 844 986 q 1056 604 1056 785 q 985 336 1056 451 q 789 221 915 221 q 692 274 715 221 q 674 358 674 317 l 675 385 m 683 560 l 704 656 q 619 671 669 671 q 499 602 553 671 q 444 424 444 533 q 500 314 444 314 q 561 339 531 314 q 613 400 592 364 q 675 535 654 472 l 683 560 z "},"A":{"ha":981,"x_min":-56,"x_max":918,"o":"m 668 111 l 640 264 l 286 264 l 210 110 l 326 83 l 313 0 l -56 0 l -43 83 l 75 111 l 519 965 l 657 972 l 824 107 l 918 83 l 904 0 l 536 0 l 549 83 l 668 111 m 550 793 l 340 375 l 621 375 l 550 793 z "},"B":{"ha":883,"x_min":7,"x_max":835,"o":"m 144 111 l 263 861 l 150 889 l 163 965 l 419 972 l 564 972 q 758 918 681 972 q 835 758 835 864 q 769 588 835 653 q 618 504 704 524 q 801 315 801 463 q 697 83 801 167 q 426 0 592 0 l 7 0 l 21 83 l 144 111 m 283 111 l 413 111 q 590 167 526 111 q 653 303 653 222 q 601 418 653 385 q 440 451 549 451 l 336 451 l 283 111 m 550 861 l 401 861 l 353 556 l 454 556 q 603 593 529 556 q 665 652 642 613 q 688 746 688 692 q 649 831 688 800 q 550 861 611 861 z "},"C":{"ha":886,"x_min":83,"x_max":921,"o":"m 921 917 l 883 681 l 803 681 l 786 833 q 597 868 701 868 q 408 796 493 868 q 280 610 324 724 q 236 373 236 496 q 297 179 236 250 q 456 108 357 108 q 764 217 617 108 l 814 135 q 428 -14 629 -14 q 175 81 267 -14 q 83 339 83 176 q 238 804 83 622 q 628 986 392 986 q 769 969 696 986 q 881 933 842 951 l 921 917 z "},"D":{"ha":1004,"x_min":7,"x_max":942,"o":"m 140 110 l 261 861 l 149 889 l 161 965 l 418 972 l 597 972 q 847 885 753 972 q 942 646 942 797 q 790 169 942 338 q 375 0 638 0 l 7 0 l 21 83 l 140 110 m 401 861 l 282 111 l 396 111 q 690 253 585 111 q 796 628 796 394 q 740 800 796 739 q 576 861 685 861 l 401 861 z "},"E":{"ha":803,"x_min":7,"x_max":838,"o":"m 143 111 l 263 861 l 149 889 l 161 965 l 419 972 l 838 972 l 800 736 l 722 736 l 708 861 l 401 861 l 353 563 l 669 563 l 653 451 l 336 451 l 282 111 l 597 111 l 649 253 l 740 253 l 697 0 l 7 0 l 21 83 l 143 111 z "},"F":{"ha":761,"x_min":7,"x_max":838,"o":"m 401 861 l 350 549 l 668 549 l 651 438 l 335 438 l 282 111 l 418 83 l 404 0 l 7 0 l 21 83 l 143 111 l 264 861 l 149 889 l 161 965 l 419 972 l 838 972 l 800 736 l 722 736 l 708 861 l 401 861 z "},"G":{"ha":1006,"x_min":83,"x_max":992,"o":"m 822 69 q 461 -14 643 -14 q 181 83 279 -14 q 83 339 83 179 q 238 805 83 624 q 628 986 392 986 q 769 969 696 986 q 881 933 842 951 l 921 917 l 883 693 l 803 693 l 786 838 q 603 868 710 868 q 411 796 497 868 q 281 609 325 724 q 236 369 236 494 q 298 174 236 243 q 479 106 360 106 q 699 143 599 106 l 736 375 l 618 396 l 631 472 l 992 479 l 978 396 l 871 375 l 822 69 z "},"H":{"ha":1104,"x_min":14,"x_max":1132,"o":"m 593 0 l 607 83 l 738 110 l 792 444 l 339 444 l 286 111 l 407 83 l 393 0 l 14 0 l 28 83 l 147 110 l 268 861 l 154 889 l 167 965 l 549 972 l 535 889 l 407 861 l 357 556 l 810 556 l 858 861 l 732 889 l 744 965 l 1132 972 l 1118 889 l 997 861 l 876 111 l 993 83 l 979 0 l 593 0 z "},"I":{"ha":519,"x_min":14,"x_max":547,"o":"m 153 111 l 272 861 l 156 889 l 168 965 l 547 972 l 533 889 l 411 861 l 290 111 l 407 83 l 393 0 l 14 0 l 28 83 l 153 111 z "},"J":{"ha":481,"x_min":-118,"x_max":529,"o":"m 124 35 l 256 861 l 138 889 l 150 965 l 529 972 l 515 889 l 394 861 l 267 63 q 168 -136 247 -64 q -32 -208 89 -208 l -118 -201 l -89 -97 l -21 -97 q 124 35 101 -97 z "},"K":{"ha":896,"x_min":7,"x_max":986,"o":"m 533 0 l 547 83 l 653 110 l 472 444 l 335 444 l 282 111 l 400 83 l 386 0 l 7 0 l 21 83 l 143 111 l 264 861 l 147 889 l 160 965 l 540 972 l 526 889 l 403 861 l 353 556 l 481 556 l 781 965 l 986 972 l 972 889 l 854 861 l 592 510 l 810 111 l 908 83 l 894 0 l 533 0 z "},"L":{"ha":746,"x_min":14,"x_max":725,"o":"m 679 0 l 14 0 l 28 83 l 151 111 l 271 861 l 156 889 l 167 965 l 554 972 l 540 889 l 410 861 l 290 111 l 576 111 l 631 271 l 725 271 l 679 0 z "},"M":{"ha":1222,"x_min":7,"x_max":1257,"o":"m 1118 83 l 1104 0 l 739 0 l 753 83 l 869 111 l 975 772 l 650 250 l 536 243 l 379 778 l 272 111 l 394 83 l 381 0 l 7 0 l 21 83 l 143 111 l 264 861 l 149 889 l 161 965 l 463 972 l 628 415 l 967 965 l 1257 972 l 1243 889 l 1125 861 l 1007 111 l 1118 83 z "},"N":{"ha":1092,"x_min":7,"x_max":1140,"o":"m 163 965 l 454 972 l 779 196 l 885 861 l 774 889 l 786 965 l 1140 972 l 1126 889 l 1008 861 l 872 0 l 715 0 l 376 782 l 269 111 l 383 83 l 368 0 l 7 0 l 22 83 l 146 111 l 265 861 l 150 889 l 163 965 z "},"O":{"ha":1028,"x_min":83,"x_max":979,"o":"m 418 -14 q 173 77 263 -14 q 83 325 83 168 q 238 801 83 617 q 628 986 393 986 q 886 892 793 986 q 979 646 979 799 q 820 167 979 347 q 418 -14 661 -14 m 826 628 q 767 809 826 750 q 604 868 708 868 q 339 713 442 868 q 236 339 236 558 q 292 164 236 224 q 449 104 349 104 q 720 253 614 104 q 826 628 826 403 z "},"P":{"ha":801,"x_min":7,"x_max":836,"o":"m 161 965 l 418 972 l 564 972 q 756 920 675 972 q 836 754 836 868 q 798 561 836 640 q 694 440 760 482 q 413 361 571 361 l 321 361 l 281 110 l 400 83 l 386 0 l 7 0 l 21 83 l 142 111 l 261 861 l 149 889 l 161 965 m 400 861 l 338 472 l 431 472 q 630 542 569 472 q 690 721 690 613 q 635 835 690 804 q 539 861 588 861 l 400 861 z "},"Q":{"ha":1029,"x_min":76,"x_max":1008,"o":"m 575 10 l 700 -86 q 831 -139 768 -139 q 944 -103 871 -139 l 968 -90 l 1008 -174 q 792 -253 860 -253 q 618 -179 725 -253 l 374 -12 q 156 88 235 -1 q 76 325 76 178 q 231 801 76 617 q 621 986 386 986 q 879 896 786 986 q 972 660 972 806 q 864 238 972 408 q 575 10 756 67 m 442 104 q 714 256 608 104 q 819 638 819 407 q 597 868 819 868 q 332 713 435 868 q 229 339 229 558 q 285 164 229 224 q 442 104 342 104 z "},"R":{"ha":882,"x_min":7,"x_max":840,"o":"m 626 0 l 549 257 q 481 391 518 358 q 372 424 444 424 l 332 424 l 283 111 l 403 83 l 389 0 l 7 0 l 21 83 l 143 111 l 263 861 l 150 889 l 161 965 l 419 972 l 569 972 q 762 918 683 972 q 840 753 840 864 q 774 562 840 642 q 597 447 707 482 q 679 292 639 413 l 740 111 l 840 83 l 826 0 l 626 0 m 544 861 l 401 861 l 349 528 l 451 528 q 627 583 560 528 q 694 736 694 638 q 544 861 694 861 z "},"S":{"ha":822,"x_min":56,"x_max":781,"o":"m 186 285 l 190 133 q 337 104 254 104 q 488 150 419 104 q 556 272 556 196 q 478 383 556 342 q 401 419 443 403 q 318 457 360 436 q 242 504 276 478 q 164 674 164 564 q 271 906 164 826 q 525 986 378 986 q 642 972 578 986 q 743 944 706 958 l 781 931 l 736 694 l 658 694 l 639 843 q 492 868 568 868 q 365 826 417 868 q 313 728 313 783 q 353 638 313 672 q 451 580 393 603 q 566 531 508 557 q 664 454 624 504 q 704 332 704 404 q 647 142 704 222 q 315 -14 536 -14 q 190 0 254 -14 q 90 28 125 14 l 56 42 l 94 285 l 186 285 z "},"T":{"ha":747,"x_min":49,"x_max":838,"o":"m 90 972 l 838 972 l 797 722 l 708 722 l 694 861 l 515 861 l 396 111 l 529 83 l 515 0 l 100 0 l 114 83 l 257 111 l 376 861 l 196 861 l 139 722 l 49 722 l 90 972 z "},"U":{"ha":1021,"x_min":104,"x_max":1083,"o":"m 953 861 l 881 410 q 747 94 849 203 q 440 -14 644 -14 q 206 59 276 -14 q 135 264 135 132 q 144 375 135 307 l 222 861 l 104 889 l 117 965 l 497 972 l 483 889 l 363 861 l 285 375 q 276 279 276 325 q 319 149 276 194 q 476 104 361 104 q 651 171 590 104 q 738 396 713 238 l 813 861 l 688 889 l 700 965 l 1083 972 l 1069 889 l 953 861 z "},"V":{"ha":933,"x_min":63,"x_max":1031,"o":"m 349 0 l 181 861 l 63 889 l 75 965 l 321 972 l 454 201 l 756 861 l 644 889 l 658 965 l 1031 972 l 1017 889 l 903 861 l 481 0 l 349 0 z "},"W":{"ha":1364,"x_min":63,"x_max":1461,"o":"m 332 0 l 179 861 l 63 889 l 75 965 l 321 972 l 321 971 l 322 972 l 426 257 l 735 965 l 822 972 l 933 247 l 1194 861 l 1075 889 l 1089 965 l 1461 972 l 1447 889 l 1340 863 l 942 0 l 854 0 l 733 674 l 675 532 l 422 0 l 332 0 z "},"X":{"ha":869,"x_min":-76,"x_max":981,"o":"m 844 83 l 831 0 l 460 0 l 474 83 l 563 101 l 432 382 l 218 108 l 306 83 l 292 0 l -76 0 l -62 83 l 67 110 l 363 488 l 178 863 l 61 889 l 75 965 l 446 972 l 432 889 l 344 867 l 465 607 l 672 869 l 599 889 l 613 965 l 981 972 l 967 889 l 818 858 l 532 503 l 724 111 l 844 83 z "},"Y":{"ha":846,"x_min":56,"x_max":936,"o":"m 292 111 l 331 364 l 186 861 l 56 889 l 68 965 l 297 972 l 436 464 l 669 863 l 565 889 l 579 965 l 936 972 l 922 889 l 807 861 l 464 321 l 431 111 l 546 83 l 532 0 l 153 0 l 167 83 l 292 111 z "},"Z":{"ha":860,"x_min":63,"x_max":832,"o":"m 181 972 l 832 972 l 825 881 l 243 111 l 615 111 l 665 253 l 757 253 l 717 0 l 63 0 l 69 97 l 647 860 l 281 860 l 225 736 l 147 736 l 181 972 z "},"[":{"ha":479,"x_min":31,"x_max":543,"o":"m 342 -222 l 328 -312 l 31 -319 l 251 1069 l 543 1063 l 529 972 l 363 957 l 178 -207 l 342 -222 z "},"\\":{"ha":703,"x_min":124,"x_max":544,"o":"m 247 972 l 544 0 l 421 0 l 124 972 l 247 972 z "},"]":{"ha":479,"x_min":-50,"x_max":463,"o":"m 151 972 l 167 1063 l 463 1069 l 242 -319 l -50 -312 l -37 -222 l 131 -207 l 315 957 l 151 972 z "},"^":{"ha":792,"x_min":46,"x_max":658,"o":"m 414 833 l 165 444 l 46 444 l 390 972 l 485 972 l 658 444 l 543 444 l 414 833 z "},"_":{"ha":694,"x_min":0,"x_max":694,"o":"m 0 -208 l 0 -111 l 694 -111 l 694 -208 l 0 -208 z "},"`":{"ha":346,"x_min":0,"x_max":346,"o":"m 303 838 l 0 1011 l 60 1115 l 346 911 l 303 838 z "},"a":{"ha":819,"x_min":63,"x_max":771,"o":"m 650 111 l 771 90 l 758 14 l 500 0 l 556 256 q 431 75 500 144 q 347 14 397 42 q 244 -14 296 -14 q 115 56 167 -14 q 63 229 63 125 q 185 610 63 471 q 476 750 308 750 q 556 740 517 750 q 614 719 594 729 l 632 708 l 674 736 l 750 736 l 650 111 m 574 479 l 601 625 q 476 646 549 646 q 283 545 365 646 q 201 250 201 444 q 225 142 201 179 q 291 104 249 104 q 380 143 333 104 q 460 236 426 182 q 561 440 532 354 l 574 479 z "},"b":{"ha":821,"x_min":76,"x_max":757,"o":"m 376 1069 l 322 736 l 267 481 q 315 572 281 518 q 382 660 349 625 q 466 723 415 696 q 571 750 517 750 q 708 678 660 750 q 757 500 757 606 q 629 128 757 271 q 328 -14 501 -14 q 110 17 210 -14 l 76 28 l 225 958 l 110 986 l 122 1063 l 376 1069 m 254 257 l 225 111 q 342 90 279 90 q 531 193 444 90 q 618 479 618 296 q 594 588 618 544 q 523 632 571 632 q 430 593 475 632 q 354 500 385 554 q 265 296 292 386 l 254 257 z "},"c":{"ha":646,"x_min":49,"x_max":653,"o":"m 532 507 l 528 625 q 438 639 494 639 q 256 524 324 639 q 188 253 188 410 q 319 97 188 97 q 415 113 363 97 q 497 144 467 128 l 528 160 l 569 90 q 527 62 554 79 q 426 15 500 44 q 292 -14 353 -14 q 116 54 183 -14 q 49 243 49 122 q 164 610 49 469 q 458 750 279 750 q 557 736 508 750 q 629 708 606 722 l 653 694 l 622 507 l 532 507 z "},"d":{"ha":825,"x_min":76,"x_max":811,"o":"m 656 111 l 775 90 l 763 14 l 508 0 l 569 256 q 447 75 526 158 q 362 13 413 40 q 260 -14 311 -14 q 128 55 179 -14 q 76 229 76 124 q 198 610 76 469 q 488 750 319 750 q 621 719 563 750 l 660 958 l 542 986 l 554 1063 l 811 1069 l 656 111 m 583 479 l 606 625 q 488 646 557 646 q 292 535 368 646 q 215 257 215 425 q 238 144 215 183 q 305 104 261 104 q 394 143 349 104 q 472 236 440 182 q 569 440 539 347 l 583 479 z "},"e":{"ha":700,"x_min":42,"x_max":672,"o":"m 672 569 q 537 376 672 450 q 185 301 401 301 q 181 242 181 271 q 333 97 181 97 q 435 113 378 97 q 526 144 492 128 l 561 160 l 603 89 q 557 60 586 78 q 446 15 528 43 q 292 -14 364 -14 q 110 53 178 -14 q 42 229 42 119 q 159 599 42 449 q 443 750 276 750 q 610 701 549 750 q 672 569 672 651 m 197 399 q 443 443 346 399 q 540 556 540 488 q 436 646 540 646 q 292 576 360 646 q 197 399 224 507 z "},"f":{"ha":492,"x_min":-158,"x_max":714,"o":"m 588 972 l 519 972 q 422 938 451 972 q 381 840 392 904 l 363 729 l 558 729 l 540 625 l 346 625 l 242 -28 q -43 -333 193 -333 q -140 -319 -92 -333 l -158 -315 l -135 -226 l -36 -226 q 106 -56 78 -226 l 213 625 l 82 625 l 96 715 l 229 729 l 243 813 q 519 1083 286 1083 q 686 1063 606 1083 l 714 1056 l 678 861 l 588 861 l 588 972 z "},"g":{"ha":776,"x_min":28,"x_max":735,"o":"m 735 736 l 611 -33 q 503 -261 588 -182 q 283 -340 418 -340 q 165 -326 229 -340 q 64 -297 101 -311 l 28 -283 l 61 -183 q 269 -226 182 -226 q 479 -42 440 -226 l 542 256 q 415 75 485 143 q 331 14 382 42 q 228 -14 279 -14 q 99 55 150 -14 q 49 229 49 124 q 171 610 49 471 q 460 750 293 750 q 541 740 501 750 q 599 719 581 729 l 617 708 l 658 736 l 735 736 m 558 479 l 585 625 q 460 646 535 646 q 269 545 350 646 q 188 253 188 444 q 210 142 188 179 q 276 104 233 104 q 366 143 319 104 q 446 236 413 182 q 544 440 514 350 l 558 479 z "},"h":{"ha":868,"x_min":76,"x_max":799,"o":"m 379 1069 l 272 467 q 322 560 283 501 q 395 656 360 618 q 485 722 431 693 q 600 750 540 750 q 751 582 751 750 q 744 500 751 549 l 682 111 l 799 90 l 786 14 l 532 0 l 611 479 q 617 540 617 521 q 544 632 617 632 q 446 592 494 632 q 364 497 397 553 q 267 289 297 386 l 254 250 l 208 0 l 76 0 l 229 958 l 113 986 l 125 1063 l 379 1069 z "},"i":{"ha":449,"x_min":76,"x_max":386,"o":"m 94 0 l 194 625 l 76 653 l 90 729 l 344 736 l 244 111 l 363 90 l 350 14 l 94 0 m 386 983 q 386 961 386 983 q 360 904 386 940 q 294 868 335 868 q 233 887 254 868 q 213 948 213 906 q 238 1026 213 990 q 304 1063 264 1063 q 365 1044 344 1063 q 386 983 386 1025 z "},"j":{"ha":414,"x_min":-194,"x_max":372,"o":"m 72 -49 l 181 625 l 61 653 l 75 729 l 332 736 l 201 -62 q 108 -262 181 -190 q -83 -333 36 -333 q -179 -317 -129 -333 l -194 -312 l -167 -222 q -72 -229 -132 -229 q 22 -187 -11 -229 q 72 -49 56 -146 m 372 983 q 372 961 372 983 q 347 904 372 940 q 281 868 321 868 q 219 887 240 868 q 199 948 199 906 q 224 1026 199 990 q 290 1063 250 1063 q 351 1044 331 1063 q 372 983 372 1025 z "},"k":{"ha":733,"x_min":76,"x_max":782,"o":"m 379 1069 l 279 451 l 382 453 l 532 638 l 472 653 l 483 729 l 782 736 l 768 653 l 664 635 l 472 410 q 546 282 500 386 l 619 111 l 740 76 l 726 0 l 522 0 l 428 231 q 378 329 397 304 q 318 354 358 354 l 264 354 l 208 0 l 76 0 l 231 958 l 113 986 l 125 1063 l 379 1069 z "},"l":{"ha":444,"x_min":76,"x_max":382,"o":"m 76 0 l 229 958 l 113 986 l 125 1063 l 382 1069 l 229 111 l 349 90 l 336 14 l 76 0 z "},"m":{"ha":1311,"x_min":76,"x_max":1247,"o":"m 706 240 l 668 0 l 536 0 l 614 479 q 619 540 619 521 q 547 632 619 632 q 451 592 499 632 q 372 497 404 553 q 278 289 303 378 l 265 250 l 225 0 l 93 0 l 193 625 l 76 653 l 89 729 l 342 736 l 282 467 q 400 656 328 581 q 489 721 435 692 q 603 750 543 750 q 751 581 751 750 q 744 494 751 546 q 842 653 778 575 q 933 724 879 697 q 1047 750 986 750 q 1200 579 1200 750 q 1193 500 1200 546 l 1129 111 l 1247 90 l 1235 14 l 979 0 l 1058 479 q 1064 539 1064 521 q 992 632 1064 632 q 894 592 942 632 q 814 494 846 551 q 718 281 749 381 l 706 240 z "},"n":{"ha":889,"x_min":76,"x_max":819,"o":"m 551 0 l 629 479 q 635 540 635 521 q 563 632 635 632 q 463 592 513 632 q 381 497 414 553 q 278 289 310 382 l 265 250 l 225 0 l 93 0 l 193 625 l 76 653 l 89 729 l 343 736 l 281 467 q 338 567 301 513 q 410 656 375 621 q 502 721 446 692 q 618 750 558 750 q 772 579 772 750 q 765 500 772 546 l 701 111 l 819 90 l 807 14 l 551 0 z "},"o":{"ha":792,"x_min":56,"x_max":729,"o":"m 306 -14 q 124 58 192 -14 q 56 250 56 131 q 172 611 56 472 q 472 750 289 750 q 660 678 592 750 q 729 490 729 606 q 610 124 729 261 q 306 -14 492 -14 m 333 97 q 520 203 450 97 q 590 474 590 310 q 444 639 590 639 q 262 527 329 639 q 194 257 194 415 q 231 137 194 176 q 333 97 268 97 z "},"p":{"ha":851,"x_min":-69,"x_max":785,"o":"m 344 736 l 289 481 q 369 619 310 535 q 470 712 408 674 q 610 750 532 750 q 737 678 689 750 q 785 500 785 606 q 661 128 785 271 q 365 -14 538 -14 q 229 19 290 -14 l 193 -208 l 299 -243 l 285 -319 l -69 -319 l -57 -243 l 61 -208 l 194 625 l 81 653 l 93 729 l 344 736 m 272 257 l 244 111 q 372 90 303 90 q 559 193 472 90 q 646 479 646 296 q 623 588 646 543 q 552 632 600 632 q 458 593 504 632 q 379 500 411 554 q 283 296 310 379 l 272 257 z "},"q":{"ha":788,"x_min":65,"x_max":753,"o":"m 681 736 l 753 736 l 601 -208 l 707 -243 l 694 -319 l 335 -319 l 347 -243 l 469 -208 l 501 0 l 563 257 q 353 15 476 85 q 249 -14 300 -14 q 118 56 171 -14 q 65 229 65 125 q 189 611 65 472 q 479 750 313 750 q 562 740 522 750 q 619 719 601 729 l 638 708 l 681 736 m 579 479 l 607 625 q 479 646 549 646 q 286 544 368 646 q 204 250 204 443 q 228 142 204 179 q 294 104 251 104 q 384 143 338 104 q 464 236 431 182 q 565 440 531 343 l 579 479 z "},"r":{"ha":603,"x_min":76,"x_max":658,"o":"m 658 736 l 617 528 l 526 528 l 526 625 q 441 588 483 625 q 369 497 399 550 q 281 301 308 386 l 269 264 l 225 0 l 93 0 l 194 625 l 76 653 l 89 729 l 344 736 l 290 494 q 400 667 335 600 q 481 724 431 699 q 589 750 532 750 q 658 736 619 750 z "},"s":{"ha":646,"x_min":28,"x_max":590,"o":"m 151 222 l 153 104 q 260 88 194 88 q 368 117 326 88 q 410 192 410 146 q 378 265 410 238 q 302 314 347 293 q 212 360 257 335 q 135 427 167 385 q 104 528 104 469 q 183 694 104 638 q 385 750 263 750 q 561 725 478 750 l 590 715 l 557 528 l 467 528 l 458 636 q 368 649 428 649 q 272 624 308 649 q 236 555 236 599 q 268 481 236 511 q 346 429 300 451 q 438 382 392 407 q 517 317 485 357 q 549 222 549 276 q 463 50 549 114 q 236 -14 378 -14 q 56 11 132 -14 l 28 21 l 61 222 l 151 222 z "},"t":{"ha":513,"x_min":63,"x_max":540,"o":"m 431 125 l 453 50 q 271 -14 349 -14 q 131 151 131 -14 q 139 240 131 192 l 200 625 l 63 625 l 78 715 l 217 729 l 244 904 l 382 932 l 349 729 l 540 729 l 524 625 l 332 625 l 272 254 q 264 165 264 200 q 276 113 264 129 q 311 97 289 97 q 411 118 353 97 l 431 125 z "},"u":{"ha":878,"x_min":63,"x_max":808,"o":"m 540 0 l 597 269 q 542 170 579 224 q 470 80 506 117 q 378 15 435 43 q 264 -14 322 -14 q 110 156 110 -14 q 117 236 110 188 l 181 625 l 63 653 l 75 729 l 329 736 l 253 257 q 247 196 247 213 q 319 104 247 104 q 421 144 371 104 q 504 239 471 183 q 603 447 575 360 l 615 486 l 657 736 l 789 736 l 689 111 l 808 90 l 796 14 l 540 0 z "},"v":{"ha":803,"x_min":35,"x_max":824,"o":"m 810 653 l 735 631 l 425 0 l 275 0 l 144 626 l 35 653 l 47 729 l 271 736 l 363 236 l 376 132 l 606 628 l 504 653 l 517 729 l 824 736 l 810 653 z "},"w":{"ha":1097,"x_min":28,"x_max":1146,"o":"m 1132 653 l 1064 636 l 785 0 l 625 0 l 561 472 l 543 403 l 388 0 l 231 0 l 131 632 l 28 653 l 40 729 l 264 736 l 333 132 l 560 729 l 658 736 l 729 132 l 933 626 l 813 653 l 825 729 l 1146 736 l 1132 653 z "},"x":{"ha":757,"x_min":-35,"x_max":792,"o":"m 363 275 l 161 0 l -35 0 l -22 76 l 104 115 l 297 364 l 167 625 l 49 653 l 61 729 l 279 736 l 397 472 l 594 729 l 792 736 l 778 653 l 658 624 l 464 385 l 597 111 l 718 90 l 706 14 l 492 0 l 363 275 z "},"y":{"ha":792,"x_min":-7,"x_max":813,"o":"m 799 653 l 721 631 l 474 46 q 317 -256 379 -178 q 150 -333 254 -333 q 14 -317 79 -333 l -7 -311 l 21 -222 q 136 -229 76 -229 q 234 -192 196 -229 q 315 -54 272 -154 l 135 626 l 28 653 l 40 729 l 264 736 l 381 226 l 393 132 l 599 628 l 494 653 l 507 729 l 813 736 l 799 653 z "},"z":{"ha":660,"x_min":14,"x_max":639,"o":"m 121 736 l 639 736 l 632 646 l 189 108 l 450 108 l 494 222 l 578 222 l 549 0 l 14 0 l 21 97 l 465 632 l 224 632 l 179 528 l 89 528 l 121 736 z "},"{":{"ha":514,"x_min":46,"x_max":578,"o":"m 335 603 q 182 410 311 456 q 276 264 276 372 q 272 217 276 242 l 225 -76 q 221 -124 221 -103 q 255 -200 221 -178 q 371 -222 289 -222 l 356 -312 l 304 -312 q 143 -275 193 -312 q 93 -150 93 -237 q 100 -76 93 -122 l 147 217 q 151 277 151 242 q 128 337 151 313 q 46 361 104 361 l 63 458 q 166 496 133 458 q 210 603 199 533 l 249 840 q 333 1023 269 969 q 528 1076 397 1076 l 578 1076 l 565 986 q 428 956 467 986 q 375 840 390 925 l 335 603 z "},"|":{"ha":368,"x_min":21,"x_max":347,"o":"m 129 -319 l 21 -319 l 239 1049 l 347 1049 l 129 -319 z "},"}":{"ha":521,"x_min":-53,"x_max":492,"o":"m 492 458 l 476 361 q 369 324 404 361 q 325 217 335 286 l 279 -76 q 194 -258 258 -204 q 4 -312 129 -312 l -53 -312 l -37 -222 q 100 -191 58 -222 q 154 -76 142 -160 l 200 217 q 356 410 222 363 q 256 558 256 450 q 260 603 256 581 l 300 840 q 304 886 304 865 q 271 964 304 942 q 154 986 238 986 l 169 1076 l 228 1076 q 383 1039 333 1076 q 432 914 432 1001 q 425 840 432 886 l 385 603 q 381 557 381 578 q 492 458 381 458 z "},"~":{"ha":869,"x_min":83,"x_max":785,"o":"m 785 415 q 565 271 676 271 q 413 319 500 271 q 283 368 325 368 q 206 349 240 368 q 156 310 172 329 l 139 290 l 83 339 q 117 383 90 354 q 169 431 144 413 q 306 479 236 479 q 456 431 376 479 q 579 382 536 382 q 657 402 622 382 q 710 443 692 422 l 728 464 l 785 415 z "},"¡":{"ha":424,"x_min":28,"x_max":347,"o":"m 28 -292 l 161 403 l 276 410 l 185 -292 l 28 -292 m 164 646 q 192 729 164 694 q 271 764 221 764 q 347 688 347 764 q 319 605 347 640 q 239 569 290 569 q 164 646 164 569 z "},"¢":{"ha":674,"x_min":63,"x_max":667,"o":"m 542 606 l 542 724 q 451 738 508 738 q 269 649 336 738 q 201 426 201 561 q 244 310 201 356 q 354 265 288 265 q 535 315 447 265 q 556 328 554 326 l 597 258 q 367 158 486 179 l 342 0 l 240 0 l 265 158 q 120 242 178 174 q 63 403 63 311 q 148 698 63 585 q 378 839 233 811 l 399 964 l 501 971 l 481 849 q 574 833 528 847 q 644 806 621 819 l 667 793 l 632 606 l 542 606 z "},"£":{"ha":858,"x_min":21,"x_max":851,"o":"m 383 576 l 382 568 l 608 568 l 592 465 l 374 465 q 353 291 361 344 q 322 190 344 238 q 281 128 299 143 l 264 111 l 607 111 l 658 253 l 750 253 l 708 0 l 21 0 l 33 83 l 113 104 q 181 155 160 117 q 211 251 201 193 q 236 465 221 308 l 94 465 l 108 553 l 246 568 q 263 708 254 653 q 363 913 283 839 q 579 986 442 986 q 719 976 651 986 q 819 956 788 965 l 851 944 l 814 707 l 736 707 l 718 867 q 568 875 643 875 q 403 736 426 875 q 383 576 389 650 z "},"¤":{"ha":803,"x_min":35,"x_max":767,"o":"m 35 153 l 154 260 q 140 342 140 293 q 211 558 140 465 l 117 675 l 196 747 l 290 632 q 453 681 368 681 q 592 643 539 681 l 713 747 l 767 675 l 651 572 q 668 486 668 535 q 594 263 668 358 l 685 153 l 606 81 l 515 189 q 356 146 444 146 q 211 186 268 146 l 89 81 l 35 153 m 436 585 q 310 524 358 585 q 261 360 261 463 q 294 272 261 303 q 390 242 326 242 q 501 302 454 242 q 547 460 547 363 q 436 585 547 585 z "},"¥":{"ha":840,"x_min":56,"x_max":936,"o":"m 129 500 l 292 500 l 186 861 l 56 889 l 68 965 l 297 972 l 436 464 l 669 863 l 565 889 l 579 965 l 936 972 l 922 889 l 807 861 l 576 500 l 742 500 l 726 403 l 114 403 l 129 500 m 153 0 l 167 83 l 292 111 l 308 215 l 85 215 l 100 313 l 713 313 l 697 215 l 447 215 l 431 111 l 546 83 l 532 0 l 153 0 z "},"¦":{"ha":378,"x_min":21,"x_max":357,"o":"m 268 507 l 160 507 l 249 1063 l 357 1063 l 268 507 m 129 -368 l 21 -368 l 111 201 l 219 201 l 129 -368 z "},"§":{"ha":764,"x_min":49,"x_max":729,"o":"m 676 422 q 536 178 676 268 q 558 88 558 136 q 467 -124 558 -39 q 247 -208 375 -208 q 148 -198 197 -208 q 74 -178 99 -187 l 49 -167 l 90 56 l 178 56 l 183 -90 q 272 -97 218 -97 q 375 -57 326 -97 q 424 47 424 -17 q 399 117 424 83 q 340 176 375 151 q 262 233 304 201 q 184 294 219 264 q 124 367 149 324 q 100 460 100 410 q 146 609 100 544 q 240 697 192 674 q 219 789 219 746 q 313 1001 219 918 q 535 1083 407 1083 q 632 1073 583 1083 q 706 1053 681 1063 l 729 1042 l 689 819 l 607 819 l 597 965 q 519 972 554 972 q 403 931 451 972 q 354 828 354 890 q 468 676 354 753 q 563 610 515 644 q 643 528 610 576 q 676 422 676 479 m 481 251 q 543 379 543 306 q 503 465 543 426 q 396 549 464 504 q 297 624 328 593 q 233 494 233 581 q 274 410 233 450 q 382 326 314 371 q 481 251 450 282 z "},"¨":{"ha":715,"x_min":142,"x_max":574,"o":"m 483 889 q 421 958 421 889 q 446 1025 421 994 q 510 1056 471 1056 q 574 992 574 1056 q 547 919 574 950 q 483 889 521 889 m 204 889 q 142 958 142 889 q 167 1025 142 994 q 231 1056 192 1056 q 294 992 294 1056 q 268 919 294 950 q 204 889 242 889 z "},"©":{"ha":1139,"x_min":63,"x_max":1076,"o":"m 199 124 q 131 192 199 124 q 63 479 63 261 q 206 842 63 697 q 570 986 350 986 q 933 848 790 986 q 1076 492 1076 710 q 926 131 1076 275 q 556 -14 776 -14 q 199 124 336 -14 m 280 775 q 227 719 280 775 q 174 486 174 664 q 280 197 174 308 q 563 86 386 86 q 853 198 740 86 q 965 486 965 310 q 853 774 965 663 q 563 886 740 886 q 280 775 386 886 m 569 215 q 386 282 453 215 q 319 478 319 349 q 389 687 319 608 q 579 765 458 765 q 663 755 618 765 q 731 733 707 744 l 756 722 l 753 575 l 675 575 l 656 669 q 569 681 618 681 q 438 483 438 681 q 576 306 438 306 q 647 321 610 306 q 704 351 683 336 l 725 367 l 763 303 q 736 278 753 293 q 669 240 719 264 q 569 215 619 215 z "},"ª":{"ha":660,"x_min":49,"x_max":603,"o":"m 511 531 l 603 511 l 594 451 l 390 446 l 431 631 q 376 542 414 594 q 210 436 300 436 q 112 490 149 436 q 75 619 75 544 q 164 887 75 788 q 374 986 253 986 q 472 961 428 986 l 486 954 l 515 976 l 583 976 l 511 531 m 444 792 l 464 889 q 374 903 424 903 q 244 835 303 903 q 186 629 186 767 q 203 553 186 579 q 244 528 221 528 q 344 594 294 528 q 419 725 394 660 l 444 792 m 49 229 l 64 326 l 540 326 l 525 229 l 49 229 z "},"«":{"ha":751,"x_min":83,"x_max":689,"o":"m 506 374 l 622 167 l 544 111 l 376 338 l 389 421 l 618 622 l 689 560 l 506 374 m 213 374 l 322 167 l 244 111 l 83 338 l 96 421 l 318 622 l 389 560 l 213 374 z "},"¬":{"ha":854,"x_min":101,"x_max":800,"o":"m 101 382 l 119 493 l 800 493 l 740 118 l 625 118 l 667 382 l 101 382 z "},"®":{"ha":1000,"x_min":76,"x_max":924,"o":"m 190 329 q 133 386 190 329 q 76 625 76 443 q 197 928 76 807 q 501 1049 318 1049 q 803 934 683 1049 q 924 639 924 819 q 797 337 924 458 q 487 215 669 215 q 190 329 304 215 m 265 869 q 223 824 265 869 q 181 632 181 779 q 265 395 181 485 q 494 306 349 306 q 729 396 639 306 q 819 632 819 486 q 729 868 819 778 q 494 958 639 958 q 265 869 349 958 m 299 410 l 299 465 l 354 479 l 354 801 l 299 813 l 299 864 l 507 868 q 624 834 578 868 q 669 740 669 800 q 583 618 669 650 q 622 567 608 593 l 667 479 l 722 465 l 722 410 l 603 410 l 547 528 q 512 588 525 576 q 471 600 499 600 l 444 600 l 444 479 l 500 465 l 500 410 l 299 410 m 500 799 l 444 799 l 444 664 l 493 664 q 553 682 531 664 q 576 732 576 700 q 556 781 576 764 q 500 799 536 799 z "},"¯":{"ha":382,"x_min":0,"x_max":382,"o":"m 0 917 l 15 1021 l 382 1021 l 367 917 l 0 917 z "},"°":{"ha":569,"x_min":78,"x_max":490,"o":"m 273 604 q 229 604 273 604 q 131 654 185 604 q 78 796 78 704 q 142 954 78 888 q 295 1021 206 1021 q 438 974 385 1021 q 490 835 490 926 q 426 674 490 744 q 273 604 361 604 m 390 822 q 390 849 390 822 q 364 903 390 876 q 290 931 338 931 q 210 894 243 931 q 178 804 178 858 q 204 722 178 750 q 278 694 231 694 q 358 731 325 694 q 390 822 390 768 z "},"±":{"ha":856,"x_min":21,"x_max":793,"o":"m 89 419 l 106 528 l 390 528 l 426 750 l 546 750 l 510 528 l 793 528 l 775 419 l 493 419 l 457 194 l 338 194 l 374 419 l 89 419 m 21 0 l 38 108 l 725 108 l 708 0 l 21 0 z "},"²":{"ha":542,"x_min":6,"x_max":490,"o":"m 6 389 l 21 485 q 115 554 60 514 q 196 613 171 594 q 256 660 221 632 q 307 705 292 689 q 339 742 322 721 q 365 825 365 779 q 275 889 365 889 q 189 875 231 889 l 168 792 l 86 792 l 104 943 q 293 979 208 979 q 490 846 490 979 q 386 643 490 738 q 272 551 340 600 q 185 488 203 501 l 451 488 l 435 389 l 6 389 z "},"³":{"ha":525,"x_min":-6,"x_max":471,"o":"m 471 851 q 432 749 471 790 q 329 693 393 708 q 407 660 375 689 q 439 588 439 632 q 363 435 439 488 q 175 382 288 382 q 87 395 132 382 q 18 422 42 408 l -6 435 l 33 517 q 179 475 108 475 q 285 501 250 475 q 321 572 321 526 q 210 643 321 643 l 147 643 l 160 728 l 224 728 q 356 826 356 728 q 268 889 356 889 q 174 876 211 889 l 157 810 l 78 810 l 96 953 q 290 979 208 979 q 471 851 471 979 z "},"´":{"ha":336,"x_min":10,"x_max":356,"o":"m 356 1011 l 53 838 l 10 911 l 296 1115 l 356 1011 z "},"µ":{"ha":915,"x_min":76,"x_max":860,"o":"m 204 -319 l 76 -319 l 238 625 l 117 653 l 131 729 l 388 736 q 299 197 299 222 q 372 104 299 104 q 472 144 422 104 q 554 239 521 183 q 653 447 625 360 l 665 486 l 711 736 l 843 736 l 740 111 l 860 83 l 846 7 l 594 0 l 651 269 q 597 173 635 229 q 524 80 560 117 q 431 15 488 43 q 331 -14 375 -14 q 260 0 288 -14 l 204 -319 z "},"¶":{"ha":875,"x_min":103,"x_max":872,"o":"m 103 -236 l 115 -153 l 244 -125 l 332 425 q 192 499 246 438 q 139 653 139 561 q 232 881 139 789 q 464 972 325 972 l 638 972 l 872 965 l 860 889 l 740 861 l 564 -236 l 444 -236 l 621 861 l 513 861 l 336 -236 l 103 -236 z "},"·":{"ha":382,"x_min":97,"x_max":285,"o":"m 97 400 q 128 486 97 449 q 208 524 158 524 q 285 447 285 524 q 256 361 285 399 q 176 324 228 324 q 97 400 97 324 z "},"¸":{"ha":606,"x_min":150,"x_max":453,"o":"m 192 -215 q 275 -237 235 -237 q 340 -219 315 -237 q 364 -169 364 -200 q 263 -110 364 -110 l 281 0 l 363 0 l 353 -60 q 453 -160 453 -78 q 406 -262 453 -221 q 306 -304 358 -304 q 165 -281 208 -304 l 150 -272 l 192 -215 z "},"¹":{"ha":486,"x_min":49,"x_max":413,"o":"m 413 479 l 397 389 l 49 389 l 63 479 l 182 479 l 240 853 l 88 764 l 57 840 l 276 972 l 371 972 l 293 479 l 413 479 z "},"º":{"ha":696,"x_min":49,"x_max":626,"o":"m 418 986 q 572 935 518 986 q 626 788 626 883 q 542 536 626 635 q 317 438 458 438 q 157 488 213 438 q 101 638 101 539 q 190 889 101 792 q 418 986 278 986 m 397 894 q 265 831 314 894 q 215 657 215 768 q 249 560 215 593 q 342 528 283 528 q 466 592 419 528 q 513 760 513 657 q 483 859 513 824 q 397 894 453 894 m 49 229 l 64 326 l 540 326 l 525 229 l 49 229 z "},"»":{"ha":751,"x_min":63,"x_max":668,"o":"m 246 360 l 129 567 l 207 622 l 375 396 l 363 313 l 133 111 l 63 172 l 246 360 m 539 360 l 429 567 l 507 622 l 668 396 l 656 313 l 433 111 l 363 172 l 539 360 z "},"¼":{"ha":1347,"x_min":111,"x_max":1213,"o":"m 704 208 l 1042 597 l 1172 583 l 1114 217 l 1213 217 l 1197 126 l 1099 126 l 1079 0 l 963 0 l 982 126 l 700 126 l 704 208 m 1038 465 l 824 217 l 999 217 l 1038 465 m 232 0 l 938 972 l 1065 972 l 360 0 l 232 0 m 494 479 l 479 389 l 111 389 l 125 479 l 251 479 l 310 847 l 153 757 l 119 840 l 346 972 l 447 972 l 369 479 l 494 479 z "},"½":{"ha":1281,"x_min":69,"x_max":1175,"o":"m 690 0 l 706 96 q 800 165 744 125 q 881 224 856 206 q 941 272 906 243 q 992 316 976 300 q 1022 353 1007 332 q 1050 436 1050 390 q 960 500 1050 500 q 874 486 915 500 l 853 403 l 771 403 l 789 554 q 978 590 893 590 q 1175 457 1175 590 q 1071 256 1175 351 q 946 155 1010 201 q 869 99 882 108 l 1136 99 l 1119 0 l 690 0 m 194 0 l 900 972 l 1028 972 l 322 0 l 194 0 m 453 479 l 438 389 l 69 389 l 83 479 l 210 479 l 268 847 l 111 757 l 78 840 l 304 972 l 406 972 l 328 479 l 453 479 z "},"¾":{"ha":1354,"x_min":69,"x_max":1229,"o":"m 546 851 q 507 749 546 790 q 404 693 468 708 q 482 660 450 689 q 514 588 514 632 q 438 435 514 488 q 250 382 363 382 q 162 395 207 382 q 93 422 117 408 l 69 435 l 108 517 q 254 475 183 475 q 360 501 325 475 q 396 572 396 526 q 285 643 396 643 l 222 643 l 235 728 l 299 728 q 431 826 431 728 q 343 889 431 889 q 249 876 286 889 l 232 810 l 153 810 l 171 953 q 365 979 283 979 q 546 851 546 979 m 249 0 l 954 972 l 1082 972 l 376 0 l 249 0 m 721 208 l 1058 597 l 1189 583 l 1131 217 l 1229 217 l 1214 126 l 1115 126 l 1096 0 l 979 0 l 999 126 l 717 126 l 721 208 m 1054 465 l 840 217 l 1015 217 l 1054 465 z "},"¿":{"ha":629,"x_min":14,"x_max":525,"o":"m 342 646 q 370 729 342 694 q 449 764 399 764 q 525 688 525 764 q 497 605 525 640 q 417 569 468 569 q 342 646 342 569 m 344 422 l 465 431 l 465 342 q 358 164 465 247 q 267 92 313 128 q 160 -81 160 8 q 288 -169 160 -169 q 413 -157 350 -169 l 433 -153 l 440 -253 q 250 -285 340 -285 q 14 -104 14 -285 q 48 20 14 -39 q 131 122 82 79 q 228 203 179 164 q 344 360 344 294 l 344 422 z "},"À":{"ha":981,"x_min":-56,"x_max":918,"o":"m 668 111 l 640 264 l 286 264 l 210 110 l 326 83 l 313 0 l -56 0 l -43 83 l 75 111 l 519 965 l 657 972 l 824 107 l 918 83 l 904 0 l 536 0 l 549 83 l 668 111 m 550 793 l 340 375 l 621 375 l 550 793 m 750 1033 l 433 1169 l 485 1279 l 788 1110 l 750 1033 z "},"Á":{"ha":981,"x_min":-56,"x_max":918,"o":"m 668 111 l 640 264 l 286 264 l 210 110 l 326 83 l 313 0 l -56 0 l -43 83 l 75 111 l 519 965 l 657 972 l 824 107 l 918 83 l 904 0 l 536 0 l 549 83 l 668 111 m 550 793 l 340 375 l 621 375 l 550 793 m 828 1168 l 511 1036 l 474 1113 l 776 1278 l 828 1168 z "},"Â":{"ha":981,"x_min":-56,"x_max":918,"o":"m 668 111 l 640 264 l 286 264 l 210 110 l 326 83 l 313 0 l -56 0 l -43 83 l 75 111 l 519 965 l 657 972 l 824 107 l 918 83 l 904 0 l 536 0 l 549 83 l 668 111 m 550 793 l 340 375 l 621 375 l 550 793 m 796 1042 l 636 1157 l 429 1042 l 385 1104 l 608 1257 l 690 1264 l 861 1104 l 796 1042 z "},"Ã":{"ha":981,"x_min":-56,"x_max":918,"o":"m 668 111 l 640 264 l 286 264 l 210 110 l 326 83 l 313 0 l -56 0 l -43 83 l 75 111 l 519 965 l 657 972 l 824 107 l 918 83 l 904 0 l 536 0 l 549 83 l 668 111 m 550 793 l 340 375 l 621 375 l 550 793 m 415 1064 l 375 1106 q 403 1146 382 1118 q 444 1192 425 1174 q 544 1236 494 1236 q 665 1204 594 1236 q 767 1172 735 1172 q 823 1187 799 1172 q 858 1217 847 1201 l 871 1231 l 913 1189 q 861 1119 892 1149 q 750 1064 800 1064 q 630 1094 700 1064 q 528 1125 560 1125 q 431 1079 474 1125 l 415 1064 z "},"Ä":{"ha":981,"x_min":-56,"x_max":918,"o":"m 668 111 l 640 264 l 286 264 l 210 110 l 326 83 l 313 0 l -56 0 l -43 83 l 75 111 l 519 965 l 657 972 l 824 107 l 918 83 l 904 0 l 536 0 l 549 83 l 668 111 m 550 793 l 340 375 l 621 375 l 550 793 m 801 1063 q 739 1132 739 1063 q 764 1199 739 1168 q 828 1229 789 1229 q 892 1165 892 1229 q 865 1093 892 1124 q 801 1063 839 1063 m 522 1063 q 460 1132 460 1063 q 485 1199 460 1168 q 549 1229 510 1229 q 613 1165 613 1229 q 586 1093 613 1124 q 522 1063 560 1063 z "},"Å":{"ha":981,"x_min":-56,"x_max":918,"o":"m 668 111 l 640 264 l 286 264 l 210 110 l 326 83 l 313 0 l -56 0 l -43 83 l 75 111 l 519 965 l 657 972 l 824 107 l 918 83 l 904 0 l 536 0 l 549 83 l 668 111 m 550 793 l 340 375 l 621 375 l 550 793 m 461 1081 q 461 1048 461 1081 q 499 981 461 1015 q 603 946 538 946 q 724 1002 668 946 q 779 1124 779 1058 q 740 1224 779 1190 q 636 1258 700 1258 q 517 1202 572 1258 q 461 1081 461 1146 m 635 1189 q 697 1124 697 1189 q 672 1048 697 1081 q 607 1015 647 1015 q 543 1081 543 1015 q 569 1156 543 1124 q 635 1189 594 1189 z "},"Æ":{"ha":1332,"x_min":-51,"x_max":1303,"o":"m 81 111 l 576 861 l 467 889 l 479 965 l 744 972 l 1303 972 l 1265 736 l 1188 736 l 1174 861 l 867 861 l 818 563 l 1135 563 l 1118 451 l 801 451 l 747 111 l 1063 111 l 1114 253 l 1206 253 l 1163 0 l 472 0 l 486 83 l 608 111 l 636 285 l 335 285 l 219 107 l 324 83 l 310 0 l -51 0 l -37 83 l 81 111 m 728 861 l 704 861 l 406 396 l 653 396 l 728 861 z "},"Ç":{"ha":872,"x_min":83,"x_max":921,"o":"m 921 917 l 883 681 l 803 681 l 786 833 q 597 868 701 868 q 408 796 493 868 q 280 610 324 724 q 236 373 236 496 q 297 179 236 250 q 456 108 357 108 q 764 217 617 108 l 814 135 q 428 -14 629 -14 q 175 81 267 -14 q 83 339 83 176 q 238 804 83 622 q 628 986 392 986 q 769 969 696 986 q 881 933 842 951 l 921 917 m 310 -215 q 393 -237 353 -237 q 458 -219 433 -237 q 482 -169 482 -200 q 381 -110 482 -110 l 399 0 l 481 0 l 471 -60 q 571 -160 571 -78 q 524 -262 571 -221 q 424 -304 476 -304 q 283 -281 326 -304 l 268 -272 l 310 -215 z "},"È":{"ha":803,"x_min":7,"x_max":838,"o":"m 143 111 l 263 861 l 149 889 l 161 965 l 419 972 l 838 972 l 800 736 l 722 736 l 708 861 l 401 861 l 353 563 l 669 563 l 653 451 l 336 451 l 282 111 l 597 111 l 649 253 l 740 253 l 697 0 l 7 0 l 21 83 l 143 111 m 656 1033 l 339 1169 l 390 1279 l 693 1110 l 656 1033 z "},"É":{"ha":800,"x_min":4,"x_max":835,"o":"m 140 111 l 260 861 l 146 889 l 158 965 l 417 972 l 835 972 l 797 736 l 719 736 l 706 861 l 399 861 l 350 563 l 667 563 l 650 451 l 333 451 l 279 111 l 594 111 l 646 253 l 738 253 l 694 0 l 4 0 l 18 83 l 140 111 m 790 1168 l 474 1036 l 436 1113 l 739 1278 l 790 1168 z "},"Ê":{"ha":803,"x_min":7,"x_max":838,"o":"m 143 111 l 263 861 l 149 889 l 161 965 l 419 972 l 838 972 l 800 736 l 722 736 l 708 861 l 401 861 l 353 563 l 669 563 l 653 451 l 336 451 l 282 111 l 597 111 l 649 253 l 740 253 l 697 0 l 7 0 l 21 83 l 143 111 m 719 1042 l 560 1157 l 353 1042 l 308 1104 l 532 1257 l 614 1264 l 785 1104 l 719 1042 z "},"Ë":{"ha":803,"x_min":7,"x_max":838,"o":"m 143 111 l 263 861 l 149 889 l 161 965 l 419 972 l 838 972 l 800 736 l 722 736 l 708 861 l 401 861 l 353 563 l 669 563 l 653 451 l 336 451 l 282 111 l 597 111 l 649 253 l 740 253 l 697 0 l 7 0 l 21 83 l 143 111 m 675 1063 q 613 1132 613 1063 q 638 1199 613 1168 q 701 1229 663 1229 q 765 1165 765 1229 q 739 1093 765 1124 q 675 1063 713 1063 m 396 1063 q 333 1132 333 1063 q 358 1199 333 1168 q 422 1229 383 1229 q 486 1165 486 1229 q 460 1093 486 1124 q 396 1063 433 1063 z "},"Ì":{"ha":519,"x_min":14,"x_max":547,"o":"m 153 111 l 272 861 l 156 889 l 168 965 l 547 972 l 533 889 l 411 861 l 290 111 l 407 83 l 393 0 l 14 0 l 28 83 l 153 111 m 474 1033 l 157 1169 l 208 1279 l 511 1110 l 474 1033 z "},"Í":{"ha":593,"x_min":14,"x_max":621,"o":"m 153 111 l 272 861 l 156 889 l 168 965 l 547 972 l 533 889 l 411 861 l 290 111 l 407 83 l 393 0 l 14 0 l 28 83 l 153 111 m 621 1168 l 304 1036 l 267 1113 l 569 1278 l 621 1168 z "},"Î":{"ha":581,"x_min":14,"x_max":608,"o":"m 153 111 l 272 861 l 156 889 l 168 965 l 547 972 l 533 889 l 411 861 l 290 111 l 407 83 l 393 0 l 14 0 l 28 83 l 153 111 m 543 1042 l 390 1157 l 190 1042 l 146 1104 l 363 1257 l 444 1264 l 608 1104 l 543 1042 z "},"Ï":{"ha":572,"x_min":14,"x_max":600,"o":"m 153 111 l 272 861 l 156 889 l 168 965 l 547 972 l 533 889 l 411 861 l 290 111 l 407 83 l 393 0 l 14 0 l 28 83 l 153 111 m 510 1063 q 447 1132 447 1063 q 472 1199 447 1168 q 536 1229 497 1229 q 600 1165 600 1229 q 574 1093 600 1124 q 510 1063 547 1063 m 231 1063 q 168 1132 168 1063 q 193 1199 168 1168 q 257 1229 218 1229 q 321 1165 321 1229 q 294 1093 321 1124 q 231 1063 268 1063 z "},"Ð":{"ha":1032,"x_min":42,"x_max":979,"o":"m 114 451 l 132 563 l 247 563 l 296 861 l 183 889 l 196 965 l 453 972 l 632 972 q 883 885 788 972 q 979 646 979 797 q 826 169 979 338 q 410 0 674 0 l 42 0 l 56 83 l 175 110 l 231 451 l 114 451 m 583 451 l 371 451 l 317 111 l 431 111 q 726 253 619 111 q 833 628 833 394 q 776 800 833 739 q 611 861 719 861 l 436 861 l 388 563 l 599 563 l 583 451 z "},"Ñ":{"ha":1092,"x_min":7,"x_max":1140,"o":"m 454 972 l 779 196 l 885 861 l 774 889 l 786 965 l 1140 972 l 1126 889 l 1008 861 l 872 0 l 715 0 l 376 782 l 269 111 l 383 83 l 368 0 l 7 0 l 22 83 l 146 111 l 265 861 l 150 889 l 163 965 l 454 972 m 411 1064 l 371 1106 q 399 1146 378 1118 q 440 1192 421 1174 q 540 1236 490 1236 q 660 1204 590 1236 q 763 1172 731 1172 q 819 1187 794 1172 q 856 1217 843 1201 l 867 1231 l 908 1189 q 857 1119 889 1149 q 746 1064 796 1064 q 626 1094 696 1064 q 525 1125 556 1125 q 425 1079 469 1125 l 411 1064 z "},"Ò":{"ha":1028,"x_min":83,"x_max":979,"o":"m 418 -14 q 173 77 263 -14 q 83 325 83 168 q 238 801 83 617 q 628 986 393 986 q 886 892 793 986 q 979 646 979 799 q 820 167 979 347 q 418 -14 661 -14 m 826 628 q 767 809 826 750 q 604 868 708 868 q 339 713 442 868 q 236 339 236 558 q 292 164 236 224 q 449 104 349 104 q 720 253 614 104 q 826 628 826 403 m 736 1033 l 419 1169 l 471 1279 l 774 1110 l 736 1033 z "},"Ó":{"ha":1028,"x_min":83,"x_max":979,"o":"m 418 -14 q 173 77 263 -14 q 83 325 83 168 q 238 801 83 617 q 628 986 393 986 q 886 892 793 986 q 979 646 979 799 q 820 167 979 347 q 418 -14 661 -14 m 826 628 q 767 809 826 750 q 604 868 708 868 q 339 713 442 868 q 236 339 236 558 q 292 164 236 224 q 449 104 349 104 q 720 253 614 104 q 826 628 826 403 m 835 1168 l 518 1036 l 481 1113 l 783 1278 l 835 1168 z "},"Ô":{"ha":1028,"x_min":83,"x_max":979,"o":"m 418 -14 q 173 77 263 -14 q 83 325 83 168 q 238 801 83 617 q 628 986 393 986 q 886 892 793 986 q 979 646 979 799 q 820 167 979 347 q 418 -14 661 -14 m 826 628 q 767 809 826 750 q 604 868 708 868 q 339 713 442 868 q 236 339 236 558 q 292 164 236 224 q 449 104 349 104 q 720 253 614 104 q 826 628 826 403 m 788 1042 l 628 1157 l 421 1042 l 376 1104 l 600 1257 l 682 1264 l 853 1104 l 788 1042 z "},"Õ":{"ha":1028,"x_min":83,"x_max":979,"o":"m 418 -14 q 173 77 263 -14 q 83 325 83 168 q 238 801 83 617 q 628 986 393 986 q 886 892 793 986 q 979 646 979 799 q 820 167 979 347 q 418 -14 661 -14 m 826 628 q 767 809 826 750 q 604 868 708 868 q 339 713 442 868 q 236 339 236 558 q 292 164 236 224 q 449 104 349 104 q 720 253 614 104 q 826 628 826 403 m 415 1064 l 375 1106 q 403 1146 382 1118 q 444 1192 425 1174 q 544 1236 494 1236 q 665 1204 594 1236 q 767 1172 735 1172 q 823 1187 799 1172 q 858 1217 847 1201 l 871 1231 l 913 1189 q 861 1119 892 1149 q 750 1064 800 1064 q 630 1094 700 1064 q 528 1125 560 1125 q 431 1079 474 1125 l 415 1064 z "},"Ö":{"ha":1028,"x_min":83,"x_max":979,"o":"m 418 -14 q 173 77 263 -14 q 83 325 83 168 q 238 801 83 617 q 628 986 393 986 q 886 892 793 986 q 979 646 979 799 q 820 167 979 347 q 418 -14 661 -14 m 826 628 q 767 809 826 750 q 604 868 708 868 q 339 713 442 868 q 236 339 236 558 q 292 164 236 224 q 449 104 349 104 q 720 253 614 104 q 826 628 826 403 m 768 1063 q 706 1132 706 1063 q 731 1199 706 1168 q 794 1229 756 1229 q 858 1165 858 1229 q 832 1093 858 1124 q 768 1063 806 1063 m 489 1063 q 426 1132 426 1063 q 451 1199 426 1168 q 515 1229 476 1229 q 579 1165 579 1229 q 553 1093 579 1124 q 489 1063 526 1063 z "},"×":{"ha":874,"x_min":69,"x_max":804,"o":"m 151 624 l 240 701 l 449 446 l 740 701 l 804 624 l 514 368 l 722 113 l 633 35 l 425 290 l 133 35 l 69 113 l 361 368 l 151 624 z "},"Ø":{"ha":1063,"x_min":36,"x_max":1004,"o":"m 419 -14 q 246 26 319 -14 l 117 -146 l 36 -97 l 172 85 q 92 325 92 176 q 244 801 92 617 q 629 986 396 986 q 815 943 736 986 l 925 1090 l 1004 1042 l 889 888 q 974 660 974 800 q 818 169 974 351 q 419 -14 663 -14 m 828 642 q 801 769 828 717 l 326 136 q 450 104 375 104 q 722 256 617 104 q 828 642 828 407 m 238 339 q 264 207 238 263 l 736 839 q 606 868 688 868 q 340 713 443 868 q 238 339 238 558 z "},"Ù":{"ha":1021,"x_min":104,"x_max":1083,"o":"m 953 861 l 881 410 q 747 94 849 203 q 440 -14 644 -14 q 206 59 276 -14 q 135 264 135 132 q 144 375 135 307 l 222 861 l 104 889 l 117 965 l 497 972 l 483 889 l 363 861 l 285 375 q 276 279 276 325 q 319 149 276 194 q 476 104 361 104 q 651 171 590 104 q 738 396 713 238 l 813 861 l 688 889 l 700 965 l 1083 972 l 1069 889 l 953 861 m 721 1033 l 404 1169 l 456 1279 l 758 1110 l 721 1033 z "},"Ú":{"ha":1021,"x_min":104,"x_max":1083,"o":"m 953 861 l 881 410 q 747 94 849 203 q 440 -14 644 -14 q 206 59 276 -14 q 135 264 135 132 q 144 375 135 307 l 222 861 l 104 889 l 117 965 l 497 972 l 483 889 l 363 861 l 285 375 q 276 279 276 325 q 319 149 276 194 q 476 104 361 104 q 651 171 590 104 q 738 396 713 238 l 813 861 l 688 889 l 700 965 l 1083 972 l 1069 889 l 953 861 m 882 1168 l 565 1036 l 528 1113 l 831 1278 l 882 1168 z "},"Û":{"ha":1021,"x_min":104,"x_max":1083,"o":"m 953 861 l 881 410 q 747 94 849 203 q 440 -14 644 -14 q 206 59 276 -14 q 135 264 135 132 q 144 375 135 307 l 222 861 l 104 889 l 117 965 l 497 972 l 483 889 l 363 861 l 285 375 q 276 279 276 325 q 319 149 276 194 q 476 104 361 104 q 651 171 590 104 q 738 396 713 238 l 813 861 l 688 889 l 700 965 l 1083 972 l 1069 889 l 953 861 m 800 1042 l 640 1157 l 433 1042 l 389 1104 l 613 1257 l 694 1264 l 865 1104 l 800 1042 z "},"Ü":{"ha":1021,"x_min":104,"x_max":1083,"o":"m 953 861 l 881 410 q 747 94 849 203 q 440 -14 644 -14 q 206 59 276 -14 q 135 264 135 132 q 144 375 135 307 l 222 861 l 104 889 l 117 965 l 497 972 l 483 889 l 363 861 l 285 375 q 276 279 276 325 q 319 149 276 194 q 476 104 361 104 q 651 171 590 104 q 738 396 713 238 l 813 861 l 688 889 l 700 965 l 1083 972 l 1069 889 l 953 861 m 754 1063 q 692 1132 692 1063 q 717 1199 692 1168 q 781 1229 742 1229 q 844 1165 844 1229 q 818 1093 844 1124 q 754 1063 792 1063 m 475 1063 q 413 1132 413 1063 q 438 1199 413 1168 q 501 1229 463 1229 q 565 1165 565 1229 q 539 1093 565 1124 q 475 1063 513 1063 z "},"Ý":{"ha":846,"x_min":56,"x_max":936,"o":"m 292 111 l 331 364 l 186 861 l 56 889 l 68 965 l 297 972 l 436 464 l 669 863 l 565 889 l 579 965 l 936 972 l 922 889 l 807 861 l 464 321 l 431 111 l 546 83 l 532 0 l 153 0 l 167 83 l 292 111 m 806 1168 l 489 1036 l 451 1113 l 754 1278 l 806 1168 z "},"Þ":{"ha":840,"x_min":-17,"x_max":782,"o":"m 379 861 l 367 785 l 511 785 q 711 730 640 785 q 782 576 782 675 q 669 313 782 410 q 372 215 557 215 l 275 215 l 258 111 l 372 83 l 358 0 l -17 0 l -4 83 l 118 111 l 238 861 l 125 889 l 136 965 l 514 972 l 500 889 l 379 861 m 486 674 l 349 674 l 293 326 l 393 326 q 577 383 511 326 q 643 543 643 440 q 486 674 643 674 z "},"ß":{"ha":1008,"x_min":-94,"x_max":958,"o":"m 165 -56 l 274 625 l 129 625 l 143 715 l 290 729 l 297 768 q 417 1001 325 918 q 640 1083 508 1083 q 848 1039 772 1083 q 924 900 924 994 q 900 801 924 846 q 842 726 876 756 q 775 671 808 697 q 693 560 693 608 q 735 481 693 513 q 826 429 776 449 q 917 366 875 410 q 958 258 958 322 q 858 66 958 146 q 636 -14 758 -14 q 461 8 532 -14 l 438 17 l 469 217 l 557 217 l 561 104 q 653 90 586 90 q 765 126 719 90 q 810 215 810 161 q 717 322 810 275 q 640 363 678 342 q 574 422 601 385 q 547 514 547 458 q 572 615 547 569 q 631 690 596 661 q 700 743 665 718 q 783 875 783 803 q 639 979 783 979 q 506 928 564 979 q 433 783 449 878 l 301 -28 q 11 -333 253 -333 q -81 -322 -39 -333 l -94 -319 l -76 -221 l 1 -221 q 165 -56 139 -221 z "},"à":{"ha":819,"x_min":63,"x_max":771,"o":"m 650 111 l 771 90 l 758 14 l 500 0 l 556 256 q 431 75 500 144 q 347 14 397 42 q 244 -14 296 -14 q 115 56 167 -14 q 63 229 63 125 q 185 610 63 471 q 476 750 308 750 q 556 740 517 750 q 614 719 594 729 l 632 708 l 674 736 l 750 736 l 650 111 m 574 479 l 601 625 q 476 646 549 646 q 283 545 365 646 q 201 250 201 444 q 225 142 201 179 q 291 104 249 104 q 380 143 333 104 q 460 236 426 182 q 561 440 532 354 l 574 479 m 560 838 l 257 1011 l 317 1115 l 603 911 l 560 838 z "},"á":{"ha":819,"x_min":63,"x_max":771,"o":"m 650 111 l 771 90 l 758 14 l 500 0 l 556 256 q 431 75 500 144 q 347 14 397 42 q 244 -14 296 -14 q 115 56 167 -14 q 63 229 63 125 q 185 610 63 471 q 476 750 308 750 q 556 740 517 750 q 614 719 594 729 l 632 708 l 674 736 l 750 736 l 650 111 m 574 479 l 601 625 q 476 646 549 646 q 283 545 365 646 q 201 250 201 444 q 225 142 201 179 q 291 104 249 104 q 380 143 333 104 q 460 236 426 182 q 561 440 532 354 l 574 479 m 703 1011 l 400 838 l 357 911 l 643 1115 l 703 1011 z "},"â":{"ha":819,"x_min":63,"x_max":771,"o":"m 650 111 l 771 90 l 758 14 l 500 0 l 556 256 q 431 75 500 144 q 347 14 397 42 q 244 -14 296 -14 q 115 56 167 -14 q 63 229 63 125 q 185 610 63 471 q 476 750 308 750 q 556 740 517 750 q 614 719 594 729 l 632 708 l 674 736 l 750 736 l 650 111 m 574 479 l 601 625 q 476 646 549 646 q 283 545 365 646 q 201 250 201 444 q 225 142 201 179 q 291 104 249 104 q 380 143 333 104 q 460 236 426 182 q 561 440 532 354 l 574 479 m 654 857 l 494 993 l 288 857 l 242 919 l 467 1100 l 549 1107 l 718 919 l 654 857 z "},"ã":{"ha":819,"x_min":63,"x_max":771,"o":"m 650 111 l 771 90 l 758 14 l 500 0 l 556 256 q 431 75 500 144 q 347 14 397 42 q 244 -14 296 -14 q 115 56 167 -14 q 63 229 63 125 q 185 610 63 471 q 476 750 308 750 q 556 740 517 750 q 614 719 594 729 l 632 708 l 674 736 l 750 736 l 650 111 m 574 479 l 601 625 q 476 646 549 646 q 283 545 365 646 q 201 250 201 444 q 225 142 201 179 q 291 104 249 104 q 380 143 333 104 q 460 236 426 182 q 561 440 532 354 l 574 479 m 267 882 l 228 931 q 256 971 235 943 q 297 1017 278 999 q 397 1061 347 1061 q 513 1029 447 1061 q 610 997 579 997 q 667 1012 642 997 q 704 1042 692 1026 l 717 1056 l 757 1007 q 706 938 736 967 q 594 882 644 882 q 478 913 544 882 q 379 943 411 943 q 321 928 347 943 q 281 897 294 913 l 267 882 z "},"ä":{"ha":819,"x_min":63,"x_max":771,"o":"m 650 111 l 771 90 l 758 14 l 500 0 l 556 256 q 431 75 500 144 q 347 14 397 42 q 244 -14 296 -14 q 115 56 167 -14 q 63 229 63 125 q 185 610 63 471 q 476 750 308 750 q 556 740 517 750 q 614 719 594 729 l 632 708 l 674 736 l 750 736 l 650 111 m 574 479 l 601 625 q 476 646 549 646 q 283 545 365 646 q 201 250 201 444 q 225 142 201 179 q 291 104 249 104 q 380 143 333 104 q 460 236 426 182 q 561 440 532 354 l 574 479 m 619 889 q 557 958 557 889 q 582 1025 557 994 q 646 1056 607 1056 q 710 992 710 1056 q 683 919 710 950 q 619 889 657 889 m 340 889 q 278 958 278 889 q 303 1025 278 994 q 367 1056 328 1056 q 431 992 431 1056 q 404 919 431 950 q 340 889 378 889 z "},"å":{"ha":819,"x_min":63,"x_max":771,"o":"m 650 111 l 771 90 l 758 14 l 500 0 l 556 256 q 431 75 500 144 q 347 14 397 42 q 244 -14 296 -14 q 115 56 167 -14 q 63 229 63 125 q 185 610 63 471 q 476 750 308 750 q 556 740 517 750 q 614 719 594 729 l 632 708 l 674 736 l 750 736 l 650 111 m 574 479 l 601 625 q 476 646 549 646 q 283 545 365 646 q 201 250 201 444 q 225 142 201 179 q 291 104 249 104 q 380 143 333 104 q 460 236 426 182 q 561 440 532 354 l 574 479 m 544 826 q 512 826 544 826 q 441 861 479 826 q 403 961 403 896 q 458 1083 403 1026 q 578 1139 514 1139 q 681 1105 642 1139 q 721 1005 721 1071 q 665 883 721 939 q 544 826 610 826 m 576 1069 q 510 1037 536 1069 q 485 961 485 1004 q 549 896 485 896 q 614 928 589 896 q 639 1004 639 961 q 576 1069 639 1069 z "},"æ":{"ha":1110,"x_min":42,"x_max":1082,"o":"m 1082 569 q 951 378 1082 447 q 600 310 819 310 q 596 247 596 276 q 633 134 596 171 q 749 97 671 97 q 849 113 793 97 q 938 144 904 128 l 971 160 l 1013 89 q 969 60 997 78 q 860 15 940 43 q 707 -14 779 -14 q 486 133 533 -14 q 360 27 433 68 q 211 -14 286 -14 q 89 31 136 -14 q 42 153 42 75 q 133 342 42 279 q 382 406 224 406 l 488 406 l 506 521 q 508 549 508 540 q 399 646 508 646 q 272 631 317 646 l 257 625 l 218 521 l 139 521 l 161 694 q 410 750 306 750 q 560 724 515 750 q 617 642 606 699 q 853 750 717 750 q 1020 701 958 750 q 1082 569 1082 651 m 613 407 q 858 445 765 407 q 950 556 950 483 q 846 646 950 646 q 706 578 771 646 q 613 407 640 511 m 474 315 l 381 315 q 174 181 174 315 q 200 121 174 144 q 264 97 226 97 q 401 167 339 97 q 474 315 463 236 z "},"ç":{"ha":646,"x_min":49,"x_max":653,"o":"m 532 507 l 528 625 q 438 639 494 639 q 256 524 324 639 q 188 253 188 410 q 319 97 188 97 q 415 113 363 97 q 497 144 467 128 l 528 160 l 569 90 q 527 62 554 79 q 426 15 500 44 q 292 -14 353 -14 q 116 54 183 -14 q 49 243 49 122 q 164 610 49 469 q 458 750 279 750 q 557 736 508 750 q 629 708 606 722 l 653 694 l 622 507 l 532 507 m 181 -215 q 264 -237 224 -237 q 328 -219 304 -237 q 353 -169 353 -200 q 251 -110 353 -110 l 269 0 l 351 0 l 342 -60 q 442 -160 442 -78 q 394 -262 442 -221 q 294 -304 347 -304 q 154 -281 197 -304 l 139 -272 l 181 -215 z "},"è":{"ha":700,"x_min":42,"x_max":672,"o":"m 672 569 q 537 376 672 450 q 185 301 401 301 q 181 242 181 271 q 333 97 181 97 q 435 113 378 97 q 526 144 492 128 l 561 160 l 603 89 q 557 60 586 78 q 446 15 528 43 q 292 -14 364 -14 q 110 53 178 -14 q 42 229 42 119 q 159 599 42 449 q 443 750 276 750 q 610 701 549 750 q 672 569 672 651 m 197 399 q 443 443 346 399 q 540 556 540 488 q 436 646 540 646 q 292 576 360 646 q 197 399 224 507 m 556 838 l 253 1011 l 313 1115 l 599 911 l 556 838 z "},"é":{"ha":704,"x_min":42,"x_max":676,"o":"m 672 569 q 537 376 672 450 q 185 301 401 301 q 181 242 181 271 q 333 97 181 97 q 435 113 378 97 q 526 144 492 128 l 561 160 l 603 89 q 557 60 586 78 q 446 15 528 43 q 292 -14 364 -14 q 110 53 178 -14 q 42 229 42 119 q 159 599 42 449 q 443 750 276 750 q 610 701 549 750 q 672 569 672 651 m 197 399 q 443 443 346 399 q 540 556 540 488 q 436 646 540 646 q 292 576 360 646 q 197 399 224 507 m 676 1011 l 374 838 l 331 911 l 617 1115 l 676 1011 z "},"ê":{"ha":700,"x_min":42,"x_max":672,"o":"m 672 569 q 537 376 672 450 q 185 301 401 301 q 181 242 181 271 q 333 97 181 97 q 435 113 378 97 q 526 144 492 128 l 561 160 l 603 89 q 557 60 586 78 q 446 15 528 43 q 292 -14 364 -14 q 110 53 178 -14 q 42 229 42 119 q 159 599 42 449 q 443 750 276 750 q 610 701 549 750 q 672 569 672 651 m 197 399 q 443 443 346 399 q 540 556 540 488 q 436 646 540 646 q 292 576 360 646 q 197 399 224 507 m 607 857 l 447 993 l 240 857 l 194 919 l 419 1100 l 501 1107 l 671 919 l 607 857 z "},"ë":{"ha":719,"x_min":42,"x_max":692,"o":"m 672 569 q 537 376 672 450 q 185 301 401 301 q 181 242 181 271 q 333 97 181 97 q 435 113 378 97 q 526 144 492 128 l 561 160 l 603 89 q 557 60 586 78 q 446 15 528 43 q 292 -14 364 -14 q 110 53 178 -14 q 42 229 42 119 q 159 599 42 449 q 443 750 276 750 q 610 701 549 750 q 672 569 672 651 m 197 399 q 443 443 346 399 q 540 556 540 488 q 436 646 540 646 q 292 576 360 646 q 197 399 224 507 m 601 889 q 539 958 539 889 q 564 1025 539 994 q 628 1056 589 1056 q 692 992 692 1056 q 665 919 692 950 q 601 889 639 889 m 322 889 q 260 958 260 889 q 285 1025 260 994 q 349 1056 310 1056 q 413 992 413 1056 q 386 919 413 950 q 322 889 360 889 z "},"ì":{"ha":468,"x_min":76,"x_max":433,"o":"m 194 625 l 76 653 l 90 729 l 344 736 l 244 111 l 363 90 l 350 14 l 94 0 l 194 625 m 390 838 l 88 1011 l 147 1115 l 433 911 l 390 838 z "},"í":{"ha":471,"x_min":76,"x_max":526,"o":"m 194 625 l 76 653 l 90 729 l 344 736 l 244 111 l 363 90 l 350 14 l 94 0 l 194 625 m 526 1011 l 224 838 l 181 911 l 467 1115 l 526 1011 z "},"î":{"ha":469,"x_min":35,"x_max":497,"o":"m 194 625 l 76 653 l 90 729 l 344 736 l 244 111 l 363 90 l 350 14 l 94 0 l 194 625 m 429 857 l 281 993 l 83 857 l 35 919 l 253 1100 l 335 1107 l 497 919 l 429 857 z "},"ï":{"ha":468,"x_min":76,"x_max":482,"o":"m 194 625 l 76 653 l 90 729 l 344 736 l 244 111 l 363 90 l 350 14 l 94 0 l 194 625 m 140 889 q 78 958 78 889 q 103 1025 78 994 q 167 1056 128 1056 q 231 992 231 1056 q 204 919 231 950 q 140 889 178 889 m 392 889 q 329 958 329 889 q 354 1025 329 994 q 418 1056 379 1056 q 482 992 482 1056 q 456 919 482 950 q 392 889 429 889 z "},"ð":{"ha":826,"x_min":28,"x_max":722,"o":"m 721 1013 l 583 939 q 722 541 722 792 q 614 138 722 290 q 292 -14 506 -14 q 98 58 168 -14 q 28 257 28 131 q 140 585 28 456 q 424 715 251 715 q 511 701 469 715 q 571 672 553 686 l 589 657 q 472 882 560 796 l 281 778 l 239 853 l 401 942 q 271 1000 358 968 l 325 1088 q 514 1003 431 1061 l 678 1089 l 721 1013 m 410 604 q 235 510 296 604 q 174 271 174 415 q 212 144 174 190 q 326 97 250 97 q 510 196 449 97 q 571 438 571 294 q 410 604 571 604 z "},"ñ":{"ha":889,"x_min":76,"x_max":819,"o":"m 551 0 l 629 479 q 635 540 635 521 q 563 632 635 632 q 463 592 513 632 q 381 497 414 553 q 278 289 310 382 l 265 250 l 225 0 l 93 0 l 193 625 l 76 653 l 89 729 l 343 736 l 281 467 q 338 567 301 513 q 410 656 375 621 q 502 721 446 692 q 618 750 558 750 q 772 579 772 750 q 765 500 772 546 l 701 111 l 819 90 l 807 14 l 551 0 m 311 882 l 272 931 q 301 971 279 943 q 342 1017 322 999 q 442 1061 392 1061 q 558 1029 492 1061 q 655 997 624 997 q 711 1012 686 997 q 749 1042 736 1026 l 761 1056 l 801 1007 q 750 938 781 967 q 639 882 689 882 q 522 913 589 882 q 424 943 456 943 q 365 928 392 943 q 325 897 339 913 l 311 882 z "},"ò":{"ha":792,"x_min":56,"x_max":729,"o":"m 306 -14 q 124 58 192 -14 q 56 250 56 131 q 172 611 56 472 q 472 750 289 750 q 660 678 592 750 q 729 490 729 606 q 610 124 729 261 q 306 -14 492 -14 m 444 639 q 262 527 329 639 q 194 257 194 415 q 231 137 194 176 q 333 97 268 97 q 520 203 450 97 q 590 474 590 310 q 444 639 590 639 m 572 838 l 269 1011 l 329 1115 l 615 911 l 572 838 z "},"ó":{"ha":792,"x_min":56,"x_max":729,"o":"m 306 -14 q 124 58 192 -14 q 56 250 56 131 q 172 611 56 472 q 472 750 289 750 q 660 678 592 750 q 729 490 729 606 q 610 124 729 261 q 306 -14 492 -14 m 444 639 q 262 527 329 639 q 194 257 194 415 q 231 137 194 176 q 333 97 268 97 q 520 203 450 97 q 590 474 590 310 q 444 639 590 639 m 692 1011 l 389 838 l 346 911 l 632 1115 l 692 1011 z "},"ô":{"ha":792,"x_min":56,"x_max":729,"o":"m 306 -14 q 124 58 192 -14 q 56 250 56 131 q 172 611 56 472 q 472 750 289 750 q 660 678 592 750 q 729 490 729 606 q 610 124 729 261 q 306 -14 492 -14 m 333 97 q 520 203 450 97 q 590 474 590 310 q 444 639 590 639 q 262 527 329 639 q 194 257 194 415 q 231 137 194 176 q 333 97 268 97 m 658 857 l 499 993 l 292 857 l 246 919 l 471 1100 l 553 1107 l 722 919 l 658 857 z "},"õ":{"ha":788,"x_min":56,"x_max":753,"o":"m 306 -14 q 124 58 192 -14 q 56 250 56 131 q 172 611 56 472 q 472 750 289 750 q 660 678 592 750 q 729 490 729 606 q 610 124 729 261 q 306 -14 492 -14 m 444 639 q 262 527 329 639 q 194 257 194 415 q 231 137 194 176 q 333 97 268 97 q 520 203 450 97 q 590 474 590 310 q 444 639 590 639 m 263 882 l 224 931 q 252 971 231 943 q 293 1017 274 999 q 393 1061 343 1061 q 509 1029 443 1061 q 606 997 575 997 q 663 1012 638 997 q 700 1042 688 1026 l 713 1056 l 753 1007 q 701 938 733 967 q 590 882 640 882 q 474 913 540 882 q 375 943 407 943 q 317 928 343 943 q 276 897 290 913 l 263 882 z "},"ö":{"ha":792,"x_min":56,"x_max":729,"o":"m 306 -14 q 124 58 192 -14 q 56 250 56 131 q 172 611 56 472 q 472 750 289 750 q 660 678 592 750 q 729 490 729 606 q 610 124 729 261 q 306 -14 492 -14 m 333 97 q 520 203 450 97 q 590 474 590 310 q 444 639 590 639 q 262 527 329 639 q 194 257 194 415 q 231 137 194 176 q 333 97 268 97 m 607 889 q 544 958 544 889 q 569 1025 544 994 q 633 1056 594 1056 q 697 992 697 1056 q 671 919 697 950 q 607 889 644 889 m 328 889 q 265 958 265 889 q 290 1025 265 994 q 354 1056 315 1056 q 418 992 418 1056 q 392 919 418 950 q 328 889 365 889 z "},"÷":{"ha":864,"x_min":69,"x_max":794,"o":"m 69 313 l 88 424 l 794 424 l 778 313 l 69 313 m 294 63 q 323 146 294 111 q 401 181 351 181 q 478 104 478 181 q 449 22 478 57 q 369 -14 421 -14 q 294 63 294 -14 m 385 632 q 413 715 385 681 q 492 750 442 750 q 568 674 568 750 q 540 591 568 626 q 460 556 511 556 q 385 632 385 556 z "},"ø":{"ha":806,"x_min":3,"x_max":794,"o":"m 317 -14 q 196 13 251 -14 l 78 -146 l 3 -97 l 124 67 q 63 250 63 136 q 179 611 63 472 q 476 750 296 750 q 611 722 551 750 l 719 868 l 794 819 l 683 669 q 744 500 744 600 q 624 126 744 265 q 317 -14 504 -14 m 201 257 q 211 185 201 213 l 536 621 q 456 639 501 639 q 270 527 339 639 q 201 257 201 415 m 606 479 q 594 550 606 519 l 271 114 q 344 97 303 97 q 535 203 464 97 q 606 479 606 310 z "},"ù":{"ha":878,"x_min":63,"x_max":808,"o":"m 540 0 l 597 269 q 542 170 579 224 q 470 80 506 117 q 378 15 435 43 q 264 -14 322 -14 q 110 156 110 -14 q 117 236 110 188 l 181 625 l 63 653 l 75 729 l 329 736 l 253 257 q 247 196 247 213 q 319 104 247 104 q 421 144 371 104 q 504 239 471 183 q 603 447 575 360 l 615 486 l 657 736 l 789 736 l 689 111 l 808 90 l 796 14 l 540 0 m 581 838 l 278 1011 l 338 1115 l 624 911 l 581 838 z "},"ú":{"ha":878,"x_min":63,"x_max":808,"o":"m 540 0 l 597 269 q 542 170 579 224 q 470 80 506 117 q 378 15 435 43 q 264 -14 322 -14 q 110 156 110 -14 q 117 236 110 188 l 181 625 l 63 653 l 75 729 l 329 736 l 253 257 q 247 196 247 213 q 319 104 247 104 q 421 144 371 104 q 504 239 471 183 q 603 447 575 360 l 615 486 l 657 736 l 789 736 l 689 111 l 808 90 l 796 14 l 540 0 m 708 1011 l 406 838 l 363 911 l 649 1115 l 708 1011 z "},"û":{"ha":878,"x_min":63,"x_max":808,"o":"m 540 0 l 597 269 q 542 170 579 224 q 470 80 506 117 q 378 15 435 43 q 264 -14 322 -14 q 110 156 110 -14 q 117 236 110 188 l 181 625 l 63 653 l 75 729 l 329 736 l 253 257 q 247 196 247 213 q 319 104 247 104 q 421 144 371 104 q 504 239 471 183 q 603 447 575 360 l 615 486 l 657 736 l 789 736 l 689 111 l 808 90 l 796 14 l 540 0 m 649 857 l 489 993 l 282 857 l 236 919 l 461 1100 l 543 1107 l 713 919 l 649 857 z "},"ü":{"ha":878,"x_min":63,"x_max":808,"o":"m 540 0 l 597 269 q 542 170 579 224 q 470 80 506 117 q 378 15 435 43 q 264 -14 322 -14 q 110 156 110 -14 q 117 236 110 188 l 181 625 l 63 653 l 75 729 l 329 736 l 253 257 q 247 196 247 213 q 319 104 247 104 q 421 144 371 104 q 504 239 471 183 q 603 447 575 360 l 615 486 l 657 736 l 789 736 l 689 111 l 808 90 l 796 14 l 540 0 m 617 889 q 554 958 554 889 q 579 1025 554 994 q 643 1056 604 1056 q 707 992 707 1056 q 681 919 707 950 q 617 889 654 889 m 338 889 q 275 958 275 889 q 300 1025 275 994 q 364 1056 325 1056 q 428 992 428 1056 q 401 919 428 950 q 338 889 375 889 z "},"ý":{"ha":792,"x_min":-7,"x_max":813,"o":"m 799 653 l 721 631 l 474 46 q 317 -256 379 -178 q 150 -333 254 -333 q 14 -317 79 -333 l -7 -311 l 21 -222 q 136 -229 76 -229 q 234 -192 196 -229 q 315 -54 272 -154 l 135 626 l 28 653 l 40 729 l 264 736 l 381 226 l 393 132 l 599 628 l 494 653 l 507 729 l 813 736 l 799 653 m 690 1011 l 388 838 l 344 911 l 631 1115 l 690 1011 z "},"þ":{"ha":854,"x_min":-65,"x_max":782,"o":"m 400 1069 l 346 736 l 290 481 q 338 572 304 518 q 406 660 372 625 q 490 723 439 696 q 594 750 540 750 q 733 678 683 750 q 782 500 782 606 q 654 128 782 271 q 351 -14 526 -14 q 231 6 303 -14 l 197 -215 l 336 -243 l 324 -319 l -65 -319 l -53 -243 l 61 -215 l 249 958 l 133 986 l 146 1063 l 400 1069 m 278 257 l 249 111 q 365 90 303 90 q 556 193 468 90 q 643 479 643 296 q 619 588 643 543 q 547 632 594 632 q 453 593 499 632 q 378 500 408 554 q 289 296 315 386 l 278 257 z "},"ÿ":{"ha":792,"x_min":-7,"x_max":813,"o":"m 799 653 l 721 631 l 474 46 q 317 -256 379 -178 q 150 -333 254 -333 q 14 -317 79 -333 l -7 -311 l 21 -222 q 136 -229 76 -229 q 234 -192 196 -229 q 315 -54 272 -154 l 135 626 l 28 653 l 40 729 l 264 736 l 381 226 l 393 132 l 599 628 l 494 653 l 507 729 l 813 736 l 799 653 m 540 889 q 478 958 478 889 q 503 1025 478 994 q 567 1056 528 1056 q 631 992 631 1056 q 604 919 631 950 q 540 889 578 889 m 261 889 q 199 958 199 889 q 224 1025 199 994 q 288 1056 249 1056 q 351 992 351 1056 q 325 919 351 950 q 261 889 299 889 z "},"Ā":{"ha":981,"x_min":-56,"x_max":918,"o":"m 668 111 l 640 264 l 286 264 l 210 110 l 326 83 l 313 0 l -56 0 l -43 83 l 75 111 l 519 965 l 657 972 l 824 107 l 918 83 l 904 0 l 536 0 l 549 83 l 668 111 m 550 793 l 340 375 l 621 375 l 550 793 m 424 1083 l 439 1188 l 806 1188 l 790 1083 l 424 1083 z "},"ā":{"ha":819,"x_min":63,"x_max":771,"o":"m 650 111 l 771 90 l 758 14 l 500 0 l 556 256 q 431 75 500 144 q 347 14 397 42 q 244 -14 296 -14 q 115 56 167 -14 q 63 229 63 125 q 185 610 63 471 q 476 750 308 750 q 556 740 517 750 q 614 719 594 729 l 632 708 l 674 736 l 750 736 l 650 111 m 574 479 l 601 625 q 476 646 549 646 q 283 545 365 646 q 201 250 201 444 q 225 142 201 179 q 291 104 249 104 q 380 143 333 104 q 460 236 426 182 q 561 440 532 354 l 574 479 m 301 917 l 317 1021 l 683 1021 l 668 917 l 301 917 z "},"Ă":{"ha":981,"x_min":-56,"x_max":918,"o":"m 668 111 l 640 264 l 286 264 l 210 110 l 326 83 l 313 0 l -56 0 l -43 83 l 75 111 l 519 965 l 657 972 l 824 107 l 918 83 l 904 0 l 536 0 l 549 83 l 668 111 m 550 793 l 340 375 l 621 375 l 550 793 m 725 1250 l 807 1257 q 727 1107 793 1165 q 586 1049 661 1049 q 467 1097 511 1049 q 424 1214 424 1144 l 426 1250 l 508 1257 q 533 1183 508 1213 q 602 1153 558 1153 q 677 1177 646 1153 q 717 1225 708 1201 l 725 1250 z "},"ă":{"ha":819,"x_min":63,"x_max":771,"o":"m 650 111 l 771 90 l 758 14 l 500 0 l 556 256 q 431 75 500 144 q 347 14 397 42 q 244 -14 296 -14 q 115 56 167 -14 q 63 229 63 125 q 185 610 63 471 q 476 750 308 750 q 556 740 517 750 q 614 719 594 729 l 632 708 l 674 736 l 750 736 l 650 111 m 574 479 l 601 625 q 476 646 549 646 q 283 545 365 646 q 201 250 201 444 q 225 142 201 179 q 291 104 249 104 q 380 143 333 104 q 460 236 426 182 q 561 440 532 354 l 574 479 m 653 1071 l 735 1078 q 655 928 721 986 q 514 869 589 869 q 395 917 439 869 q 351 1035 351 965 l 354 1071 l 436 1078 q 461 1003 436 1033 q 530 974 486 974 q 605 998 574 974 q 644 1046 636 1022 l 653 1071 z "},"Ą":{"ha":981,"x_min":-56,"x_max":918,"o":"m 668 111 l 640 264 l 286 264 l 210 110 l 326 83 l 313 0 l -56 0 l -43 83 l 75 111 l 519 965 l 657 972 l 824 107 l 918 83 l 904 0 l 536 0 l 549 83 l 668 111 m 550 793 l 340 375 l 621 375 l 550 793 m 536 0 l 644 0 q 626 -10 638 -4 q 588 -37 615 -17 q 538 -78 560 -58 q 481 -172 481 -129 q 495 -209 481 -196 q 533 -222 510 -222 l 597 -212 l 600 -278 q 489 -306 542 -306 q 403 -278 436 -306 q 369 -198 369 -250 q 411 -96 369 -146 q 494 -22 453 -46 l 536 0 z "},"ą":{"ha":826,"x_min":69,"x_max":778,"o":"m 507 0 l 764 14 l 736 6 q 451 -172 451 -74 q 467 -209 451 -196 q 497 -222 482 -222 q 522 -222 513 -222 q 539 -219 531 -221 q 569 -212 553 -215 l 569 -278 q 459 -306 511 -306 q 374 -276 407 -306 q 340 -188 340 -246 q 388 -85 340 -131 q 507 0 435 -39 m 657 111 l 778 90 l 765 14 l 507 0 l 563 256 q 436 75 507 144 q 353 14 404 42 q 251 -14 303 -14 q 122 56 174 -14 q 69 229 69 125 q 192 610 69 471 q 483 750 315 750 q 563 740 524 750 q 619 719 601 729 l 639 708 l 681 736 l 757 736 l 657 111 m 581 479 l 608 625 q 483 646 556 646 q 290 545 372 646 q 208 250 208 444 q 232 142 208 179 q 298 104 256 104 q 387 143 340 104 q 467 236 433 182 q 567 440 539 354 l 581 479 z "},"Ć":{"ha":872,"x_min":83,"x_max":921,"o":"m 921 917 q 883 681 921 917 l 803 681 l 786 833 q 597 868 701 868 q 408 796 493 868 q 280 610 324 724 q 236 373 236 496 q 297 179 236 250 q 456 108 357 108 q 764 217 617 108 l 814 135 q 428 -14 629 -14 q 175 81 267 -14 q 83 339 83 176 q 238 804 83 622 q 628 986 392 986 q 787 963 696 986 q 921 917 878 940 m 828 1168 l 511 1036 l 474 1113 l 776 1278 l 828 1168 z "},"ć":{"ha":656,"x_min":49,"x_max":663,"o":"m 438 639 q 256 524 324 639 q 188 253 188 410 q 319 97 188 97 q 528 160 417 97 l 569 90 l 531 64 q 422 12 492 38 q 292 -14 353 -14 q 116 54 183 -14 q 49 243 49 122 q 164 610 49 469 q 458 750 279 750 q 653 694 569 750 l 622 507 l 532 507 l 528 625 q 438 639 489 639 m 663 1011 l 360 838 l 317 911 l 603 1115 l 663 1011 z "},"Ĉ":{"ha":872,"x_min":83,"x_max":921,"o":"m 921 917 q 883 681 921 917 l 803 681 l 786 833 q 597 868 701 868 q 408 796 493 868 q 280 610 324 724 q 236 373 236 496 q 297 179 236 250 q 456 108 357 108 q 764 217 617 108 l 814 135 q 428 -14 629 -14 q 175 81 267 -14 q 83 339 83 176 q 238 804 83 622 q 628 986 392 986 q 787 963 696 986 q 921 917 878 940 m 814 1042 l 654 1157 l 447 1042 l 403 1104 l 626 1257 l 708 1264 l 879 1104 l 814 1042 z "},"ĉ":{"ha":657,"x_min":49,"x_max":699,"o":"m 438 639 q 256 524 324 639 q 188 253 188 410 q 319 97 188 97 q 528 160 417 97 l 569 90 l 531 64 q 422 12 492 38 q 292 -14 353 -14 q 116 54 183 -14 q 49 243 49 122 q 164 610 49 469 q 458 750 279 750 q 653 694 569 750 l 622 507 l 532 507 l 528 625 q 438 639 489 639 m 635 857 l 475 993 l 268 857 l 222 919 l 447 1100 l 529 1107 l 699 919 l 635 857 z "},"Ċ":{"ha":872,"x_min":83,"x_max":921,"o":"m 921 917 l 883 681 l 803 681 l 786 833 q 597 868 701 868 q 408 796 493 868 q 280 610 324 724 q 236 373 236 496 q 297 179 236 250 q 456 108 357 108 q 764 217 617 108 l 814 135 q 428 -14 629 -14 q 175 81 267 -14 q 83 339 83 176 q 238 804 83 622 q 628 986 392 986 q 769 969 696 986 q 881 933 842 951 l 921 917 m 753 1177 q 753 1156 753 1177 q 727 1099 753 1135 q 661 1063 701 1063 q 600 1081 621 1063 q 579 1142 579 1100 q 605 1221 579 1185 q 671 1257 631 1257 q 732 1238 711 1257 q 753 1177 753 1219 z "},"ċ":{"ha":646,"x_min":49,"x_max":653,"o":"m 532 507 l 528 625 q 438 639 494 639 q 256 524 324 639 q 188 253 188 410 q 319 97 188 97 q 415 113 363 97 q 497 144 467 128 l 528 160 l 569 90 q 527 62 554 79 q 426 15 500 44 q 292 -14 353 -14 q 116 54 183 -14 q 49 243 49 122 q 164 610 49 469 q 458 750 279 750 q 557 736 508 750 q 629 708 606 722 l 653 694 l 622 507 l 532 507 m 522 983 q 522 961 522 983 q 497 904 522 940 q 431 868 471 868 q 369 887 390 868 q 349 948 349 906 q 374 1026 349 990 q 440 1063 400 1063 q 501 1044 481 1063 q 522 983 522 1025 z "},"Č":{"ha":872,"x_min":83,"x_max":921,"o":"m 921 917 q 883 681 921 917 l 803 681 l 786 833 q 597 868 701 868 q 408 796 493 868 q 280 610 324 724 q 236 373 236 496 q 297 179 236 250 q 456 108 357 108 q 764 217 617 108 l 814 135 q 428 -14 629 -14 q 175 81 267 -14 q 83 339 83 176 q 238 804 83 622 q 628 986 392 986 q 787 963 696 986 q 921 917 878 940 m 643 1147 l 850 1267 l 888 1204 l 667 1043 l 586 1043 l 417 1204 l 483 1267 l 643 1147 z "},"č":{"ha":646,"x_min":49,"x_max":725,"o":"m 438 639 q 256 524 324 639 q 188 253 188 410 q 319 97 188 97 q 528 160 417 97 l 569 90 l 531 64 q 422 12 492 38 q 292 -14 353 -14 q 116 54 183 -14 q 49 243 49 122 q 164 610 49 469 q 458 750 279 750 q 653 694 569 750 l 622 507 l 532 507 l 528 625 q 438 639 489 639 m 481 960 l 688 1106 l 725 1043 l 504 856 l 424 856 l 254 1043 l 321 1106 l 481 960 z "},"Ď":{"ha":1004,"x_min":7,"x_max":942,"o":"m 140 110 l 261 861 l 149 889 l 161 965 l 418 972 l 597 972 q 847 885 753 972 q 942 646 942 797 q 790 169 942 338 q 375 0 638 0 l 7 0 l 21 83 l 140 110 m 401 861 l 282 111 l 396 111 q 690 253 585 111 q 796 628 796 394 q 740 800 796 739 q 576 861 685 861 l 401 861 m 554 1147 l 761 1267 l 799 1204 l 578 1043 l 497 1043 l 328 1204 l 394 1267 l 554 1147 z "},"Ē":{"ha":803,"x_min":7,"x_max":838,"o":"m 143 111 l 263 861 l 149 889 l 161 965 l 419 972 l 838 972 l 800 736 l 722 736 l 708 861 l 401 861 l 353 563 l 669 563 l 653 451 l 336 451 l 282 111 l 597 111 l 649 253 l 740 253 l 697 0 l 7 0 l 21 83 l 143 111 m 368 1083 l 383 1188 l 750 1188 l 735 1083 l 368 1083 z "},"ē":{"ha":700,"x_min":42,"x_max":672,"o":"m 672 569 q 537 376 672 450 q 185 301 401 301 q 181 242 181 271 q 333 97 181 97 q 435 113 378 97 q 526 144 492 128 l 561 160 l 603 89 q 557 60 586 78 q 446 15 528 43 q 292 -14 364 -14 q 110 53 178 -14 q 42 229 42 119 q 159 599 42 449 q 443 750 276 750 q 610 701 549 750 q 672 569 672 651 m 197 399 q 443 443 346 399 q 540 556 540 488 q 436 646 540 646 q 292 576 360 646 q 197 399 224 507 m 242 917 l 257 1021 l 624 1021 l 608 917 l 242 917 z "},"Ĕ":{"ha":803,"x_min":7,"x_max":838,"o":"m 143 111 l 263 861 l 149 889 l 161 965 l 419 972 l 838 972 l 800 736 l 722 736 l 708 861 l 401 861 l 353 563 l 669 563 l 653 451 l 336 451 l 282 111 l 597 111 l 649 253 l 740 253 l 697 0 l 7 0 l 21 83 l 143 111 m 710 1250 l 792 1257 q 712 1107 778 1165 q 571 1049 646 1049 q 452 1097 496 1049 q 408 1214 408 1144 l 411 1250 l 493 1257 q 518 1183 493 1213 q 587 1153 543 1153 q 662 1177 631 1153 q 701 1225 693 1201 l 710 1250 z "},"ĕ":{"ha":706,"x_min":42,"x_max":678,"o":"m 672 569 q 537 376 672 450 q 185 301 401 301 q 181 242 181 271 q 333 97 181 97 q 435 113 378 97 q 526 144 492 128 l 561 160 l 603 89 q 557 60 586 78 q 446 15 528 43 q 292 -14 364 -14 q 110 53 178 -14 q 42 229 42 119 q 159 599 42 449 q 443 750 276 750 q 610 701 549 750 q 672 569 672 651 m 197 399 q 443 443 346 399 q 540 556 540 488 q 436 646 540 646 q 292 576 360 646 q 197 399 224 507 m 596 1069 l 678 1076 q 598 926 664 985 q 457 868 532 868 q 338 916 382 868 q 294 1033 294 964 l 297 1069 l 379 1076 q 404 1002 379 1032 q 473 972 429 972 q 548 997 517 972 q 588 1044 579 1021 l 596 1069 z "},"Ė":{"ha":803,"x_min":7,"x_max":838,"o":"m 143 111 l 263 861 l 149 889 l 161 965 l 419 972 l 838 972 l 800 736 l 722 736 l 708 861 l 401 861 l 353 563 l 669 563 l 653 451 l 336 451 l 282 111 l 597 111 l 649 253 l 740 253 l 697 0 l 7 0 l 21 83 l 143 111 m 678 1177 q 678 1156 678 1177 q 652 1099 678 1135 q 586 1063 626 1063 q 525 1081 546 1063 q 504 1142 504 1100 q 530 1221 504 1185 q 596 1257 556 1257 q 657 1238 636 1257 q 678 1177 678 1219 z "},"ė":{"ha":700,"x_min":42,"x_max":672,"o":"m 672 569 q 537 376 672 450 q 185 301 401 301 q 181 242 181 271 q 333 97 181 97 q 435 113 378 97 q 526 144 492 128 l 561 160 l 603 89 q 557 60 586 78 q 446 15 528 43 q 292 -14 364 -14 q 110 53 178 -14 q 42 229 42 119 q 159 599 42 449 q 443 750 276 750 q 610 701 549 750 q 672 569 672 651 m 197 399 q 443 443 346 399 q 540 556 540 488 q 436 646 540 646 q 292 576 360 646 q 197 399 224 507 m 521 983 q 521 961 521 983 q 495 904 521 940 q 429 868 469 868 q 368 887 389 868 q 347 948 347 906 q 373 1026 347 990 q 439 1063 399 1063 q 500 1044 479 1063 q 521 983 521 1025 z "},"Ę":{"ha":803,"x_min":7,"x_max":838,"o":"m 143 111 l 263 861 l 149 889 l 161 965 l 419 972 l 838 972 l 800 736 l 722 736 l 708 861 l 401 861 l 353 563 l 669 563 l 653 451 l 336 451 l 282 111 l 597 111 l 649 253 l 740 253 l 697 0 l 7 0 l 21 83 l 143 111 m 507 0 l 615 0 q 597 -10 608 -4 q 558 -37 586 -17 q 508 -78 531 -58 q 451 -172 451 -129 q 466 -209 451 -196 q 504 -222 481 -222 l 568 -212 l 571 -278 q 460 -306 513 -306 q 374 -278 407 -306 q 340 -198 340 -250 q 382 -96 340 -146 q 465 -22 424 -46 l 507 0 z "},"ę":{"ha":700,"x_min":42,"x_max":672,"o":"m 554 150 l 596 86 q 520 35 574 74 q 434 -35 467 -4 q 374 -104 401 -65 q 347 -174 347 -143 q 400 -222 347 -222 l 463 -212 l 465 -278 q 353 -306 407 -306 q 267 -277 300 -306 q 235 -197 235 -249 q 356 -10 235 -107 l 554 150 m 672 569 q 537 376 672 450 q 185 301 401 301 q 181 242 181 271 q 333 97 181 97 q 435 113 378 97 q 526 144 492 128 l 561 160 l 603 89 q 557 60 586 78 q 446 15 528 43 q 292 -14 364 -14 q 110 53 178 -14 q 42 229 42 119 q 159 599 42 449 q 443 750 276 750 q 610 701 549 750 q 672 569 672 651 m 197 399 q 443 443 346 399 q 540 556 540 488 q 436 646 540 646 q 292 576 360 646 q 197 399 224 507 z "},"Ě":{"ha":810,"x_min":7,"x_max":844,"o":"m 143 111 l 263 861 l 149 889 l 161 965 l 419 972 l 838 972 l 800 736 l 722 736 l 708 861 l 401 861 l 353 563 l 669 563 l 653 451 l 336 451 l 282 111 l 597 111 l 649 253 l 740 253 l 697 0 l 7 0 l 21 83 l 143 111 m 600 1147 l 807 1267 l 844 1204 l 624 1043 l 543 1043 l 374 1204 l 440 1267 l 600 1147 z "},"ě":{"ha":728,"x_min":42,"x_max":700,"o":"m 672 569 q 537 376 672 450 q 185 301 401 301 q 181 242 181 271 q 333 97 181 97 q 435 113 378 97 q 526 144 492 128 l 561 160 l 603 89 q 557 60 586 78 q 446 15 528 43 q 292 -14 364 -14 q 110 53 178 -14 q 42 229 42 119 q 159 599 42 449 q 443 750 276 750 q 610 701 549 750 q 672 569 672 651 m 197 399 q 443 443 346 399 q 540 556 540 488 q 436 646 540 646 q 292 576 360 646 q 197 399 224 507 m 456 960 l 663 1106 l 700 1043 l 479 856 l 399 856 l 229 1043 l 296 1106 l 456 960 z "},"Ĝ":{"ha":1006,"x_min":83,"x_max":992,"o":"m 461 -14 q 370 -14 461 -14 q 181 83 279 -14 q 83 339 83 179 q 238 805 83 624 q 628 986 392 986 q 787 963 696 986 q 921 917 878 940 l 883 693 l 803 693 l 786 838 q 603 868 710 868 q 411 796 497 868 q 281 609 325 724 q 236 369 236 494 q 298 174 236 243 q 479 106 360 106 q 699 143 599 106 l 736 375 l 618 396 l 631 472 l 992 479 l 978 396 l 871 375 l 822 69 q 461 -14 643 -14 m 839 1042 l 679 1157 l 472 1042 l 428 1104 l 651 1257 l 733 1264 l 904 1104 l 839 1042 z "},"ĝ":{"ha":776,"x_min":28,"x_max":735,"o":"m 735 736 l 611 -33 q 503 -261 588 -182 q 283 -340 418 -340 q 165 -326 229 -340 q 64 -297 101 -311 l 28 -283 l 61 -183 q 269 -226 182 -226 q 479 -42 440 -226 l 542 256 q 415 75 485 143 q 331 14 382 42 q 228 -14 279 -14 q 99 55 150 -14 q 49 229 49 124 q 171 610 49 471 q 460 750 293 750 q 541 740 501 750 q 599 719 581 729 l 617 708 l 658 736 l 735 736 m 558 479 l 585 625 q 460 646 535 646 q 269 545 350 646 q 188 253 188 444 q 210 142 188 179 q 276 104 233 104 q 366 143 319 104 q 446 236 413 182 q 544 440 514 350 l 558 479 m 661 857 l 501 993 l 294 857 l 249 919 l 474 1100 l 556 1107 l 725 919 l 661 857 z "},"Ğ":{"ha":1006,"x_min":83,"x_max":992,"o":"m 461 -14 q 370 -14 461 -14 q 181 83 279 -14 q 83 339 83 179 q 238 805 83 624 q 628 986 392 986 q 787 963 696 986 q 921 917 878 940 l 883 693 l 803 693 l 786 838 q 603 868 710 868 q 411 796 497 868 q 281 609 325 724 q 236 369 236 494 q 298 174 236 243 q 479 106 360 106 q 699 143 599 106 l 736 375 l 618 396 l 631 472 l 992 479 l 978 396 l 871 375 l 822 69 q 461 -14 643 -14 m 781 1250 l 863 1257 q 783 1107 849 1165 q 642 1049 717 1049 q 523 1097 567 1049 q 479 1214 479 1144 l 482 1250 l 564 1257 q 589 1183 564 1213 q 658 1153 614 1153 q 733 1177 701 1153 q 772 1225 764 1201 l 781 1250 z "},"ğ":{"ha":776,"x_min":28,"x_max":735,"o":"m 735 736 l 611 -33 q 503 -261 588 -182 q 283 -340 418 -340 q 165 -326 229 -340 q 64 -297 101 -311 l 28 -283 l 61 -183 q 269 -226 182 -226 q 479 -42 440 -226 l 542 256 q 415 75 485 143 q 331 14 382 42 q 228 -14 279 -14 q 99 55 150 -14 q 49 229 49 124 q 171 610 49 471 q 460 750 293 750 q 541 740 501 750 q 599 719 581 729 l 617 708 l 658 736 l 735 736 m 558 479 l 585 625 q 460 646 535 646 q 269 545 350 646 q 188 253 188 444 q 210 142 188 179 q 276 104 233 104 q 366 143 319 104 q 446 236 413 182 q 544 440 514 350 l 558 479 m 597 1069 l 679 1076 q 599 926 665 985 q 458 868 533 868 q 340 916 383 868 q 296 1033 296 964 l 299 1069 l 381 1076 q 406 1002 381 1032 q 474 972 431 972 q 549 997 518 972 q 589 1044 581 1021 l 597 1069 z "},"Ġ":{"ha":1006,"x_min":83,"x_max":992,"o":"m 822 69 q 461 -14 643 -14 q 181 83 279 -14 q 83 339 83 179 q 238 805 83 624 q 628 986 392 986 q 769 969 696 986 q 881 933 842 951 l 921 917 l 883 693 l 803 693 l 786 838 q 603 868 710 868 q 411 796 497 868 q 281 609 325 724 q 236 369 236 494 q 298 174 236 243 q 479 106 360 106 q 699 143 599 106 l 736 375 l 618 396 l 631 472 l 992 479 l 978 396 l 871 375 l 822 69 m 744 1177 q 744 1156 744 1177 q 719 1099 744 1135 q 653 1063 693 1063 q 592 1081 613 1063 q 571 1142 571 1100 q 597 1221 571 1185 q 663 1257 622 1257 q 724 1238 703 1257 q 744 1177 744 1219 z "},"ġ":{"ha":776,"x_min":28,"x_max":735,"o":"m 735 736 l 611 -33 q 503 -261 588 -182 q 283 -340 418 -340 q 165 -326 229 -340 q 64 -297 101 -311 l 28 -283 l 61 -183 q 269 -226 182 -226 q 479 -42 440 -226 l 542 256 q 415 75 485 143 q 331 14 382 42 q 228 -14 279 -14 q 99 55 150 -14 q 49 229 49 124 q 171 610 49 471 q 460 750 293 750 q 541 740 501 750 q 599 719 581 729 l 617 708 l 658 736 l 735 736 m 558 479 l 585 625 q 460 646 535 646 q 269 545 350 646 q 188 253 188 444 q 210 142 188 179 q 276 104 233 104 q 366 143 319 104 q 446 236 413 182 q 544 440 514 350 l 558 479 m 590 983 q 590 961 590 983 q 565 904 590 940 q 499 868 539 868 q 438 887 458 868 q 417 948 417 906 q 442 1026 417 990 q 508 1063 468 1063 q 569 1044 549 1063 q 590 983 590 1025 z "},"Ģ":{"ha":1006,"x_min":83,"x_max":992,"o":"m 822 69 q 461 -14 643 -14 q 181 83 279 -14 q 83 339 83 179 q 238 805 83 624 q 628 986 392 986 q 769 969 696 986 q 881 933 842 951 l 921 917 l 883 693 l 803 693 l 786 838 q 603 868 710 868 q 411 796 497 868 q 281 609 325 724 q 236 369 236 494 q 298 174 236 243 q 479 106 360 106 q 699 143 599 106 l 736 375 l 618 396 l 631 472 l 992 479 l 978 396 l 871 375 l 822 69 m 429 -208 l 426 -147 q 444 -78 426 -106 q 497 -51 461 -51 q 563 -118 563 -51 q 524 -233 563 -169 q 449 -336 486 -297 l 411 -375 l 372 -340 q 417 -274 406 -299 q 429 -208 429 -250 z "},"Ĥ":{"ha":1104,"x_min":14,"x_max":1132,"o":"m 593 0 l 607 83 l 738 110 l 792 444 l 339 444 l 286 111 l 407 83 l 393 0 l 14 0 l 28 83 l 147 110 l 268 861 l 154 889 l 167 965 l 549 972 l 535 889 l 407 861 l 357 556 l 810 556 l 858 861 l 732 889 l 744 965 l 1132 972 l 1118 889 l 997 861 l 876 111 l 993 83 l 979 0 l 593 0 m 842 1042 l 682 1157 l 475 1042 l 431 1104 l 654 1257 l 736 1264 l 907 1104 l 842 1042 z "},"Ĩ":{"ha":607,"x_min":14,"x_max":635,"o":"m 153 111 l 272 861 l 156 889 l 168 965 l 547 972 l 533 889 l 411 861 l 290 111 l 407 83 l 393 0 l 14 0 l 28 83 l 153 111 m 138 1064 l 97 1106 q 126 1146 104 1118 q 167 1192 147 1174 q 267 1236 217 1236 q 387 1204 317 1236 q 489 1172 457 1172 q 545 1187 521 1172 q 581 1217 569 1201 l 593 1231 l 635 1189 q 583 1119 614 1149 q 472 1064 522 1064 q 352 1094 422 1064 q 250 1125 282 1125 q 153 1079 196 1125 l 138 1064 z "},"ĩ":{"ha":467,"x_min":14,"x_max":515,"o":"m 196 625 l 78 653 l 92 729 l 346 736 l 246 111 l 364 90 l 351 14 l 96 0 l 196 625 m 53 882 l 14 931 q 88 1019 39 978 q 179 1061 138 1061 q 283 1029 221 1061 q 374 997 344 997 q 461 1042 422 997 l 475 1056 l 515 1007 q 489 968 510 994 q 451 925 468 942 q 362 882 408 882 q 252 913 315 882 q 161 943 189 943 q 67 897 111 943 l 53 882 z "},"Ī":{"ha":540,"x_min":14,"x_max":568,"o":"m 153 111 l 272 861 l 156 889 l 168 965 l 547 972 l 533 889 l 411 861 l 290 111 l 407 83 l 393 0 l 14 0 l 28 83 l 153 111 m 186 1083 l 201 1188 l 568 1188 l 553 1083 l 186 1083 z "},"ī":{"ha":465,"x_min":76,"x_max":465,"o":"m 194 625 l 76 653 l 90 729 l 344 736 l 244 111 l 363 90 l 350 14 l 94 0 l 194 625 m 83 917 l 99 1021 l 465 1021 l 450 917 l 83 917 z "},"Ĭ":{"ha":550,"x_min":14,"x_max":578,"o":"m 153 111 l 272 861 l 156 889 l 168 965 l 547 972 l 533 889 l 411 861 l 290 111 l 407 83 l 393 0 l 14 0 l 28 83 l 153 111 m 496 1250 l 578 1257 q 498 1107 564 1165 q 357 1049 432 1049 q 238 1097 282 1049 q 194 1214 194 1144 l 197 1250 l 279 1257 q 304 1183 279 1213 q 373 1153 329 1153 q 448 1177 417 1153 q 488 1225 479 1201 l 496 1250 z "},"ĭ":{"ha":468,"x_min":76,"x_max":475,"o":"m 194 625 l 76 653 l 90 729 l 344 736 l 244 111 l 363 90 l 350 14 l 94 0 l 194 625 m 393 1069 l 475 1076 q 398 926 461 985 q 263 868 335 868 q 149 917 192 868 q 106 1033 106 965 l 108 1069 l 190 1076 q 214 1001 190 1031 q 278 972 238 972 q 349 997 319 972 q 386 1044 378 1021 l 393 1069 z "},"Į":{"ha":532,"x_min":7,"x_max":560,"o":"m 165 111 l 285 861 l 168 889 l 181 965 l 560 972 l 546 889 l 424 861 l 303 111 l 419 83 l 406 0 l 26 0 l 40 83 l 165 111 m 174 0 l 282 0 q 264 -10 275 -4 q 225 -37 253 -17 q 175 -78 197 -58 q 118 -172 118 -129 q 133 -209 118 -196 q 171 -222 147 -222 l 235 -212 l 238 -278 q 126 -306 179 -306 q 40 -278 74 -306 q 7 -198 7 -250 q 49 -96 7 -146 q 132 -22 90 -46 l 174 0 z "},"į":{"ha":457,"x_min":-56,"x_max":388,"o":"m 186 -36 q 93 -94 131 -58 q 56 -164 56 -131 q 110 -222 56 -222 l 174 -212 l 174 -278 q 63 -306 115 -306 q -22 -276 11 -306 q -56 -197 -56 -246 q 96 0 -56 -97 l 350 14 q 186 -36 296 6 m 96 0 l 196 625 l 78 653 l 92 729 l 346 736 l 246 111 l 364 90 l 351 14 l 96 0 m 388 983 q 388 961 388 983 q 362 904 388 940 q 296 868 336 868 q 235 887 256 868 q 214 948 214 906 q 240 1026 214 990 q 306 1063 265 1063 q 367 1044 346 1063 q 388 983 388 1025 z "},"İ":{"ha":519,"x_min":14,"x_max":547,"o":"m 153 111 l 272 861 l 156 889 l 168 965 l 547 972 l 533 889 l 411 861 l 290 111 l 407 83 l 393 0 l 14 0 l 28 83 l 153 111 m 468 1177 q 468 1156 468 1177 q 442 1099 468 1135 q 376 1063 417 1063 q 315 1081 336 1063 q 294 1142 294 1100 q 320 1221 294 1185 q 386 1257 346 1257 q 447 1238 426 1257 q 468 1177 468 1219 z "},"ı":{"ha":397,"x_min":76,"x_max":363,"o":"m 94 0 l 194 625 l 76 653 l 90 729 l 344 736 l 244 111 l 363 90 l 350 14 l 94 0 z "},"Ĳ":{"ha":953,"x_min":14,"x_max":981,"o":"m 575 35 l 707 861 l 561 889 l 411 861 l 290 111 l 407 83 l 393 0 l 14 0 l 28 83 l 153 111 l 272 861 l 156 889 l 168 965 l 981 972 l 967 889 l 846 861 l 718 63 q 619 -136 699 -64 q 419 -208 540 -208 l 333 -201 l 363 -97 l 431 -97 q 575 35 556 -97 z "},"ĳ":{"ha":885,"x_min":76,"x_max":843,"o":"m 628 483 l 651 625 l 532 653 l 546 729 l 803 736 l 672 -62 q 579 -262 651 -190 q 388 -333 507 -333 q 292 -317 342 -333 l 276 -312 l 304 -222 q 399 -229 339 -229 q 493 -187 460 -229 q 543 -49 526 -146 l 586 221 q 278 -14 456 -14 q 124 156 124 -14 q 131 236 124 188 l 194 625 l 76 653 l 89 729 l 343 736 l 267 257 q 261 196 261 213 q 333 104 261 104 q 452 158 394 104 q 546 283 510 211 q 628 483 621 431 m 843 983 q 843 961 843 983 q 817 904 843 940 q 751 868 792 868 q 690 887 711 868 q 669 948 669 906 q 695 1026 669 990 q 761 1063 721 1063 q 822 1044 801 1063 q 843 983 843 1025 m 385 983 q 385 961 385 983 q 359 904 385 940 q 293 868 333 868 q 232 887 253 868 q 211 948 211 906 q 237 1026 211 990 q 303 1063 263 1063 q 364 1044 343 1063 q 385 983 385 1025 z "},"Ĵ":{"ha":553,"x_min":-118,"x_max":601,"o":"m 124 35 l 256 861 l 138 889 l 150 965 l 529 972 l 515 889 l 394 861 l 267 63 q 168 -136 247 -64 q -32 -208 89 -208 l -118 -201 l -89 -97 l -21 -97 q 124 35 101 -97 m 536 1042 l 383 1157 l 183 1042 l 139 1104 l 356 1257 l 438 1264 l 601 1104 l 536 1042 z "},"ĵ":{"ha":376,"x_min":-194,"x_max":481,"o":"m 179 625 l 60 653 l 74 729 l 332 736 l 199 -62 q 107 -262 178 -192 q -83 -333 36 -333 q -194 -312 -139 -333 l -167 -222 l -83 -229 q 17 -187 -15 -229 q 67 -49 50 -146 l 179 625 m 413 857 l 264 993 l 67 857 l 18 919 l 236 1100 l 318 1107 l 481 919 l 413 857 z "},"Ķ":{"ha":896,"x_min":7,"x_max":986,"o":"m 533 0 l 547 83 l 653 110 l 472 444 l 335 444 l 282 111 l 400 83 l 386 0 l 7 0 l 21 83 l 143 111 l 264 861 l 147 889 l 160 965 l 540 972 l 526 889 l 403 861 l 353 556 l 481 556 l 781 965 l 986 972 l 972 889 l 854 861 l 592 510 l 810 111 l 908 83 l 894 0 l 533 0 m 383 -147 q 401 -78 383 -106 q 454 -51 418 -51 q 519 -118 519 -51 q 503 -189 519 -150 q 383 -358 464 -279 l 368 -375 l 329 -340 q 374 -274 363 -299 q 386 -208 386 -250 l 383 -147 z "},"ķ":{"ha":733,"x_min":76,"x_max":782,"o":"m 379 1069 l 279 451 l 382 453 l 532 638 l 472 653 l 483 729 l 782 736 l 768 653 l 664 635 l 472 410 q 546 282 500 386 l 619 111 l 740 76 l 726 0 l 522 0 l 428 231 q 378 329 397 304 q 318 354 358 354 l 264 354 l 208 0 l 76 0 l 231 958 l 113 986 l 125 1063 l 379 1069 m 283 -147 q 301 -78 283 -106 q 354 -51 318 -51 q 419 -118 419 -51 q 403 -189 419 -150 q 283 -358 364 -279 l 268 -375 l 229 -340 q 274 -274 263 -299 q 286 -208 286 -250 l 283 -147 z "},"Ĺ":{"ha":746,"x_min":14,"x_max":725,"o":"m 679 0 l 14 0 l 28 83 l 151 111 l 271 861 l 156 889 l 167 965 l 554 972 l 540 889 l 410 861 l 290 111 l 576 111 l 631 271 l 725 271 l 679 0 m 586 1168 l 269 1036 l 232 1113 l 535 1278 l 586 1168 z "},"ĺ":{"ha":515,"x_min":76,"x_max":453,"o":"m 229 958 l 113 986 l 125 1063 l 382 1069 l 229 111 l 349 90 l 336 14 l 76 0 l 229 958 m 453 1224 l 136 1092 l 99 1168 l 401 1333 l 453 1224 z "},"Ļ":{"ha":746,"x_min":14,"x_max":725,"o":"m 679 0 l 14 0 l 28 83 l 151 111 l 271 861 l 156 889 l 167 965 l 554 972 l 540 889 l 410 861 l 290 111 l 576 111 l 631 271 l 725 271 l 679 0 m 314 -147 q 331 -78 314 -106 q 385 -51 349 -51 q 450 -118 450 -51 q 433 -189 450 -150 q 314 -358 394 -279 l 299 -375 l 260 -340 q 305 -274 293 -299 q 317 -208 317 -250 l 314 -147 z "},"ļ":{"ha":446,"x_min":78,"x_max":383,"o":"m 78 0 l 231 958 l 114 986 l 126 1063 l 383 1069 l 231 111 l 350 90 l 338 14 l 78 0 m 140 -208 l 138 -147 q 155 -78 138 -106 q 208 -51 172 -51 q 274 -118 274 -51 q 235 -233 274 -169 q 160 -336 197 -297 l 122 -375 l 83 -340 q 128 -274 117 -299 q 140 -208 140 -250 z "},"Ŀ":{"ha":746,"x_min":14,"x_max":725,"o":"m 679 0 l 14 0 l 28 83 l 151 111 l 271 861 l 156 889 l 167 965 l 554 972 l 540 889 l 410 861 l 290 111 l 576 111 l 631 271 l 725 271 l 679 0 m 607 497 q 607 475 607 497 q 581 418 607 454 q 515 382 556 382 q 454 401 475 382 q 433 462 433 419 q 459 540 433 504 q 525 576 485 576 q 586 558 565 576 q 607 497 607 539 z "},"ŀ":{"ha":713,"x_min":76,"x_max":622,"o":"m 76 0 l 229 958 l 113 986 l 125 1063 l 382 1069 l 229 111 l 349 90 l 336 14 l 76 0 m 622 497 q 622 475 622 497 q 597 418 622 454 q 531 382 571 382 q 469 401 490 382 q 449 462 449 419 q 474 540 449 504 q 540 576 500 576 q 601 558 581 576 q 622 497 622 539 z "},"Ł":{"ha":750,"x_min":14,"x_max":725,"o":"m 32 428 l 607 656 l 619 551 l 44 324 l 32 428 m 679 0 l 14 0 l 28 83 l 151 111 l 271 861 l 156 889 l 167 965 l 554 972 l 540 889 l 410 861 l 290 111 l 576 111 l 631 271 l 725 271 l 679 0 z "},"ł":{"ha":501,"x_min":40,"x_max":514,"o":"m 40 467 l 503 667 l 514 563 l 53 364 l 40 467 m 76 0 l 229 958 l 113 986 l 125 1063 l 382 1069 l 229 111 l 349 90 l 336 14 l 76 0 z "},"Ń":{"ha":1092,"x_min":7,"x_max":1140,"o":"m 454 972 l 779 196 l 885 861 l 774 889 l 786 965 l 1140 972 l 1126 889 l 1008 861 l 872 0 l 715 0 l 376 782 l 269 111 l 383 83 l 368 0 l 7 0 l 22 83 l 146 111 l 265 861 l 150 889 l 163 965 l 454 972 m 911 1168 l 594 1036 l 557 1113 l 860 1278 l 911 1168 z "},"ń":{"ha":889,"x_min":76,"x_max":819,"o":"m 551 0 l 629 479 q 635 540 635 521 q 563 632 635 632 q 463 592 513 632 q 381 497 414 553 q 278 289 310 382 l 265 250 l 225 0 l 93 0 l 193 625 l 76 653 l 89 729 l 343 736 l 281 467 q 338 567 301 513 q 410 656 375 621 q 502 721 446 692 q 618 750 558 750 q 772 579 772 750 q 765 500 772 546 l 701 111 l 819 90 l 807 14 l 551 0 m 764 1011 l 461 838 l 418 911 l 704 1115 l 764 1011 z "},"Ņ":{"ha":1092,"x_min":7,"x_max":1140,"o":"m 163 965 l 454 972 l 779 196 l 885 861 l 774 889 l 786 965 l 1140 972 l 1126 889 l 1008 861 l 872 0 l 715 0 l 376 782 l 269 111 l 383 83 l 368 0 l 7 0 l 22 83 l 146 111 l 265 861 l 150 889 l 163 965 m 426 -208 l 424 -147 q 441 -78 424 -106 q 494 -51 458 -51 q 560 -118 560 -51 q 522 -233 560 -169 q 446 -336 483 -297 l 408 -375 l 369 -340 q 415 -274 403 -299 q 426 -208 426 -250 z "},"ņ":{"ha":889,"x_min":76,"x_max":819,"o":"m 551 0 l 629 479 q 635 540 635 521 q 563 632 635 632 q 463 592 513 632 q 381 497 414 553 q 278 289 310 382 l 265 250 l 225 0 l 93 0 l 193 625 l 76 653 l 89 729 l 343 736 l 281 467 q 338 567 301 513 q 410 656 375 621 q 502 721 446 692 q 618 750 558 750 q 772 579 772 750 q 765 500 772 546 l 701 111 l 819 90 l 807 14 l 551 0 m 319 -147 q 337 -78 319 -106 q 390 -51 354 -51 q 456 -118 456 -51 q 439 -189 456 -150 q 319 -358 400 -279 l 304 -375 l 265 -340 q 310 -274 299 -299 q 322 -208 322 -250 l 319 -147 z "},"Ň":{"ha":1092,"x_min":7,"x_max":1140,"o":"m 454 972 l 779 196 l 885 861 l 774 889 l 786 965 l 1140 972 l 1126 889 l 1008 861 l 872 0 l 715 0 l 376 782 l 269 111 l 383 83 l 368 0 l 7 0 l 22 83 l 146 111 l 265 861 l 150 889 l 163 965 l 454 972 m 618 1147 l 825 1267 l 863 1204 l 642 1043 l 561 1043 l 392 1204 l 458 1267 l 618 1147 z "},"ň":{"ha":889,"x_min":76,"x_max":819,"o":"m 551 0 l 629 479 q 635 540 635 521 q 563 632 635 632 q 463 592 513 632 q 381 497 414 553 q 278 289 310 382 l 265 250 l 225 0 l 93 0 l 193 625 l 76 653 l 89 729 l 343 736 l 281 467 q 338 567 301 513 q 410 656 375 621 q 502 721 446 692 q 618 750 558 750 q 772 579 772 750 q 765 500 772 546 l 701 111 l 819 90 l 807 14 l 551 0 m 546 960 l 753 1106 l 790 1043 l 569 856 l 489 856 l 319 1043 l 386 1106 l 546 960 z "},"Ō":{"ha":1028,"x_min":83,"x_max":979,"o":"m 418 -14 q 173 77 263 -14 q 83 325 83 168 q 238 801 83 617 q 628 986 393 986 q 886 892 793 986 q 979 646 979 799 q 820 167 979 347 q 418 -14 661 -14 m 826 628 q 767 809 826 750 q 604 868 708 868 q 339 713 442 868 q 236 339 236 558 q 292 164 236 224 q 449 104 349 104 q 720 253 614 104 q 826 628 826 403 m 458 1083 l 474 1188 l 840 1188 l 825 1083 l 458 1083 z "},"ō":{"ha":792,"x_min":56,"x_max":729,"o":"m 306 -14 q 124 58 192 -14 q 56 250 56 131 q 172 611 56 472 q 472 750 289 750 q 660 678 592 750 q 729 490 729 606 q 610 124 729 261 q 306 -14 492 -14 m 444 639 q 262 527 329 639 q 194 257 194 415 q 231 137 194 176 q 333 97 268 97 q 520 203 450 97 q 590 474 590 310 q 444 639 590 639 m 300 917 l 315 1021 l 682 1021 l 667 917 l 300 917 z "},"Ŏ":{"ha":1028,"x_min":83,"x_max":979,"o":"m 418 -14 q 173 77 263 -14 q 83 325 83 168 q 238 801 83 617 q 628 986 393 986 q 886 892 793 986 q 979 646 979 799 q 820 167 979 347 q 418 -14 661 -14 m 826 628 q 767 809 826 750 q 604 868 708 868 q 339 713 442 868 q 236 339 236 558 q 292 164 236 224 q 449 104 349 104 q 720 253 614 104 q 826 628 826 403 m 781 1250 l 863 1257 q 783 1107 849 1165 q 642 1049 717 1049 q 523 1097 567 1049 q 479 1214 479 1144 l 482 1250 l 564 1257 q 589 1183 564 1213 q 658 1153 614 1153 q 733 1177 701 1153 q 772 1225 764 1201 l 781 1250 z "},"ŏ":{"ha":792,"x_min":56,"x_max":729,"o":"m 306 -14 q 124 58 192 -14 q 56 250 56 131 q 172 611 56 472 q 472 750 289 750 q 660 678 592 750 q 729 490 729 606 q 610 124 729 261 q 306 -14 492 -14 m 333 97 q 520 203 450 97 q 590 474 590 310 q 444 639 590 639 q 262 527 329 639 q 194 257 194 415 q 231 137 194 176 q 333 97 268 97 m 629 1069 l 711 1076 q 631 926 697 985 q 490 868 565 868 q 372 916 415 868 q 328 1033 328 964 l 331 1069 l 413 1076 q 438 1002 413 1032 q 506 972 463 972 q 581 997 550 972 q 621 1044 613 1021 l 629 1069 z "},"ő":{"ha":788,"x_min":56,"x_max":864,"o":"m 306 -14 q 124 58 192 -14 q 56 250 56 131 q 172 611 56 472 q 472 750 289 750 q 660 678 592 750 q 729 490 729 606 q 610 124 729 261 q 306 -14 492 -14 m 444 639 q 262 527 329 639 q 194 257 194 415 q 231 137 194 176 q 333 97 268 97 q 520 203 450 97 q 590 474 590 310 q 444 639 590 639 m 864 1049 l 585 840 l 535 910 l 797 1139 l 864 1049 m 592 1049 l 313 840 l 263 910 l 525 1139 l 592 1049 z "},"Œ":{"ha":1306,"x_min":83,"x_max":1268,"o":"m 633 0 l 411 -14 q 173 83 263 -14 q 83 339 83 181 q 237 807 83 628 q 621 986 390 986 q 723 979 661 986 q 806 972 785 972 l 1268 972 l 1231 736 l 1153 736 l 1139 861 l 832 861 l 783 563 l 1100 563 l 1083 451 l 767 451 l 713 111 l 1028 111 l 1079 253 l 1171 253 l 1128 0 l 633 0 m 574 111 l 693 861 q 597 868 653 868 q 332 713 435 868 q 229 339 229 558 q 285 164 229 224 q 442 104 342 104 l 574 111 z "},"œ":{"ha":1214,"x_min":56,"x_max":1186,"o":"m 306 -14 q 124 58 192 -14 q 56 250 56 131 q 171 611 56 472 q 461 750 286 750 q 697 614 636 750 q 957 750 803 750 q 1124 701 1063 750 q 1186 569 1186 651 q 1055 378 1186 447 q 704 310 924 310 q 700 247 700 276 q 738 134 700 171 q 853 97 775 97 q 953 113 897 97 q 1042 144 1008 128 l 1075 160 l 1117 89 q 1073 60 1101 78 q 964 15 1044 43 q 811 -14 883 -14 q 596 119 647 -14 q 306 -14 482 -14 m 333 97 q 520 203 450 97 q 590 474 590 310 q 444 639 590 639 q 262 527 329 639 q 194 257 194 415 q 231 137 194 176 q 333 97 268 97 m 717 407 q 962 445 869 407 q 1054 556 1054 483 q 950 646 1054 646 q 810 578 875 646 q 717 407 744 511 z "},"Ŕ":{"ha":882,"x_min":7,"x_max":840,"o":"m 626 0 l 549 257 q 481 391 518 358 q 372 424 444 424 l 332 424 l 283 111 l 403 83 l 389 0 l 7 0 l 21 83 l 143 111 l 263 861 l 150 889 l 161 965 l 419 972 l 569 972 q 762 918 683 972 q 840 753 840 864 q 774 562 840 642 q 597 447 707 482 q 679 292 639 413 l 740 111 l 840 83 l 826 0 l 626 0 m 544 861 l 401 861 l 349 528 l 451 528 q 627 583 560 528 q 694 736 694 638 q 544 861 694 861 m 772 1168 l 456 1036 l 418 1113 l 721 1278 l 772 1168 z "},"ŕ":{"ha":614,"x_min":76,"x_max":669,"o":"m 658 736 l 617 528 l 526 528 l 526 625 q 441 588 483 625 q 369 497 399 550 q 281 301 308 386 l 269 264 l 225 0 l 93 0 l 194 625 l 76 653 l 89 729 l 344 736 l 290 494 q 400 667 335 600 q 481 724 431 699 q 589 750 532 750 q 658 736 619 750 m 669 1011 l 367 838 l 324 911 l 610 1115 l 669 1011 z "},"Ŗ":{"ha":882,"x_min":7,"x_max":840,"o":"m 626 0 l 549 257 q 481 391 518 358 q 372 424 444 424 l 332 424 l 283 111 l 403 83 l 389 0 l 7 0 l 21 83 l 143 111 l 263 861 l 150 889 l 161 965 l 419 972 l 569 972 q 762 918 683 972 q 840 753 840 864 q 774 562 840 642 q 597 447 707 482 q 679 292 639 413 l 740 111 l 840 83 l 826 0 l 626 0 m 544 861 l 401 861 l 349 528 l 451 528 q 627 583 560 528 q 694 736 694 638 q 544 861 694 861 m 442 -147 q 459 -78 442 -106 q 513 -51 476 -51 q 578 -118 578 -51 q 561 -189 578 -150 q 442 -358 522 -279 l 426 -375 l 388 -340 q 433 -274 421 -299 q 444 -208 444 -250 l 442 -147 z "},"ŗ":{"ha":606,"x_min":58,"x_max":661,"o":"m 661 736 l 619 528 l 529 528 l 529 625 q 444 588 486 625 q 372 497 401 550 q 283 301 311 386 l 272 264 l 228 0 l 96 0 l 197 625 l 79 653 l 92 729 l 347 736 l 293 494 q 403 667 338 600 q 484 724 433 699 q 592 750 535 750 q 661 736 622 750 m 113 -147 q 130 -78 113 -106 q 183 -51 147 -51 q 249 -118 249 -51 q 232 -189 249 -150 q 114 -358 193 -279 l 97 -375 l 58 -340 q 103 -274 92 -299 q 115 -208 115 -250 l 113 -147 z "},"Ř":{"ha":882,"x_min":7,"x_max":840,"o":"m 626 0 l 549 257 q 481 391 518 358 q 372 424 444 424 l 332 424 l 283 111 l 403 83 l 389 0 l 7 0 l 21 83 l 143 111 l 263 861 l 150 889 l 161 965 l 419 972 l 569 972 q 762 918 683 972 q 840 753 840 864 q 774 562 840 642 q 597 447 707 482 q 679 292 639 413 l 740 111 l 840 83 l 826 0 l 626 0 m 544 861 l 401 861 l 349 528 l 451 528 q 627 583 560 528 q 694 736 694 638 q 544 861 694 861 m 533 1147 l 740 1267 l 778 1204 l 557 1043 l 476 1043 l 307 1204 l 374 1267 l 533 1147 z "},"ř":{"ha":657,"x_min":76,"x_max":713,"o":"m 658 736 l 617 528 l 526 528 l 526 625 q 441 588 483 625 q 369 497 399 550 q 281 301 308 386 l 269 264 l 225 0 l 93 0 l 194 625 l 76 653 l 89 729 l 344 736 l 290 494 q 400 667 335 600 q 481 724 431 699 q 589 750 532 750 q 658 736 619 750 m 468 960 l 675 1106 l 713 1043 l 492 856 l 411 856 l 242 1043 l 308 1106 l 468 960 z "},"Ś":{"ha":822,"x_min":56,"x_max":781,"o":"m 190 133 l 208 126 q 336 104 267 104 q 488 150 419 104 q 556 269 556 196 q 478 383 556 342 q 372 431 443 403 q 242 504 300 460 q 164 674 164 564 q 271 906 164 826 q 511 986 378 986 q 781 931 644 986 l 736 694 l 658 694 l 639 843 l 619 850 q 503 868 561 868 q 365 826 417 868 q 313 722 313 783 q 450 581 313 635 q 566 531 508 557 q 664 454 624 504 q 704 332 704 404 q 647 141 704 222 q 503 23 589 60 q 297 -14 417 -14 q 56 42 178 -14 l 94 285 l 186 285 l 190 133 m 758 1168 l 442 1036 l 404 1113 l 707 1278 l 758 1168 z "},"ś":{"ha":638,"x_min":28,"x_max":617,"o":"m 263 88 q 295 88 263 88 q 368 117 326 88 q 410 205 410 146 q 303 314 410 264 q 212 360 257 335 q 135 427 167 385 q 104 528 104 469 q 183 694 104 638 q 374 750 263 750 q 590 715 486 750 l 557 528 l 467 528 l 458 636 q 351 649 418 649 q 272 624 308 649 q 236 549 236 599 q 346 429 236 482 q 438 382 392 407 q 517 317 485 357 q 549 222 549 276 q 463 50 549 114 q 251 -14 378 -14 q 28 21 125 -14 l 61 222 l 151 222 l 153 104 q 263 88 200 88 m 617 1011 l 314 838 l 271 911 l 557 1115 l 617 1011 z "},"Ŝ":{"ha":822,"x_min":56,"x_max":781,"o":"m 190 133 l 208 126 q 336 104 267 104 q 488 150 419 104 q 556 269 556 196 q 478 383 556 342 q 372 431 443 403 q 242 504 300 460 q 164 674 164 564 q 271 906 164 826 q 511 986 378 986 q 781 931 644 986 l 736 694 l 658 694 l 639 843 l 619 850 q 503 868 561 868 q 365 826 417 868 q 313 722 313 783 q 450 581 313 635 q 566 531 508 557 q 664 454 624 504 q 704 332 704 404 q 647 141 704 222 q 503 23 589 60 q 297 -14 417 -14 q 56 42 178 -14 l 94 285 l 186 285 l 190 133 m 696 1042 l 536 1157 l 329 1042 l 285 1104 l 508 1257 l 590 1264 l 761 1104 l 696 1042 z "},"ŝ":{"ha":643,"x_min":28,"x_max":636,"o":"m 263 88 q 295 88 263 88 q 368 117 326 88 q 410 205 410 146 q 303 314 410 264 q 212 360 257 335 q 135 427 167 385 q 104 528 104 469 q 183 694 104 638 q 374 750 263 750 q 590 715 486 750 l 557 528 l 467 528 l 458 636 q 351 649 418 649 q 272 624 308 649 q 236 549 236 599 q 346 429 236 482 q 438 382 392 407 q 517 317 485 357 q 549 222 549 276 q 463 50 549 114 q 251 -14 378 -14 q 28 21 125 -14 l 61 222 l 151 222 l 153 104 q 263 88 200 88 m 572 857 l 413 993 l 206 857 l 160 919 l 385 1100 l 467 1107 l 636 919 l 572 857 z "},"Ş":{"ha":822,"x_min":56,"x_max":781,"o":"m 186 285 l 190 133 q 337 104 254 104 q 488 150 419 104 q 556 272 556 196 q 478 383 556 342 q 401 419 443 403 q 318 457 360 436 q 242 504 276 478 q 164 674 164 564 q 271 906 164 826 q 525 986 378 986 q 642 972 578 986 q 743 944 706 958 l 781 931 l 736 694 l 658 694 l 639 843 q 492 868 568 868 q 365 826 417 868 q 313 728 313 783 q 353 638 313 672 q 451 580 393 603 q 566 531 508 557 q 664 454 624 504 q 704 332 704 404 q 647 142 704 222 q 315 -14 536 -14 q 190 0 254 -14 q 90 28 125 14 l 56 42 l 94 285 l 186 285 m 200 -215 q 283 -237 243 -237 q 348 -219 324 -237 q 372 -169 372 -200 q 271 -110 372 -110 l 289 0 l 371 0 l 361 -60 q 461 -160 461 -78 q 414 -262 461 -221 q 314 -304 367 -304 q 174 -281 217 -304 l 158 -272 l 200 -215 z "},"ş":{"ha":646,"x_min":28,"x_max":590,"o":"m 151 222 l 153 104 q 260 88 194 88 q 368 117 326 88 q 410 192 410 146 q 378 265 410 238 q 302 314 347 293 q 212 360 257 335 q 135 427 167 385 q 104 528 104 469 q 183 694 104 638 q 385 750 263 750 q 561 725 478 750 l 590 715 l 557 528 l 467 528 l 458 636 q 368 649 428 649 q 272 624 308 649 q 236 555 236 599 q 268 481 236 511 q 346 429 300 451 q 438 382 392 407 q 517 317 485 357 q 549 222 549 276 q 463 50 549 114 q 236 -14 378 -14 q 56 11 132 -14 l 28 21 l 61 222 l 151 222 m 135 -215 q 218 -237 178 -237 q 283 -219 258 -237 q 307 -169 307 -200 q 206 -110 307 -110 l 224 0 l 306 0 l 296 -60 q 396 -160 396 -78 q 349 -262 396 -221 q 249 -304 301 -304 q 108 -281 151 -304 l 93 -272 l 135 -215 z "},"Š":{"ha":869,"x_min":56,"x_max":828,"o":"m 190 133 l 208 126 q 336 104 267 104 q 488 150 419 104 q 556 269 556 196 q 478 383 556 342 q 372 431 443 403 q 242 504 300 460 q 164 674 164 564 q 271 906 164 826 q 511 986 378 986 q 781 931 644 986 l 736 694 l 658 694 l 639 843 l 619 850 q 503 868 561 868 q 365 826 417 868 q 313 722 313 783 q 450 581 313 635 q 566 531 508 557 q 664 454 624 504 q 704 332 704 404 q 647 141 704 222 q 503 23 589 60 q 297 -14 417 -14 q 56 42 178 -14 l 94 285 l 186 285 l 190 133 m 583 1147 l 790 1267 l 828 1204 l 607 1043 l 526 1043 l 357 1204 l 424 1267 l 583 1147 z "},"š":{"ha":639,"x_min":28,"x_max":653,"o":"m 263 88 q 295 88 263 88 q 368 117 326 88 q 410 205 410 146 q 303 314 410 264 q 212 360 257 335 q 135 427 167 385 q 104 528 104 469 q 183 694 104 638 q 374 750 263 750 q 590 715 486 750 l 557 528 l 467 528 l 458 636 q 351 649 418 649 q 272 624 308 649 q 236 549 236 599 q 346 429 236 482 q 438 382 392 407 q 517 317 485 357 q 549 222 549 276 q 463 50 549 114 q 251 -14 378 -14 q 28 21 125 -14 l 61 222 l 151 222 l 153 104 q 263 88 200 88 m 408 960 l 615 1106 l 653 1043 l 432 856 l 351 856 l 182 1043 l 249 1106 l 408 960 z "},"Ţ":{"ha":747,"x_min":49,"x_max":838,"o":"m 90 972 l 838 972 l 797 722 l 708 722 l 694 861 l 515 861 l 396 111 l 529 83 l 515 0 l 100 0 l 114 83 l 257 111 l 376 861 l 196 861 l 139 722 l 49 722 l 90 972 m 172 -147 q 190 -78 172 -106 q 243 -51 207 -51 q 308 -118 308 -51 q 292 -189 308 -150 q 172 -358 253 -279 l 157 -375 l 118 -340 q 163 -274 151 -299 q 175 -208 175 -250 l 172 -147 z "},"ţ":{"ha":526,"x_min":76,"x_max":554,"o":"m 444 125 l 467 50 q 285 -14 363 -14 q 144 151 144 -14 q 153 240 144 192 l 214 625 l 76 625 l 92 715 l 231 729 l 258 904 l 396 932 l 363 729 l 554 729 l 538 625 l 346 625 l 286 254 q 278 165 278 200 q 290 113 278 129 q 325 97 303 97 q 425 118 367 97 l 444 125 m 161 -147 q 178 -78 161 -106 q 232 -51 196 -51 q 297 -118 297 -51 q 281 -189 297 -150 q 161 -358 242 -279 l 146 -375 l 107 -340 q 152 -274 140 -299 q 164 -208 164 -250 l 161 -147 z "},"Ť":{"ha":747,"x_min":49,"x_max":838,"o":"m 90 972 l 838 972 l 797 722 l 708 722 l 694 861 l 515 861 l 396 111 l 529 83 l 515 0 l 100 0 l 114 83 l 257 111 l 376 861 l 196 861 l 139 722 l 49 722 l 90 972 m 421 1147 l 628 1267 l 665 1204 l 444 1043 l 364 1043 l 194 1204 l 261 1267 l 421 1147 z "},"Ũ":{"ha":1021,"x_min":104,"x_max":1083,"o":"m 953 861 l 881 410 q 747 94 849 203 q 440 -14 644 -14 q 206 59 276 -14 q 135 264 135 132 q 144 375 135 307 l 222 861 l 104 889 l 117 965 l 497 972 l 483 889 l 363 861 l 285 375 q 276 279 276 325 q 319 149 276 194 q 476 104 361 104 q 651 171 590 104 q 738 396 713 238 l 813 861 l 688 889 l 700 965 l 1083 972 l 1069 889 l 953 861 m 401 1064 l 361 1106 q 390 1146 368 1118 q 431 1192 411 1174 q 531 1236 481 1236 q 651 1204 581 1236 q 753 1172 721 1172 q 809 1187 785 1172 q 844 1217 833 1201 l 857 1231 l 899 1189 q 847 1119 878 1149 q 736 1064 786 1064 q 616 1094 686 1064 q 514 1125 546 1125 q 417 1079 460 1125 l 401 1064 z "},"ũ":{"ha":878,"x_min":63,"x_max":808,"o":"m 540 0 l 597 269 q 542 170 579 224 q 470 80 506 117 q 378 15 435 43 q 264 -14 322 -14 q 110 156 110 -14 q 117 236 110 188 l 181 625 l 63 653 l 75 729 l 329 736 l 253 257 q 247 196 247 213 q 319 104 247 104 q 421 144 371 104 q 504 239 471 183 q 603 447 575 360 l 615 486 l 657 736 l 789 736 l 689 111 l 808 90 l 796 14 l 540 0 m 285 882 l 246 931 q 274 971 253 943 q 315 1017 296 999 q 415 1061 365 1061 q 531 1029 465 1061 q 628 997 597 997 q 685 1012 660 997 q 722 1042 710 1026 l 735 1056 l 775 1007 q 724 938 754 967 q 613 882 663 882 q 496 913 563 882 q 397 943 429 943 q 339 928 365 943 q 299 897 313 913 l 285 882 z "},"Ū":{"ha":1021,"x_min":104,"x_max":1083,"o":"m 953 861 l 881 410 q 747 94 849 203 q 440 -14 644 -14 q 206 59 276 -14 q 135 264 135 132 q 144 375 135 307 l 222 861 l 104 889 l 117 965 l 497 972 l 483 889 l 363 861 l 285 375 q 276 279 276 325 q 319 149 276 194 q 476 104 361 104 q 651 171 590 104 q 738 396 713 238 l 813 861 l 688 889 l 700 965 l 1083 972 l 1069 889 l 953 861 m 432 1083 l 447 1188 l 814 1188 l 799 1083 l 432 1083 z "},"ū":{"ha":878,"x_min":63,"x_max":808,"o":"m 540 0 l 597 269 q 542 170 579 224 q 470 80 506 117 q 378 15 435 43 q 264 -14 322 -14 q 110 156 110 -14 q 117 236 110 188 l 181 625 l 63 653 l 75 729 l 329 736 l 253 257 q 247 196 247 213 q 319 104 247 104 q 421 144 371 104 q 504 239 471 183 q 603 447 575 360 l 615 486 l 657 736 l 789 736 l 689 111 l 808 90 l 796 14 l 540 0 m 307 917 l 322 1021 l 689 1021 l 674 917 l 307 917 z "},"Ŭ":{"ha":1021,"x_min":104,"x_max":1083,"o":"m 953 861 l 881 410 q 747 94 849 203 q 440 -14 644 -14 q 206 59 276 -14 q 135 264 135 132 q 144 375 135 307 l 222 861 l 104 889 l 117 965 l 497 972 l 483 889 l 363 861 l 285 375 q 276 279 276 325 q 319 149 276 194 q 476 104 361 104 q 651 171 590 104 q 738 396 713 238 l 813 861 l 688 889 l 700 965 l 1083 972 l 1069 889 l 953 861 m 729 1250 l 811 1257 q 731 1107 797 1165 q 590 1049 665 1049 q 472 1097 515 1049 q 428 1214 428 1144 l 431 1250 l 513 1257 q 538 1183 513 1213 q 606 1153 563 1153 q 681 1177 650 1153 q 721 1225 713 1201 l 729 1250 z "},"ŭ":{"ha":878,"x_min":63,"x_max":808,"o":"m 540 0 l 597 269 q 542 170 579 224 q 470 80 506 117 q 378 15 435 43 q 264 -14 322 -14 q 110 156 110 -14 q 117 236 110 188 l 181 625 l 63 653 l 75 729 l 329 736 l 253 257 q 247 196 247 213 q 319 104 247 104 q 421 144 371 104 q 504 239 471 183 q 603 447 575 360 l 615 486 l 657 736 l 789 736 l 689 111 l 808 90 l 796 14 l 540 0 m 629 1069 l 711 1076 q 631 926 697 985 q 490 868 565 868 q 372 916 415 868 q 328 1033 328 964 l 331 1069 l 413 1076 q 438 1002 413 1032 q 506 972 463 972 q 581 997 550 972 q 621 1044 613 1021 l 629 1069 z "},"Ů":{"ha":1021,"x_min":104,"x_max":1083,"o":"m 953 861 l 881 410 q 747 94 849 203 q 440 -14 644 -14 q 206 59 276 -14 q 135 264 135 132 q 144 375 135 307 l 222 861 l 104 889 l 117 965 l 497 972 l 483 889 l 363 861 l 285 375 q 276 279 276 325 q 319 149 276 194 q 476 104 361 104 q 651 171 590 104 q 738 396 713 238 l 813 861 l 688 889 l 700 965 l 1083 972 l 1069 889 l 953 861 m 629 989 q 597 989 629 989 q 526 1024 564 989 q 488 1124 488 1058 q 543 1245 488 1189 q 663 1301 599 1301 q 766 1267 726 1301 q 806 1167 806 1233 q 750 1045 806 1101 q 629 989 694 989 m 661 1232 q 595 1199 621 1232 q 569 1124 569 1167 q 633 1058 569 1058 q 699 1091 674 1058 q 724 1167 724 1124 q 661 1232 724 1232 z "},"ů":{"ha":878,"x_min":63,"x_max":808,"o":"m 540 0 l 597 269 q 542 170 579 224 q 470 80 506 117 q 378 15 435 43 q 264 -14 322 -14 q 110 156 110 -14 q 117 236 110 188 l 181 625 l 63 653 l 75 729 l 329 736 l 253 257 q 247 196 247 213 q 319 104 247 104 q 421 144 371 104 q 504 239 471 183 q 603 447 575 360 l 615 486 l 657 736 l 789 736 l 689 111 l 808 90 l 796 14 l 540 0 m 479 826 q 447 826 479 826 q 376 861 414 826 q 338 961 338 896 q 393 1083 338 1026 q 513 1139 449 1139 q 616 1105 576 1139 q 656 1005 656 1071 q 600 883 656 939 q 479 826 544 826 m 511 1069 q 445 1037 471 1069 q 419 961 419 1004 q 483 896 419 896 q 549 928 524 896 q 574 1004 574 961 q 511 1069 574 1069 z "},"ű":{"ha":960,"x_min":63,"x_max":890,"o":"m 540 0 l 597 269 q 542 170 579 224 q 470 80 506 117 q 378 15 435 43 q 264 -14 322 -14 q 110 156 110 -14 q 117 236 110 188 l 181 625 l 63 653 l 75 729 l 329 736 l 253 257 q 247 196 247 213 q 319 104 247 104 q 421 144 371 104 q 504 239 471 183 q 603 447 575 360 l 615 486 l 657 736 l 789 736 l 689 111 l 808 90 l 796 14 l 540 0 m 890 1049 l 611 840 l 561 910 l 824 1139 l 890 1049 m 618 1049 l 339 840 l 289 910 l 551 1139 l 618 1049 z "},"Ų":{"ha":1021,"x_min":104,"x_max":1083,"o":"m 953 861 l 881 410 q 747 94 849 203 q 440 -14 644 -14 q 206 59 276 -14 q 135 264 135 132 q 144 375 135 307 l 222 861 l 104 889 l 117 965 l 497 972 l 483 889 l 363 861 l 285 375 q 276 279 276 325 q 319 149 276 194 q 476 104 361 104 q 651 171 590 104 q 738 396 713 238 l 813 861 l 688 889 l 700 965 l 1083 972 l 1069 889 l 953 861 m 465 0 l 574 0 q 556 -10 567 -4 q 517 -37 544 -17 q 467 -78 489 -58 q 410 -172 410 -129 q 424 -209 410 -196 q 463 -222 439 -222 l 526 -212 l 529 -278 q 418 -306 471 -306 q 332 -278 365 -306 q 299 -198 299 -250 q 340 -96 299 -146 q 424 -22 382 -46 l 465 0 z "},"ų":{"ha":878,"x_min":63,"x_max":808,"o":"m 540 0 l 794 14 q 653 -31 735 0 q 485 -172 485 -93 q 500 -209 485 -196 q 539 -222 515 -222 l 603 -212 l 603 -278 q 492 -306 544 -306 q 407 -276 440 -306 q 374 -188 374 -246 q 421 -85 374 -131 q 540 0 468 -39 m 540 0 l 597 269 q 542 170 579 224 q 470 80 506 117 q 378 15 435 43 q 264 -14 322 -14 q 110 156 110 -14 q 117 236 110 188 l 181 625 l 63 653 l 75 729 l 329 736 l 253 257 q 247 196 247 213 q 319 104 247 104 q 421 144 371 104 q 504 239 471 183 q 603 447 575 360 l 615 486 l 657 736 l 789 736 l 689 111 l 808 90 l 796 14 l 540 0 z "},"Ŵ":{"ha":1364,"x_min":63,"x_max":1461,"o":"m 332 0 l 179 861 l 63 889 l 75 965 l 321 972 l 321 971 l 322 972 l 426 257 l 735 965 l 822 972 l 933 247 l 1194 861 l 1075 889 l 1089 965 l 1461 972 l 1447 889 l 1340 863 l 942 0 l 854 0 l 733 674 l 675 532 l 422 0 l 332 0 m 950 1042 l 790 1157 l 583 1042 l 539 1104 l 763 1257 l 844 1264 l 1015 1104 l 950 1042 z "},"ŵ":{"ha":1097,"x_min":28,"x_max":1146,"o":"m 1132 653 l 1064 636 l 785 0 l 625 0 l 561 472 l 543 403 l 388 0 l 231 0 l 131 632 l 28 653 l 40 729 l 264 736 l 333 132 l 560 729 l 658 736 l 729 132 l 933 626 l 813 653 l 825 729 l 1146 736 l 1132 653 m 847 857 l 688 993 l 481 857 l 435 919 l 660 1100 l 742 1107 l 911 919 l 847 857 z "},"Ŷ":{"ha":846,"x_min":56,"x_max":936,"o":"m 292 111 l 331 364 l 186 861 l 56 889 l 68 965 l 297 972 l 436 464 l 669 863 l 565 889 l 579 965 l 936 972 l 922 889 l 807 861 l 464 321 l 431 111 l 546 83 l 532 0 l 153 0 l 167 83 l 292 111 m 640 1042 l 481 1157 l 274 1042 l 229 1104 l 453 1257 l 535 1264 l 706 1104 l 640 1042 z "},"ŷ":{"ha":792,"x_min":-7,"x_max":813,"o":"m 799 653 l 721 631 l 474 46 q 317 -256 379 -178 q 150 -333 254 -333 q 14 -317 79 -333 l -7 -311 l 21 -222 q 136 -229 76 -229 q 234 -192 196 -229 q 315 -54 272 -154 l 135 626 l 28 653 l 40 729 l 264 736 l 381 226 l 393 132 l 599 628 l 494 653 l 507 729 l 813 736 l 799 653 m 588 857 l 428 993 l 221 857 l 175 919 l 400 1100 l 482 1107 l 651 919 l 588 857 z "},"Ÿ":{"ha":846,"x_min":56,"x_max":936,"o":"m 292 111 l 331 364 l 186 861 l 56 889 l 68 965 l 297 972 l 436 464 l 669 863 l 565 889 l 579 965 l 936 972 l 922 889 l 807 861 l 464 321 l 431 111 l 546 83 l 532 0 l 153 0 l 167 83 l 292 111 m 633 1063 q 571 1132 571 1063 q 596 1199 571 1168 q 660 1229 621 1229 q 724 1165 724 1229 q 697 1093 724 1124 q 633 1063 671 1063 m 354 1063 q 292 1132 292 1063 q 317 1199 292 1168 q 381 1229 342 1229 q 444 1165 444 1229 q 418 1093 444 1124 q 354 1063 392 1063 z "},"Ź":{"ha":860,"x_min":63,"x_max":832,"o":"m 181 972 l 832 972 l 825 881 l 243 111 l 615 111 l 665 253 l 757 253 l 717 0 l 63 0 l 69 97 l 647 860 l 281 860 l 225 736 l 147 736 l 181 972 m 711 1168 l 394 1036 l 357 1113 l 660 1278 l 711 1168 z "},"ź":{"ha":660,"x_min":14,"x_max":639,"o":"m 121 736 l 639 736 l 632 646 l 189 108 l 450 108 l 494 222 l 578 222 l 549 0 l 14 0 l 21 97 l 465 632 l 224 632 l 179 528 l 89 528 l 121 736 m 568 1011 l 265 838 l 222 911 l 508 1115 l 568 1011 z "},"Ż":{"ha":860,"x_min":63,"x_max":832,"o":"m 181 972 l 832 972 l 825 881 l 243 111 l 615 111 l 665 253 l 757 253 l 717 0 l 63 0 l 69 97 l 647 860 l 281 860 l 225 736 l 147 736 l 181 972 m 597 1177 q 597 1156 597 1177 q 572 1099 597 1135 q 506 1063 546 1063 q 444 1081 465 1063 q 424 1142 424 1100 q 449 1221 424 1185 q 515 1257 475 1257 q 576 1238 556 1257 q 597 1177 597 1219 z "},"ż":{"ha":660,"x_min":14,"x_max":639,"o":"m 121 736 l 639 736 l 632 646 l 189 108 l 450 108 l 494 222 l 578 222 l 549 0 l 14 0 l 21 97 l 465 632 l 224 632 l 179 528 l 89 528 l 121 736 m 447 983 q 447 961 447 983 q 422 904 447 940 q 356 868 396 868 q 294 887 315 868 q 274 948 274 906 q 299 1026 274 990 q 365 1063 325 1063 q 426 1044 406 1063 q 447 983 447 1025 z "},"Ž":{"ha":860,"x_min":63,"x_max":832,"o":"m 181 972 l 832 972 l 825 881 l 243 111 l 615 111 l 665 253 l 757 253 l 717 0 l 63 0 l 69 97 l 647 860 l 281 860 l 225 736 l 147 736 l 181 972 m 504 1147 l 711 1267 l 749 1204 l 528 1043 l 447 1043 l 278 1204 l 344 1267 l 504 1147 z "},"ž":{"ha":660,"x_min":14,"x_max":639,"o":"m 121 736 l 639 736 l 632 646 l 189 108 l 450 108 l 494 222 l 578 222 l 549 0 l 14 0 l 21 97 l 465 632 l 224 632 l 179 528 l 89 528 l 121 736 m 386 960 l 593 1106 l 631 1043 l 410 856 l 329 856 l 160 1043 l 226 1106 l 386 960 z "},"ƒ":{"ha":590,"x_min":-181,"x_max":674,"o":"m 538 522 l 338 522 l 208 -7 q 109 -211 174 -144 q -87 -278 44 -278 q -181 -264 -128 -278 l -160 -167 l -85 -167 q 11 -135 -19 -167 q 58 -35 42 -103 l 194 522 l 78 522 l 93 610 l 219 625 l 267 813 q 369 1019 301 956 q 563 1083 438 1083 q 656 1072 604 1083 l 674 1069 l 651 972 l 561 972 q 465 940 496 972 q 417 840 433 908 l 364 625 l 556 625 l 538 522 z "},"Ǻ":{"ha":1001,"x_min":-35,"x_max":939,"o":"m 689 111 l 661 264 l 307 264 l 231 110 l 347 83 l 333 0 l -35 0 l -22 83 l 96 111 l 540 965 l 678 972 l 844 107 l 939 83 l 925 0 l 557 0 l 569 83 l 689 111 m 571 793 l 361 375 l 642 375 l 571 793 m 481 1081 q 481 1048 481 1081 q 519 981 481 1015 q 622 946 557 946 q 743 1002 688 946 q 799 1124 799 1058 q 759 1224 799 1190 q 656 1258 719 1258 q 536 1202 592 1258 q 481 1081 481 1146 m 654 1189 q 717 1124 717 1189 q 692 1048 717 1081 q 626 1015 667 1015 q 563 1081 563 1015 q 588 1156 563 1124 q 654 1189 614 1189 m 856 1404 l 539 1272 l 501 1349 l 804 1514 l 856 1404 z "},"Ǽ":{"ha":1332,"x_min":-57,"x_max":1299,"o":"m 465 0 l 479 83 l 606 111 l 633 285 l 335 285 l 219 107 l 324 83 l 310 0 l -57 0 l -43 83 l 81 111 l 576 861 l 464 889 l 476 965 l 650 972 l 1299 972 l 1261 736 l 1174 736 l 1158 861 l 867 861 l 819 563 l 1132 563 l 1115 451 l 803 451 l 749 111 l 1061 111 l 1110 250 l 1199 250 l 1158 0 l 465 0 m 406 396 l 650 396 l 724 861 l 704 861 l 406 396 m 1175 1168 l 858 1036 l 821 1113 l 1124 1278 l 1175 1168 z "},"Ș":{"ha":822,"x_min":56,"x_max":781,"o":"m 186 285 l 190 133 q 337 104 254 104 q 488 150 419 104 q 556 272 556 196 q 478 383 556 342 q 401 419 443 403 q 318 457 360 436 q 242 504 276 478 q 164 674 164 564 q 271 906 164 826 q 525 986 378 986 q 642 972 578 986 q 743 944 706 958 l 781 931 l 736 694 l 658 694 l 639 843 q 492 868 568 868 q 365 826 417 868 q 313 728 313 783 q 353 638 313 672 q 451 580 393 603 q 566 531 508 557 q 664 454 624 504 q 704 332 704 404 q 647 142 704 222 q 315 -14 536 -14 q 190 0 254 -14 q 90 28 125 14 l 56 42 l 94 285 l 186 285 m 276 -208 l 274 -147 q 291 -78 274 -106 q 344 -51 308 -51 q 410 -118 410 -51 q 372 -233 410 -169 q 297 -336 335 -297 l 258 -375 l 219 -340 q 265 -274 253 -299 q 276 -208 276 -250 z "},"ș":{"ha":646,"x_min":28,"x_max":590,"o":"m 151 222 l 153 104 q 260 88 194 88 q 368 117 326 88 q 410 192 410 146 q 378 265 410 238 q 302 314 347 293 q 212 360 257 335 q 135 427 167 385 q 104 528 104 469 q 183 694 104 638 q 385 750 263 750 q 561 725 478 750 l 590 715 l 557 528 l 467 528 l 458 636 q 368 649 428 649 q 272 624 308 649 q 236 555 236 599 q 268 481 236 511 q 346 429 300 451 q 438 382 392 407 q 517 317 485 357 q 549 222 549 276 q 463 50 549 114 q 236 -14 378 -14 q 56 11 132 -14 l 28 21 l 61 222 l 151 222 m 192 -208 l 189 -147 q 206 -78 189 -106 q 260 -51 224 -51 q 325 -118 325 -51 q 288 -233 325 -169 q 211 -336 250 -297 l 174 -375 l 135 -340 q 180 -274 168 -299 q 192 -208 192 -250 z "},"ȷ":{"ha":374,"x_min":-194,"x_max":332,"o":"m 67 -49 l 179 625 l 60 653 l 74 729 l 332 736 l 199 -62 q 107 -262 178 -192 q -83 -333 36 -333 q -179 -317 -129 -333 l -194 -312 l -167 -222 q -74 -229 -132 -229 q 17 -187 -15 -229 q 67 -49 50 -146 z "},"ˆ":{"ha":476,"x_min":0,"x_max":476,"o":"m 413 857 l 253 993 l 46 857 l 0 919 l 225 1100 l 307 1107 l 476 919 l 413 857 z "},"ˇ":{"ha":471,"x_min":0,"x_max":471,"o":"m 226 960 l 433 1106 l 471 1043 l 250 856 l 169 856 l 0 1043 l 67 1106 l 226 960 z "},"˘":{"ha":611,"x_min":128,"x_max":511,"o":"m 429 1069 l 511 1076 q 431 926 497 985 q 290 868 365 868 q 172 916 215 868 q 128 1033 128 964 l 131 1069 l 213 1076 q 238 1002 213 1032 q 306 972 263 972 q 381 997 350 972 q 421 1044 413 1021 l 429 1069 z "},"˙":{"ha":174,"x_min":0,"x_max":174,"o":"m 174 983 q 174 961 174 983 q 148 904 174 940 q 82 868 122 868 q 21 887 42 868 q 0 948 0 906 q 26 1026 0 990 q 92 1063 51 1063 q 153 1044 132 1063 q 174 983 174 1025 z "},"˚":{"ha":542,"x_min":111,"x_max":429,"o":"m 253 826 q 220 826 253 826 q 149 861 188 826 q 111 961 111 896 q 167 1083 111 1026 q 286 1139 222 1139 q 390 1105 350 1139 q 429 1005 429 1071 q 374 883 429 939 q 253 826 318 826 m 285 1069 q 219 1037 244 1069 q 193 961 193 1004 q 257 896 193 896 q 322 928 297 896 q 347 1004 347 961 q 285 1069 347 1069 z "},"˛":{"ha":431,"x_min":93,"x_max":368,"o":"m 260 0 l 368 0 q 350 -10 361 -4 q 311 -37 339 -17 q 261 -78 283 -58 q 204 -172 204 -129 q 219 -209 204 -196 q 257 -222 233 -222 l 321 -212 l 324 -278 q 213 -306 265 -306 q 126 -278 160 -306 q 93 -198 93 -250 q 135 -96 93 -146 q 218 -22 176 -46 l 260 0 z "},"˜":{"ha":529,"x_min":0,"x_max":529,"o":"m 39 882 l 0 931 q 28 971 7 943 q 69 1017 50 999 q 169 1061 119 1061 q 285 1029 219 1061 q 383 997 351 997 q 439 1012 414 997 q 476 1042 464 1026 l 489 1056 l 529 1007 q 478 938 508 967 q 367 882 417 882 q 250 913 317 882 q 151 943 183 943 q 93 928 119 943 q 53 897 67 913 l 39 882 z "},"˝":{"ha":806,"x_min":110,"x_max":711,"o":"m 711 1049 l 432 840 l 382 910 l 644 1139 l 711 1049 m 439 1049 l 160 840 l 110 910 l 372 1139 l 439 1049 z "},"Δ":{"ha":889,"x_min":-42,"x_max":826,"o":"m -25 99 l 476 1000 l 610 1000 l 826 97 l 810 0 l -42 0 l -25 99 m 513 843 l 110 111 l 682 111 l 513 843 z "},"Ω":{"ha":1076,"x_min":42,"x_max":979,"o":"m 404 90 l 389 0 l 42 0 l 60 111 l 240 111 q 135 310 165 186 q 122 414 122 361 q 180 689 122 561 q 357 901 238 817 q 638 986 476 986 q 890 892 800 986 q 979 631 979 799 q 953 451 979 539 q 890 306 928 364 q 753 133 811 182 l 728 113 l 913 118 l 893 0 l 546 0 l 561 90 q 649 158 596 107 q 739 264 703 208 q 804 416 775 319 q 833 624 833 513 q 774 801 833 735 q 619 868 715 868 q 453 828 522 868 q 344 721 385 789 q 264 392 264 585 q 356 131 264 225 q 390 99 376 108 q 404 90 403 90 z "},"π":{"ha":943,"x_min":97,"x_max":881,"o":"m 735 94 q 818 111 768 94 l 842 42 q 669 -14 764 -14 q 579 20 615 -14 q 543 129 543 54 q 549 188 543 158 l 618 625 l 340 625 l 240 0 l 108 0 l 208 625 l 97 653 l 108 729 l 360 736 l 881 736 l 867 653 l 750 632 l 681 179 q 678 153 678 160 q 735 94 678 94 z "},"Ẁ":{"ha":1364,"x_min":63,"x_max":1461,"o":"m 332 0 l 179 861 l 63 889 l 75 965 l 321 972 l 321 971 l 322 972 l 426 257 l 735 965 l 822 972 l 933 247 l 1194 861 l 1075 889 l 1089 965 l 1461 972 l 1447 889 l 1340 863 l 942 0 l 854 0 l 733 674 l 675 532 l 422 0 l 332 0 m 836 1033 l 519 1169 l 571 1279 l 874 1110 l 836 1033 z "},"ẁ":{"ha":1097,"x_min":28,"x_max":1146,"o":"m 1132 653 l 1064 636 l 785 0 l 625 0 l 561 472 l 543 403 l 388 0 l 231 0 l 131 632 l 28 653 l 40 729 l 264 736 l 333 132 l 560 729 l 658 736 l 729 132 l 933 626 l 813 653 l 825 729 l 1146 736 l 1132 653 m 740 838 l 438 1011 l 497 1115 l 783 911 l 740 838 z "},"Ẃ":{"ha":1364,"x_min":63,"x_max":1461,"o":"m 332 0 l 179 861 l 63 889 l 75 965 l 321 972 l 321 971 l 322 972 l 426 257 l 735 965 l 822 972 l 933 247 l 1194 861 l 1075 889 l 1089 965 l 1461 972 l 1447 889 l 1340 863 l 942 0 l 854 0 l 733 674 l 675 532 l 422 0 l 332 0 m 929 1168 l 613 1036 l 575 1113 l 878 1278 l 929 1168 z "},"ẃ":{"ha":1097,"x_min":28,"x_max":1146,"o":"m 1132 653 l 1064 636 l 785 0 l 625 0 l 561 472 l 543 403 l 388 0 l 231 0 l 131 632 l 28 653 l 40 729 l 264 736 l 333 132 l 560 729 l 658 736 l 729 132 l 933 626 l 813 653 l 825 729 l 1146 736 l 1132 653 m 815 1011 l 513 838 l 469 911 l 756 1115 l 815 1011 z "},"Ẅ":{"ha":1364,"x_min":63,"x_max":1461,"o":"m 332 0 l 179 861 l 63 889 l 75 965 l 321 972 l 321 971 l 322 972 l 426 257 l 735 965 l 822 972 l 933 247 l 1194 861 l 1075 889 l 1089 965 l 1461 972 l 1447 889 l 1340 863 l 942 0 l 854 0 l 733 674 l 675 532 l 422 0 l 332 0 m 911 1063 q 849 1132 849 1063 q 874 1199 849 1168 q 938 1229 899 1229 q 1001 1165 1001 1229 q 975 1093 1001 1124 q 911 1063 949 1063 m 632 1063 q 569 1132 569 1063 q 594 1199 569 1168 q 658 1229 619 1229 q 722 1165 722 1229 q 696 1093 722 1124 q 632 1063 669 1063 z "},"ẅ":{"ha":1097,"x_min":28,"x_max":1146,"o":"m 1132 653 l 1064 636 l 785 0 l 625 0 l 561 472 l 543 403 l 388 0 l 231 0 l 131 632 l 28 653 l 40 729 l 264 736 l 333 132 l 560 729 l 658 736 l 729 132 l 933 626 l 813 653 l 825 729 l 1146 736 l 1132 653 m 811 889 q 749 958 749 889 q 774 1025 749 994 q 838 1056 799 1056 q 901 992 901 1056 q 875 919 901 950 q 811 889 849 889 m 532 889 q 469 958 469 889 q 494 1025 469 994 q 558 1056 519 1056 q 622 992 622 1056 q 596 919 622 950 q 532 889 569 889 z "},"Ẽ":{"ha":804,"x_min":7,"x_max":839,"o":"m 143 111 l 263 861 l 149 889 l 161 965 l 419 972 l 838 972 l 800 736 l 722 736 l 708 861 l 401 861 l 353 563 l 669 563 l 653 451 l 336 451 l 282 111 l 597 111 l 649 253 l 740 253 l 697 0 l 7 0 l 21 83 l 143 111 m 342 1064 l 301 1106 q 330 1146 308 1118 q 371 1192 351 1174 q 471 1236 421 1236 q 591 1204 521 1236 q 693 1172 661 1172 q 749 1187 725 1172 q 786 1217 774 1201 l 797 1231 l 839 1189 q 788 1119 819 1149 q 676 1064 726 1064 q 556 1094 626 1064 q 456 1125 486 1125 q 356 1079 400 1125 l 342 1064 z "},"Ỳ":{"ha":897,"x_min":90,"x_max":971,"o":"m 326 111 l 365 364 l 221 861 l 90 889 l 103 965 l 332 972 l 471 464 l 704 863 l 600 889 l 614 965 l 971 972 l 957 889 l 842 861 l 499 321 l 465 111 l 581 83 l 567 0 l 188 0 l 201 83 l 326 111 m 544 1033 l 228 1169 l 279 1279 l 582 1110 l 544 1033 z "},"ỳ":{"ha":792,"x_min":-7,"x_max":813,"o":"m 799 653 l 721 631 l 474 46 q 317 -256 379 -178 q 150 -333 254 -333 q 14 -317 79 -333 l -7 -311 l 21 -222 q 136 -229 76 -229 q 234 -192 196 -229 q 315 -54 272 -154 l 135 626 l 28 653 l 40 729 l 264 736 l 381 226 l 393 132 l 599 628 l 494 653 l 507 729 l 813 736 l 799 653 m 442 838 l 139 1011 l 199 1115 l 485 911 l 442 838 z "},"Ỹ":{"ha":846,"x_min":56,"x_max":936,"o":"m 292 111 l 331 364 l 186 861 l 56 889 l 68 965 l 297 972 l 436 464 l 669 863 l 565 889 l 579 965 l 936 972 l 922 889 l 807 861 l 464 321 l 431 111 l 546 83 l 532 0 l 153 0 l 167 83 l 292 111 m 272 1064 l 232 1106 q 260 1146 239 1118 q 301 1192 282 1174 q 401 1236 351 1236 q 522 1204 451 1236 q 624 1172 592 1172 q 680 1187 656 1172 q 717 1217 704 1201 l 728 1231 l 769 1189 q 718 1119 750 1149 q 607 1064 657 1064 q 487 1094 557 1064 q 386 1125 417 1125 q 286 1079 331 1125 l 272 1064 z "},"–":{"ha":697,"x_min":0,"x_max":697,"o":"m 0 396 l 17 507 l 697 507 l 679 396 l 0 396 z "},"—":{"ha":1338,"x_min":0,"x_max":1338,"o":"m 0 396 l 18 507 l 1338 507 l 1319 396 l 0 396 z "},"‘":{"ha":285,"x_min":69,"x_max":326,"o":"m 249 799 q 219 722 249 756 q 144 689 190 689 q 69 765 69 689 q 142 935 69 839 q 253 1064 201 1014 l 274 1083 l 326 1031 q 229 879 229 919 q 239 842 229 867 q 249 799 249 817 z "},"’":{"ha":417,"x_min":104,"x_max":361,"o":"m 182 974 q 211 1050 182 1017 q 286 1083 240 1083 q 361 1007 361 1083 q 289 838 361 933 q 178 708 229 758 l 157 689 l 104 742 q 201 893 201 853 q 192 931 201 906 q 182 974 182 956 z "},"‚":{"ha":361,"x_min":0,"x_max":257,"o":"m 78 43 q 107 119 78 86 q 182 153 136 153 q 257 76 257 153 q 185 -93 257 3 q 74 -222 125 -172 l 53 -242 l 0 -189 q 97 -37 97 -78 q 88 0 97 -25 q 78 43 78 25 z "},"“":{"ha":550,"x_min":69,"x_max":592,"o":"m 249 799 q 219 722 249 756 q 144 689 190 689 q 69 765 69 689 q 142 935 69 839 q 253 1064 201 1014 l 274 1083 l 326 1031 q 229 879 229 919 q 239 842 229 867 q 249 799 249 817 m 514 799 q 485 722 514 756 q 410 689 456 689 q 335 765 335 689 q 407 935 335 839 q 518 1064 467 1014 l 539 1083 l 592 1031 q 494 879 494 919 q 504 842 494 867 q 514 799 514 817 z "},"”":{"ha":682,"x_min":104,"x_max":626,"o":"m 447 974 q 476 1050 447 1017 q 551 1083 506 1083 q 626 1007 626 1083 q 554 838 626 933 q 443 708 494 758 l 422 689 l 369 742 q 467 893 467 853 q 457 931 467 906 q 447 974 447 956 m 182 974 q 211 1050 182 1017 q 286 1083 240 1083 q 361 1007 361 1083 q 289 838 361 933 q 178 708 229 758 l 157 689 l 104 742 q 201 893 201 853 q 192 931 201 906 q 182 974 182 956 z "},"„":{"ha":619,"x_min":0,"x_max":522,"o":"m 78 43 q 107 119 78 86 q 182 153 136 153 q 257 76 257 153 q 185 -93 257 3 q 74 -222 125 -172 l 53 -242 l 0 -189 q 97 -37 97 -78 q 88 0 97 -25 q 78 43 78 25 m 343 43 q 372 119 343 86 q 447 153 401 153 q 522 76 522 153 q 450 -93 522 3 q 339 -222 390 -172 l 318 -242 l 265 -189 q 363 -37 363 -78 q 353 0 363 -25 q 343 43 343 25 z "},"†":{"ha":678,"x_min":97,"x_max":678,"o":"m 97 736 l 113 833 l 343 833 l 369 1042 l 486 1049 l 446 833 l 678 833 l 663 736 l 369 701 l 97 736 m 290 632 l 358 618 l 433 632 l 326 56 l 260 0 l 211 56 l 290 632 z "},"‡":{"ha":678,"x_min":97,"x_max":678,"o":"m 261 421 l 324 407 l 393 421 l 326 56 l 260 0 l 211 56 l 261 421 m 115 550 l 132 651 l 357 618 l 585 651 l 568 550 l 336 492 l 115 550 m 97 736 l 113 833 l 343 833 l 369 1042 l 486 1049 l 446 833 l 678 833 l 663 736 l 371 701 l 97 736 z "},"•":{"ha":701,"x_min":104,"x_max":576,"o":"m 333 194 q 285 194 333 194 q 170 253 236 194 q 104 428 104 313 q 178 613 104 544 q 347 681 251 681 q 510 619 443 681 q 576 442 576 558 q 503 260 576 326 q 333 194 431 194 z "},"…":{"ha":1000,"x_min":81,"x_max":918,"o":"m 81 63 q 109 146 81 111 q 188 181 138 181 q 264 104 264 181 q 235 22 264 57 q 156 -14 207 -14 q 81 63 81 -14 m 408 63 q 437 146 408 111 q 515 181 465 181 q 592 104 592 181 q 563 22 592 57 q 483 -14 535 -14 q 408 63 408 -14 m 735 63 q 763 146 735 111 q 842 181 792 181 q 918 104 918 181 q 890 22 918 57 q 810 -14 861 -14 q 735 63 735 -14 z "},"‰":{"ha":1632,"x_min":111,"x_max":1514,"o":"m 150 0 l 856 972 l 978 972 l 272 0 l 150 0 m 385 986 q 514 940 468 986 q 560 810 560 893 q 488 590 560 679 q 294 500 415 500 q 111 676 111 500 q 188 898 111 810 q 385 986 265 986 m 358 897 q 255 842 294 897 q 215 693 215 786 q 242 615 215 642 q 322 589 268 589 q 416 643 376 589 q 456 785 456 697 q 358 897 456 897 m 840 472 q 969 426 924 472 q 1015 296 1015 379 q 943 76 1015 165 q 750 -14 871 -14 q 567 163 567 -14 q 644 384 567 296 q 840 472 721 472 m 814 383 q 710 328 750 383 q 671 179 671 272 q 697 101 671 128 q 778 75 724 75 q 872 129 832 75 q 911 271 911 183 q 814 383 911 383 m 1339 472 q 1468 426 1422 472 q 1514 296 1514 379 q 1442 76 1514 165 q 1249 -14 1369 -14 q 1065 163 1065 -14 q 1142 384 1065 296 q 1339 472 1219 472 m 1313 383 q 1209 328 1249 383 q 1169 179 1169 272 q 1196 101 1169 128 q 1276 75 1222 75 q 1370 129 1331 75 q 1410 271 1410 183 q 1313 383 1410 383 z "},"‹":{"ha":465,"x_min":83,"x_max":396,"o":"m 213 374 l 329 167 l 251 111 l 83 338 l 96 421 l 325 622 l 396 560 l 213 374 z "},"›":{"ha":451,"x_min":76,"x_max":382,"o":"m 253 360 l 143 567 l 221 622 l 382 396 l 369 313 l 147 111 l 76 172 l 253 360 z "},"⁄":{"ha":785,"x_min":-89,"x_max":867,"o":"m -89 0 l 781 1042 l 867 979 l -4 -62 l -89 0 z "},"€":{"ha":901,"x_min":60,"x_max":900,"o":"m 90 528 l 106 625 l 197 625 q 372 890 254 793 q 643 986 490 986 q 769 971 704 986 q 867 942 833 956 l 900 926 l 858 707 l 788 707 l 771 846 q 609 868 690 868 q 459 802 528 868 q 350 625 390 736 l 690 625 l 675 528 l 90 528 m 60 332 l 75 431 l 660 431 l 644 333 l 306 333 q 490 108 315 108 q 617 133 550 108 q 719 183 683 158 l 757 210 l 800 135 q 740 86 781 115 q 661 38 699 57 q 458 -14 560 -14 q 232 81 311 -14 q 153 332 153 176 l 60 332 z "},"™":{"ha":1322,"x_min":81,"x_max":1269,"o":"m 408 507 l 397 444 l 115 444 l 126 507 l 218 525 l 279 893 l 178 893 l 146 799 l 81 799 l 110 972 l 579 972 l 550 799 l 485 799 l 485 893 l 383 893 l 322 525 l 408 507 m 943 444 l 954 507 l 1035 525 l 1085 828 l 922 594 l 851 586 l 765 822 l 717 525 l 799 507 l 788 444 l 547 444 l 557 507 l 632 525 l 693 896 l 624 906 l 633 968 l 824 972 l 911 707 l 1088 968 l 1269 972 l 1260 910 l 1188 896 l 1126 525 l 1192 507 l 1181 444 l 943 444 z "},"∂":{"ha":882,"x_min":56,"x_max":799,"o":"m 447 972 q 311 958 394 972 l 311 1056 q 479 1083 401 1083 q 717 994 635 1083 q 799 722 799 904 q 722 326 799 515 q 488 33 636 117 q 303 -14 406 -14 q 128 54 200 -14 q 56 231 56 122 q 156 496 56 381 q 413 611 257 611 q 534 587 478 611 q 614 539 590 563 l 638 514 q 663 724 663 615 q 610 902 663 832 q 447 972 558 972 m 608 396 q 585 428 606 404 q 544 465 564 451 q 403 501 492 501 q 258 429 314 501 q 201 253 201 357 q 238 144 201 186 q 330 101 274 101 q 435 132 386 101 q 514 206 483 163 q 599 365 575 292 l 608 396 z "},"∏":{"ha":1000,"x_min":69,"x_max":1042,"o":"m 204 -319 l 69 -319 l 257 861 l 146 889 l 157 965 l 408 972 l 1042 972 l 1029 889 l 910 861 l 722 -319 l 588 -319 l 775 861 l 393 861 l 204 -319 z "},"∑":{"ha":849,"x_min":-56,"x_max":849,"o":"m -56 -319 l -39 -215 l 444 335 l 142 868 l 158 972 l 849 972 l 811 736 l 725 736 l 708 861 l 297 861 l 600 338 l 133 -208 l 546 -208 l 597 -65 l 697 -65 l 657 -319 l -56 -319 z "},"−":{"ha":808,"x_min":69,"x_max":739,"o":"m 69 319 l 86 431 l 739 431 l 722 319 l 69 319 z "},"√":{"ha":917,"x_min":49,"x_max":1000,"o":"m 129 636 l 49 657 l 63 729 l 249 736 l 342 125 l 743 1063 l 1000 1069 l 988 993 l 831 972 l 396 0 l 246 0 l 129 636 z "},"∞":{"ha":1222,"x_min":83,"x_max":1139,"o":"m 853 181 q 716 221 776 181 q 592 333 656 261 q 281 181 410 181 q 135 230 188 181 q 83 361 83 279 q 163 558 83 476 q 368 639 242 639 q 503 599 443 639 q 628 486 563 558 q 940 639 804 639 q 1087 591 1035 639 q 1139 458 1139 543 q 1058 261 1139 342 q 853 181 976 181 m 915 535 q 692 413 825 535 q 788 317 746 349 q 886 285 829 285 q 982 330 943 285 q 1021 431 1021 375 q 915 535 1021 535 m 304 285 q 528 407 394 285 q 433 502 475 469 q 333 535 390 535 q 239 490 276 535 q 201 389 201 446 q 304 285 201 285 z "},"∫":{"ha":532,"x_min":-104,"x_max":608,"o":"m -1 -333 q -89 -317 -43 -333 l -104 -311 l -82 -222 q -10 -229 -42 -229 q 76 -192 47 -229 q 119 -62 104 -154 l 242 715 q 324 939 265 864 q 494 1014 382 1014 q 592 997 549 1014 l 608 990 l 585 901 q 501 910 551 910 q 424 872 451 910 q 382 743 396 835 l 260 -35 q 178 -257 238 -181 q -1 -333 119 -333 z "},"≈":{"ha":869,"x_min":65,"x_max":804,"o":"m 804 513 q 583 368 696 368 q 431 417 518 368 q 301 465 343 465 q 225 446 258 465 q 175 407 192 426 l 157 388 l 101 431 q 136 474 110 446 q 188 521 163 503 q 324 569 254 569 q 474 521 394 569 q 597 472 554 472 q 675 493 640 472 q 728 535 710 514 l 747 556 l 804 513 m 767 283 q 547 139 658 139 q 394 188 482 139 q 265 236 307 236 q 188 217 222 236 q 138 178 154 197 l 121 158 l 65 201 q 100 245 74 217 q 151 292 126 274 q 288 340 218 340 q 438 292 358 340 q 561 243 518 243 q 639 264 604 243 q 692 306 674 285 l 711 326 l 767 283 z "},"≠":{"ha":886,"x_min":69,"x_max":817,"o":"m 113 458 l 131 569 l 497 569 l 610 750 l 725 750 l 611 569 l 817 569 l 799 458 l 542 458 l 440 299 l 774 299 l 756 188 l 371 188 l 253 0 l 139 0 l 256 188 l 69 188 l 86 299 l 325 299 l 426 458 l 113 458 z "},"≤":{"ha":854,"x_min":22,"x_max":833,"o":"m 249 479 l 758 299 l 740 188 l 92 431 l 107 528 l 833 764 l 817 653 l 249 479 m 728 108 l 711 0 l 22 0 l 38 108 l 728 108 z "},"≥":{"ha":858,"x_min":19,"x_max":789,"o":"m 724 108 l 706 0 l 19 0 l 36 108 l 724 108 m 67 299 l 635 479 l 124 653 l 140 764 l 789 528 l 774 431 l 49 188 l 67 299 z "},"◊":{"ha":708,"x_min":31,"x_max":674,"o":"m 203 -56 l 31 508 l 378 1069 l 500 1069 l 674 507 l 325 -56 l 203 -56 m 418 946 l 153 510 l 279 68 l 546 506 l 418 946 z "},"ﬁ":{"ha":910,"x_min":-153,"x_max":861,"o":"m 106 -56 l 213 625 l 82 625 l 96 715 l 229 729 l 243 813 q 338 1017 265 950 q 582 1083 411 1083 q 822 1063 706 1083 l 861 1056 l 819 858 l 726 858 l 726 967 q 558 972 640 972 q 381 840 403 972 l 363 729 l 690 729 l 674 625 l 346 625 l 242 -28 q -50 -333 193 -333 q -153 -319 -100 -333 l -136 -222 l -36 -222 q 106 -56 76 -222 m 574 0 l 690 729 l 824 736 l 724 111 l 840 76 l 829 0 l 574 0 z "},"ﬂ":{"ha":926,"x_min":-153,"x_max":885,"o":"m 579 0 l 732 965 q 540 972 611 972 q 381 840 403 972 l 363 729 l 560 729 l 540 625 l 346 625 l 242 -28 q -50 -333 193 -333 q -153 -319 -100 -333 l -136 -222 l -36 -222 q 106 -56 79 -222 l 213 625 l 82 625 l 96 715 l 228 729 l 242 813 q 333 1017 264 951 q 572 1083 401 1083 q 839 1063 699 1083 l 885 1056 l 733 113 l 853 76 l 839 0 l 579 0 z "}," ":{"ha":417,"x_min":0,"x_max":0,"o":""}}}
